SplineFontDB: 3.2
FontName: telugu15m
FullName: telugu15m
FamilyName: telugu15m
Weight: Regular
Copyright: Copyright 2022 The Noto Project Authors (https://github.com/notofonts/telugu)
Version: 2.003
ItalicAngle: 0
UnderlinePosition: -125
UnderlineWidth: 50
Ascent: 800
Descent: 200
InvalidEm: 0
sfntRevision: 0x000200c5
LayerCount: 2
Layer: 0 1 "Back" 1
Layer: 1 1 "Fore" 0
XUID: [1021 467 -1121320856 9400805]
StyleMap: 0x0040
FSType: 0
OS2Version: 4
OS2_WeightWidthSlopeOnly: 0
OS2_UseTypoMetrics: 1
CreationTime: 1554112134
ModificationTime: 1741115913
PfmFamily: 81
TTFWeight: 400
TTFWidth: 5
LineGap: 0
VLineGap: 0
Panose: 0 0 0 0 0 0 0 0 0 0
OS2TypoAscent: 869
OS2TypoAOffset: 0
OS2TypoDescent: -483
OS2TypoDOffset: 0
OS2TypoLinegap: 0
OS2WinAscent: 869
OS2WinAOffset: 0
OS2WinDescent: 483
OS2WinDOffset: 0
HheadAscent: 869
HheadAOffset: 0
HheadDescent: -483
HheadDOffset: 0
OS2SubXSize: 650
OS2SubYSize: 600
OS2SubXOff: 0
OS2SubYOff: 75
OS2SupXSize: 650
OS2SupYSize: 600
OS2SupXOff: 0
OS2SupYOff: 350
OS2StrikeYSize: 50
OS2StrikeYPos: 300
OS2CapHeight: 620
OS2XHeight: 500
OS2Vendor: 'GOOG'
OS2CodePages: 00000093.00000000
OS2UnicodeRanges: 80208003.00002042.00000000.00000000



































































































































MarkAttachClasses: 2

StartChar: exclam.telu
Encoding: 33 33 3
Width: 1274
Flags: W
LayerCount: 2
Fore
SplineSet
632 112 m 0,0,1
 616 112 616 112 607 123 c 128,-1,2
 598 134 598 134 593.5 161 c 128,-1,3
 589 188 589 188 588 233.5 c 128,-1,4
 587 279 587 279 587 348 c 0,5,6
 587 445 587 445 588 499 c 128,-1,7
 589 553 589 553 595 579 c 128,-1,8
 601 605 601 605 613.5 610.5 c 128,-1,9
 626 616 626 616 649 616 c 0,10,11
 661 616 661 616 668 609 c 128,-1,12
 675 602 675 602 679.5 579 c 128,-1,13
 684 556 684 556 685.5 511 c 128,-1,14
 687 466 687 466 687 389 c 0,15,16
 687 249 687 249 677 180.5 c 128,-1,17
 667 112 667 112 632 112 c 0,0,1
619 593 m 0,18,19
 615 593 615 593 609 581 c 128,-1,20
 603 569 603 569 603 544 c 0,21,22
 603 531 603 531 604.5 518.5 c 128,-1,23
 606 506 606 506 613 506 c 0,24,25
 619 506 619 506 621 510 c 128,-1,26
 623 514 623 514 623 519.5 c 128,-1,27
 623 525 623 525 622.5 532 c 128,-1,28
 622 539 622 539 622 545 c 0,29,30
 623 562 623 562 625 577.5 c 128,-1,31
 627 593 627 593 619 593 c 0,18,19
633 -8 m 0,32,33
 614 -8 614 -8 602.5 4.5 c 128,-1,34
 591 17 591 17 591 38 c 0,35,36
 591 57 591 57 601 73.5 c 128,-1,37
 611 90 611 90 633 90 c 0,38,39
 656 90 656 90 668 74.5 c 128,-1,40
 680 59 680 59 680 38 c 0,41,42
 680 15 680 15 666.5 3.5 c 128,-1,43
 653 -8 653 -8 633 -8 c 0,32,33
615 44 m 0,44,45
 616 55 616 55 620 64 c 128,-1,46
 624 73 624 73 619 73 c 0,47,48
 612 73 612 73 607.5 58.5 c 128,-1,49
 603 44 603 44 603 33 c 0,50,51
 603 23 603 23 608 23 c 0,52,53
 612 23 612 23 613 30.5 c 128,-1,54
 614 38 614 38 615 44 c 0,44,45
EndSplineSet
EndChar

StartChar: quotedbl.telu
Encoding: 34 34 4
Width: 1274
Flags: W
LayerCount: 2
Fore
SplineSet
593 714 m 1,0,-1
 573 456 l 1,1,-1
 518 456 l 1,2,-1
 498 714 l 1,3,-1
 593 714 l 1,0,-1
776 714 m 1,4,-1
 756 456 l 1,5,-1
 701 456 l 1,6,-1
 681 714 l 1,7,-1
 776 714 l 1,4,-1
EndSplineSet
EndChar

StartChar: numbersign.telu
Encoding: 35 35 5
Width: 1274
Flags: W
LayerCount: 2
Fore
SplineSet
650.954101562 108 m 0,0,1
 632.954101562 108 632.954101562 108 626.454101562 120 c 128,-1,2
 619.954101562 132 619.954101562 132 618.954101562 147 c 0,3,4
 617.954101562 164 617.954101562 164 624.454101562 181 c 128,-1,5
 630.954101562 198 630.954101562 198 629.954101562 211 c 0,6,7
 629.954101562 214 629.954101562 214 622.454101562 215 c 128,-1,8
 614.954101562 216 614.954101562 216 612.954101562 216 c 2,9,-1
 581.954101562 216 l 1,10,11
 578.954101562 207 578.954101562 207 572.954101562 192 c 128,-1,12
 566.954101562 177 566.954101562 177 558.954101562 162 c 128,-1,13
 550.954101562 147 550.954101562 147 540.454101562 136.5 c 128,-1,14
 529.954101562 126 529.954101562 126 516.954101562 126 c 0,15,16
 500.954101562 126 500.954101562 126 494.454101562 136 c 128,-1,17
 487.954101562 146 487.954101562 146 486.954101562 160 c 0,18,19
 485.954101562 177 485.954101562 177 490.454101562 187.5 c 128,-1,20
 494.954101562 198 494.954101562 198 493.954101562 214 c 0,21,22
 493.954101562 222 493.954101562 222 484.454101562 222.5 c 128,-1,23
 474.954101562 223 474.954101562 223 462.954101562 225 c 128,-1,24
 450.954101562 227 450.954101562 227 440.954101562 234.5 c 128,-1,25
 430.954101562 242 430.954101562 242 429.954101562 264 c 0,26,27
 429.954101562 276 429.954101562 276 435.954101562 283.5 c 128,-1,28
 441.954101562 291 441.954101562 291 450.954101562 295 c 128,-1,29
 459.954101562 299 459.954101562 299 470.954101562 300.5 c 128,-1,30
 481.954101562 302 481.954101562 302 491.954101562 302 c 0,31,32
 503.954101562 302 503.954101562 302 511.454101562 309.5 c 128,-1,33
 518.954101562 317 518.954101562 317 522.954101562 328 c 128,-1,34
 526.954101562 339 526.954101562 339 529.454101562 351 c 128,-1,35
 531.954101562 363 531.954101562 363 533.954101562 372 c 1,36,37
 525.954101562 372 525.954101562 372 513.954101562 373.5 c 128,-1,38
 501.954101562 375 501.954101562 375 490.454101562 378.5 c 128,-1,39
 478.954101562 382 478.954101562 382 470.954101562 389.5 c 128,-1,40
 462.954101562 397 462.954101562 397 462.954101562 409 c 0,41,42
 461.954101562 435 461.954101562 435 476.454101562 442 c 128,-1,43
 490.954101562 449 490.954101562 449 528.954101562 449 c 0,44,45
 544.954101562 449 544.954101562 449 550.954101562 452.5 c 128,-1,46
 556.954101562 456 556.954101562 456 561.954101562 472 c 0,47,48
 564.954101562 479 564.954101562 479 567.954101562 489.5 c 128,-1,49
 570.954101562 500 570.954101562 500 576.454101562 510 c 128,-1,50
 581.954101562 520 581.954101562 520 590.954101562 527 c 128,-1,51
 599.954101562 534 599.954101562 534 614.954101562 534 c 0,52,53
 634.954101562 534 634.954101562 534 642.454101562 522 c 128,-1,54
 649.954101562 510 649.954101562 510 650.954101562 499 c 0,55,56
 650.954101562 489 650.954101562 489 647.454101562 480.5 c 128,-1,57
 643.954101562 472 643.954101562 472 644.954101562 462 c 0,58,59
 644.954101562 457 644.954101562 457 649.454101562 454.5 c 128,-1,60
 653.954101562 452 653.954101562 452 659.454101562 450.5 c 128,-1,61
 664.954101562 449 664.954101562 449 670.954101562 449 c 128,-1,62
 676.954101562 449 676.954101562 449 679.954101562 449 c 0,63,64
 689.954101562 449 689.954101562 449 695.954101562 461 c 128,-1,65
 701.954101562 473 701.954101562 473 707.954101562 488 c 128,-1,66
 713.954101562 503 713.954101562 503 721.954101562 515 c 128,-1,67
 729.954101562 527 729.954101562 527 744.954101562 527 c 0,68,69
 764.954101562 527 764.954101562 527 773.954101562 511 c 128,-1,70
 782.954101562 495 782.954101562 495 783.954101562 483 c 0,71,72
 783.954101562 475 783.954101562 475 780.954101562 467.5 c 128,-1,73
 777.954101562 460 777.954101562 460 777.954101562 451 c 0,74,75
 777.954101562 444 777.954101562 444 788.454101562 443.5 c 128,-1,76
 798.954101562 443 798.954101562 443 810.954101562 441.5 c 128,-1,77
 822.954101562 440 822.954101562 440 832.954101562 434.5 c 128,-1,78
 842.954101562 429 842.954101562 429 843.954101562 412 c 0,79,80
 844.954101562 398 844.954101562 398 834.954101562 390 c 128,-1,81
 824.954101562 382 824.954101562 382 811.454101562 377.5 c 128,-1,82
 797.954101562 373 797.954101562 373 782.954101562 371.5 c 128,-1,83
 767.954101562 370 767.954101562 370 758.954101562 370 c 1,84,85
 751.954101562 351 751.954101562 351 747.454101562 335 c 128,-1,86
 742.954101562 319 742.954101562 319 735.954101562 299 c 1,87,88
 746.954101562 299 746.954101562 299 758.954101562 299.5 c 128,-1,89
 770.954101562 300 770.954101562 300 780.954101562 297.5 c 128,-1,90
 790.954101562 295 790.954101562 295 797.454101562 288 c 128,-1,91
 803.954101562 281 803.954101562 281 804.954101562 265 c 0,92,93
 805.954101562 251 805.954101562 251 799.954101562 241.5 c 128,-1,94
 793.954101562 232 793.954101562 232 783.954101562 226 c 128,-1,95
 773.954101562 220 773.954101562 220 762.454101562 217.5 c 128,-1,96
 750.954101562 215 750.954101562 215 739.954101562 215 c 2,97,-1
 734.954101562 215 l 1,98,-1
 723.954101562 216 l 1,99,-1
 718.954101562 216 l 1,100,101
 715.954101562 204 715.954101562 204 712.454101562 186 c 128,-1,102
 708.954101562 168 708.954101562 168 702.454101562 150.5 c 128,-1,103
 695.954101562 133 695.954101562 133 683.954101562 120.5 c 128,-1,104
 671.954101562 108 671.954101562 108 650.954101562 108 c 0,0,1
582.954101562 457 m 0,105,106
 585.954101562 457 585.954101562 457 589.954101562 463 c 128,-1,107
 593.954101562 469 593.954101562 469 597.454101562 476.5 c 128,-1,108
 600.954101562 484 600.954101562 484 603.954101562 492 c 128,-1,109
 606.954101562 500 606.954101562 500 606.954101562 503 c 0,110,111
 606.954101562 508 606.954101562 508 601.954101562 508 c 0,112,113
 597.954101562 509 597.954101562 509 593.454101562 504 c 128,-1,114
 588.954101562 499 588.954101562 499 585.454101562 492 c 128,-1,115
 581.954101562 485 581.954101562 485 579.454101562 477.5 c 128,-1,116
 576.954101562 470 576.954101562 470 576.954101562 466 c 0,117,118
 576.954101562 463 576.954101562 463 578.954101562 460 c 128,-1,119
 580.954101562 457 580.954101562 457 582.954101562 457 c 0,105,106
480.954101562 404 m 0,120,121
 485.954101562 404 485.954101562 404 488.954101562 415 c 128,-1,122
 491.954101562 426 491.954101562 426 490.954101562 430 c 0,123,124
 490.954101562 434 490.954101562 434 487.954101562 434 c 0,125,126
 482.954101562 436 482.954101562 436 478.454101562 429 c 128,-1,127
 473.954101562 422 473.954101562 422 474.954101562 416 c 0,128,129
 474.954101562 404 474.954101562 404 480.954101562 404 c 0,120,121
627.954101562 298 m 0,130,131
 638.954101562 298 638.954101562 298 646.954101562 305.5 c 128,-1,132
 654.954101562 313 654.954101562 313 659.954101562 323.5 c 128,-1,133
 664.954101562 334 664.954101562 334 666.954101562 345.5 c 128,-1,134
 668.954101562 357 668.954101562 357 668.954101562 366 c 0,135,136
 668.954101562 369 668.954101562 369 667.954101562 372 c 128,-1,137
 666.954101562 375 666.954101562 375 662.954101562 375 c 0,138,139
 639.954101562 375 639.954101562 375 630.954101562 369 c 128,-1,140
 621.954101562 363 621.954101562 363 613.954101562 342 c 0,141,142
 611.954101562 336 611.954101562 336 607.454101562 323 c 128,-1,143
 602.954101562 310 602.954101562 310 603.954101562 304 c 2,144,-1
 603.954101562 303 l 1,145,146
 608.954101562 300 608.954101562 300 615.454101562 299 c 128,-1,147
 621.954101562 298 621.954101562 298 627.954101562 298 c 0,130,131
462.954101562 279 m 0,148,149
 462.954101562 285 462.954101562 285 455.954101562 285 c 0,150,151
 446.954101562 285 446.954101562 285 443.954101562 273 c 128,-1,152
 440.954101562 261 440.954101562 261 442.954101562 256 c 256,153,154
 444.954101562 251 444.954101562 251 446.954101562 250 c 0,155,156
 448.954101562 250 448.954101562 250 451.954101562 253.5 c 128,-1,157
 454.954101562 257 454.954101562 257 457.454101562 262 c 128,-1,158
 459.954101562 267 459.954101562 267 461.454101562 272 c 128,-1,159
 462.954101562 277 462.954101562 277 462.954101562 279 c 0,148,149
EndSplineSet
EndChar

StartChar: percent.telu
Encoding: 37 37 6
Width: 1274
Flags: W
LayerCount: 2
Fore
SplineSet
499.5 -6 m 0,0,1
 495.5 -6 495.5 -6 488 -4 c 128,-1,2
 480.5 -2 480.5 -2 473.5 2 c 128,-1,3
 466.5 6 466.5 6 461.5 11.5 c 128,-1,4
 456.5 17 456.5 17 456.5 23 c 0,5,6
 456.5 30 456.5 30 460.5 46.5 c 128,-1,7
 464.5 63 464.5 63 476.5 93 c 128,-1,8
 488.5 123 488.5 123 510 168.5 c 128,-1,9
 531.5 214 531.5 214 566.5 280 c 0,10,11
 620.5 383 620.5 383 654 450 c 128,-1,12
 687.5 517 687.5 517 708.5 556 c 0,13,14
 729.5 596 729.5 596 747 607.5 c 128,-1,15
 764.5 619 764.5 619 777.5 619 c 0,16,17
 794.5 619 794.5 619 801 607 c 128,-1,18
 807.5 595 807.5 595 806.5 577.5 c 128,-1,19
 805.5 560 805.5 560 800 541.5 c 128,-1,20
 794.5 523 794.5 523 788.5 510 c 0,21,22
 774.5 481 774.5 481 751.5 434.5 c 128,-1,23
 728.5 388 728.5 388 702 335.5 c 128,-1,24
 675.5 283 675.5 283 648 229 c 128,-1,25
 620.5 175 620.5 175 597.5 130.5 c 128,-1,26
 574.5 86 574.5 86 559 56 c 128,-1,27
 543.5 26 543.5 26 540.5 22 c 0,28,29
 529.5 5 529.5 5 519 -0.5 c 128,-1,30
 508.5 -6 508.5 -6 499.5 -6 c 0,0,1
505.5 393 m 0,31,32
 482.5 393 482.5 393 465 402.5 c 128,-1,33
 447.5 412 447.5 412 435.5 428 c 128,-1,34
 423.5 444 423.5 444 417.5 465 c 128,-1,35
 411.5 486 411.5 486 411.5 510 c 0,36,37
 411.5 529 411.5 529 418 548 c 128,-1,38
 424.5 567 424.5 567 436.5 582.5 c 128,-1,39
 448.5 598 448.5 598 465.5 608 c 128,-1,40
 482.5 618 482.5 618 503.5 618 c 0,41,42
 545.5 618 545.5 618 569.5 594.5 c 128,-1,43
 593.5 571 593.5 571 593.5 517 c 0,44,45
 593.5 490 593.5 490 586.5 467.5 c 128,-1,46
 579.5 445 579.5 445 567.5 428.5 c 128,-1,47
 555.5 412 555.5 412 539.5 402.5 c 128,-1,48
 523.5 393 523.5 393 505.5 393 c 0,31,32
505.5 460 m 0,49,50
 512.5 460 512.5 460 517.5 465.5 c 128,-1,51
 522.5 471 522.5 471 525.5 479.5 c 128,-1,52
 528.5 488 528.5 488 530 498 c 128,-1,53
 531.5 508 531.5 508 531.5 517 c 0,54,55
 531.5 534 531.5 534 524.5 546 c 128,-1,56
 517.5 558 517.5 558 505.5 558 c 0,57,58
 494.5 558 494.5 558 486.5 543.5 c 128,-1,59
 478.5 529 478.5 529 478.5 512 c 256,60,61
 478.5 495 478.5 495 485.5 477.5 c 128,-1,62
 492.5 460 492.5 460 505.5 460 c 0,49,50
437.5 512 m 256,63,64
 437.5 528 437.5 528 437.5 535.5 c 128,-1,65
 437.5 543 437.5 543 434.5 543 c 0,66,67
 428.5 543 428.5 543 426.5 530.5 c 128,-1,68
 424.5 518 424.5 518 424.5 514 c 0,69,70
 424.5 511 424.5 511 424.5 505.5 c 128,-1,71
 424.5 500 424.5 500 426 494.5 c 128,-1,72
 427.5 489 427.5 489 430 484.5 c 128,-1,73
 432.5 480 432.5 480 437.5 480 c 0,74,75
 441.5 480 441.5 480 439.5 488 c 128,-1,76
 437.5 496 437.5 496 437.5 512 c 256,63,64
462.5 453 m 0,77,78
 462.5 464 462.5 464 453.5 464 c 0,79,80
 447.5 464 447.5 464 447.5 456 c 0,81,82
 447.5 454 447.5 454 450 450 c 128,-1,83
 452.5 446 452.5 446 455.5 446 c 0,84,85
 462.5 446 462.5 446 462.5 453 c 0,77,78
774.5 -6 m 0,86,87
 751.5 -6 751.5 -6 734 3.5 c 128,-1,88
 716.5 13 716.5 13 704.5 29 c 128,-1,89
 692.5 45 692.5 45 686.5 66 c 128,-1,90
 680.5 87 680.5 87 680.5 111 c 0,91,92
 680.5 130 680.5 130 687 149 c 128,-1,93
 693.5 168 693.5 168 705.5 183.5 c 128,-1,94
 717.5 199 717.5 199 734.5 209 c 128,-1,95
 751.5 219 751.5 219 772.5 219 c 0,96,97
 814.5 219 814.5 219 838.5 195.5 c 128,-1,98
 862.5 172 862.5 172 862.5 118 c 0,99,100
 862.5 91 862.5 91 855.5 68.5 c 128,-1,101
 848.5 46 848.5 46 836.5 29.5 c 128,-1,102
 824.5 13 824.5 13 808.5 3.5 c 128,-1,103
 792.5 -6 792.5 -6 774.5 -6 c 0,86,87
774.5 61 m 0,104,105
 781.5 61 781.5 61 786.5 66.5 c 128,-1,106
 791.5 72 791.5 72 794.5 80.5 c 128,-1,107
 797.5 89 797.5 89 799 99 c 128,-1,108
 800.5 109 800.5 109 800.5 118 c 0,109,110
 800.5 135 800.5 135 793.5 147 c 128,-1,111
 786.5 159 786.5 159 774.5 159 c 0,112,113
 763.5 159 763.5 159 755.5 144.5 c 128,-1,114
 747.5 130 747.5 130 747.5 113 c 256,115,116
 747.5 96 747.5 96 754.5 78.5 c 128,-1,117
 761.5 61 761.5 61 774.5 61 c 0,104,105
706.5 113 m 256,118,119
 706.5 129 706.5 129 706.5 136.5 c 128,-1,120
 706.5 144 706.5 144 703.5 144 c 0,121,122
 697.5 144 697.5 144 695.5 131.5 c 128,-1,123
 693.5 119 693.5 119 693.5 115 c 0,124,125
 693.5 112 693.5 112 693.5 106.5 c 128,-1,126
 693.5 101 693.5 101 695 95.5 c 128,-1,127
 696.5 90 696.5 90 699 85.5 c 128,-1,128
 701.5 81 701.5 81 706.5 81 c 0,129,130
 710.5 81 710.5 81 708.5 89 c 128,-1,131
 706.5 97 706.5 97 706.5 113 c 256,118,119
497.5 82 m 0,132,133
 492.5 87 492.5 87 487 82 c 128,-1,134
 481.5 77 481.5 77 478.5 69 c 256,135,136
 475.5 61 475.5 61 472.5 50 c 128,-1,137
 469.5 39 469.5 39 469.5 34 c 0,138,139
 470.5 23 470.5 23 474 23 c 128,-1,140
 477.5 23 477.5 23 484.5 40 c 0,141,142
 489.5 52 489.5 52 494.5 66 c 128,-1,143
 499.5 80 499.5 80 497.5 82 c 0,132,133
731.5 54 m 0,144,145
 731.5 65 731.5 65 722.5 65 c 0,146,147
 716.5 65 716.5 65 716.5 57 c 0,148,149
 716.5 55 716.5 55 719 51 c 128,-1,150
 721.5 47 721.5 47 724.5 47 c 0,151,152
 731.5 47 731.5 47 731.5 54 c 0,144,145
EndSplineSet
EndChar

StartChar: quotesingle.telu
Encoding: 39 39 7
Width: 1274
Flags: W
LayerCount: 2
Fore
SplineSet
684.5 714 m 1,0,-1
 664.5 456 l 1,1,-1
 609.5 456 l 1,2,-1
 589.5 714 l 1,3,-1
 684.5 714 l 1,0,-1
EndSplineSet
EndChar

StartChar: parenleft.telu
Encoding: 40 40 8
Width: 1274
Flags: W
LayerCount: 2
Fore
SplineSet
701.5 -72 m 0,0,1
 647.5 -51 647.5 -51 611 -13 c 128,-1,2
 574.5 25 574.5 25 552 71.5 c 128,-1,3
 529.5 118 529.5 118 519.5 169.5 c 128,-1,4
 509.5 221 509.5 221 509.5 269 c 0,5,6
 509.5 315 509.5 315 518 363 c 128,-1,7
 526.5 411 526.5 411 542 456 c 128,-1,8
 557.5 501 557.5 501 580.5 540.5 c 128,-1,9
 603.5 580 603.5 580 631.5 609 c 0,10,11
 658.5 636 658.5 636 683.5 654 c 128,-1,12
 708.5 672 708.5 672 728.5 672 c 0,13,14
 743.5 672 743.5 672 752.5 660 c 128,-1,15
 761.5 648 761.5 648 761.5 636 c 0,16,17
 761.5 628 761.5 628 749 617 c 128,-1,18
 736.5 606 736.5 606 713.5 582 c 0,19,20
 683.5 550 683.5 550 663.5 512 c 128,-1,21
 643.5 474 643.5 474 631.5 433.5 c 128,-1,22
 619.5 393 619.5 393 615 351.5 c 128,-1,23
 610.5 310 610.5 310 610.5 272 c 256,24,25
 610.5 234 610.5 234 616.5 192.5 c 128,-1,26
 622.5 151 622.5 151 636.5 113 c 128,-1,27
 650.5 75 650.5 75 673.5 43.5 c 128,-1,28
 696.5 12 696.5 12 730.5 -7 c 0,29,30
 747.5 -16 747.5 -16 756 -22.5 c 128,-1,31
 764.5 -29 764.5 -29 764.5 -43 c 0,32,33
 764.5 -56 764.5 -56 751.5 -66 c 128,-1,34
 738.5 -76 738.5 -76 721.5 -76 c 0,35,36
 710.5 -76 710.5 -76 701.5 -72 c 0,0,1
687.5 620 m 0,37,38
 692.5 625 692.5 625 698.5 630.5 c 128,-1,39
 704.5 636 704.5 636 697.5 636 c 0,40,41
 689.5 636 689.5 636 679 628.5 c 128,-1,42
 668.5 621 668.5 621 658.5 611 c 128,-1,43
 648.5 601 648.5 601 642 590.5 c 128,-1,44
 635.5 580 635.5 580 635.5 574 c 0,45,46
 635.5 569 635.5 569 639.5 569 c 0,47,48
 644.5 569 644.5 569 649 575.5 c 128,-1,49
 653.5 582 653.5 582 656.5 587 c 0,50,51
 660.5 594 660.5 594 667.5 601.5 c 128,-1,52
 674.5 609 674.5 609 687.5 620 c 0,37,38
629.5 547 m 0,53,54
 629.5 555 629.5 555 623.5 555 c 0,55,56
 611.5 555 611.5 555 611.5 547 c 0,57,58
 611.5 541 611.5 541 614.5 539.5 c 128,-1,59
 617.5 538 617.5 538 619.5 538 c 256,60,61
 621.5 538 621.5 538 625.5 539.5 c 128,-1,62
 629.5 541 629.5 541 629.5 547 c 0,53,54
EndSplineSet
EndChar

StartChar: parenright.telu
Encoding: 41 41 9
Width: 1274
Flags: W
LayerCount: 2
Fore
SplineSet
566 -93 m 0,0,1
 552 -93 552 -93 539.5 -84.5 c 128,-1,2
 527 -76 527 -76 527 -66 c 0,3,4
 527 -57 527 -57 537 -43 c 128,-1,5
 547 -29 547 -29 561.5 -8.5 c 128,-1,6
 576 12 576 12 593.5 41 c 128,-1,7
 611 70 611 70 625.5 108 c 128,-1,8
 640 146 640 146 650 195 c 128,-1,9
 660 244 660 244 660 305 c 0,10,11
 660 352 660 352 652.5 398.5 c 128,-1,12
 645 445 645 445 631 484 c 128,-1,13
 617 523 617 523 597.5 552 c 128,-1,14
 578 581 578 581 554 594 c 0,15,16
 542 601 542 601 528 610.5 c 128,-1,17
 514 620 514 620 514 638 c 0,18,19
 514 653 514 653 527 662.5 c 128,-1,20
 540 672 540 672 561 672 c 0,21,22
 598 672 598 672 634 646 c 128,-1,23
 670 620 670 620 698 572 c 128,-1,24
 726 524 726 524 743 455.5 c 128,-1,25
 760 387 760 387 760 302 c 0,26,27
 760 227 760 227 751.5 175 c 128,-1,28
 743 123 743 123 727.5 85 c 128,-1,29
 712 47 712 47 691 17 c 128,-1,30
 670 -13 670 -13 645 -44 c 0,31,32
 622 -73 622 -73 602.5 -83 c 128,-1,33
 583 -93 583 -93 566 -93 c 0,0,1
534 621 m 0,34,35
 538 621 538 621 541.5 628.5 c 128,-1,36
 545 636 545 636 545 644 c 0,37,38
 545 657 545 657 538 657 c 0,39,40
 534 657 534 657 530.5 649.5 c 128,-1,41
 527 642 527 642 527 634 c 0,42,43
 527 621 527 621 534 621 c 0,34,35
561 -60 m 256,44,45
 566 -50 566 -50 566.5 -40 c 128,-1,46
 567 -30 567 -30 563 -29 c 0,47,48
 561 -29 561 -29 557.5 -33 c 128,-1,49
 554 -37 554 -37 550.5 -43 c 128,-1,50
 547 -49 547 -49 544.5 -55 c 128,-1,51
 542 -61 542 -61 542 -64 c 0,52,53
 542 -72 542 -72 546 -73 c 0,54,55
 549 -74 549 -74 552.5 -72 c 128,-1,56
 556 -70 556 -70 561 -60 c 256,44,45
EndSplineSet
EndChar

StartChar: asterisk.telu
Encoding: 42 42 10
Width: 1274
Flags: W
LayerCount: 2
Fore
SplineSet
684.5 760 m 1,0,-1
 664.5 568 l 1,1,-1
 856.5 622 l 1,2,-1
 870.5 530 l 1,3,-1
 686.5 515 l 1,4,-1
 805.5 357 l 1,5,-1
 719.5 310 l 1,6,-1
 634.5 485 l 1,7,-1
 557.5 310 l 1,8,-1
 468.5 357 l 1,9,-1
 585.5 515 l 1,10,-1
 403.5 530 l 1,11,-1
 417.5 622 l 1,12,-1
 607.5 568 l 1,13,-1
 586.5 760 l 1,14,-1
 684.5 760 l 1,0,-1
EndSplineSet
EndChar

StartChar: plus.telu
Encoding: 43 43 11
Width: 1274
Flags: W
LayerCount: 2
Fore
SplineSet
673 388 m 1,0,-1
 872 388 l 1,1,-1
 872 317 l 1,2,-1
 673 317 l 1,3,-1
 673 111 l 1,4,-1
 601 111 l 1,5,-1
 601 317 l 1,6,-1
 402 317 l 1,7,-1
 402 388 l 1,8,-1
 601 388 l 1,9,-1
 601 595 l 1,10,-1
 673 595 l 1,11,-1
 673 388 l 1,0,-1
EndSplineSet
EndChar

StartChar: comma.telu
Encoding: 44 44 12
Width: 1274
Flags: W
LayerCount: 2
Fore
SplineSet
712.5 105 m 1,0,1
 703.5 70 703.5 70 689.5 29 c 128,-1,2
 675.5 -12 675.5 -12 659 -52.5 c 128,-1,3
 642.5 -93 642.5 -93 626.5 -129 c 1,4,-1
 561.5 -129 l 1,5,6
 571.5 -91 571.5 -91 581 -47.5 c 128,-1,7
 590.5 -4 590.5 -4 598.5 38.5 c 128,-1,8
 606.5 81 606.5 81 611.5 116 c 1,9,-1
 705.5 116 l 1,10,-1
 712.5 105 l 1,0,1
EndSplineSet
EndChar

StartChar: hyphen.telu
Encoding: 45 45 13
Width: 1274
Flags: W
LayerCount: 2
Fore
SplineSet
516 229 m 1,0,-1
 516 307 l 1,1,-1
 758 307 l 1,2,-1
 758 229 l 1,3,-1
 516 229 l 1,0,-1
EndSplineSet
EndChar

StartChar: period.telu
Encoding: 46 46 14
Width: 1274
Flags: W
LayerCount: 2
Fore
SplineSet
631.5 -8 m 0,0,1
 591.5 -8 591.5 -8 563 20 c 128,-1,2
 534.5 48 534.5 48 534.5 92 c 0,3,4
 534.5 116 534.5 116 543 137.5 c 128,-1,5
 551.5 159 551.5 159 566.5 174.5 c 128,-1,6
 581.5 190 581.5 190 602.5 199.5 c 128,-1,7
 623.5 209 623.5 209 648.5 209 c 0,8,9
 668.5 209 668.5 209 685.5 200.5 c 128,-1,10
 702.5 192 702.5 192 714.5 177 c 128,-1,11
 726.5 162 726.5 162 733 143 c 128,-1,12
 739.5 124 739.5 124 739.5 103 c 0,13,14
 739.5 76 739.5 76 731 55.5 c 128,-1,15
 722.5 35 722.5 35 707.5 21 c 128,-1,16
 692.5 7 692.5 7 673 -0.5 c 128,-1,17
 653.5 -8 653.5 -8 631.5 -8 c 0,0,1
594.5 165 m 0,18,19
 601.5 172 601.5 172 603 177 c 128,-1,20
 604.5 182 604.5 182 602.5 182 c 0,21,22
 594.5 182 594.5 182 585.5 174.5 c 128,-1,23
 576.5 167 576.5 167 569 156.5 c 128,-1,24
 561.5 146 561.5 146 556.5 134 c 128,-1,25
 551.5 122 551.5 122 551.5 112 c 0,26,27
 551.5 110 551.5 110 553 104 c 128,-1,28
 554.5 98 554.5 98 557.5 98 c 0,29,30
 561.5 98 561.5 98 567.5 120 c 0,31,32
 570.5 134 570.5 134 578.5 145.5 c 128,-1,33
 586.5 157 586.5 157 594.5 165 c 0,18,19
635.5 49 m 0,34,35
 647.5 49 647.5 49 664 63 c 128,-1,36
 680.5 77 680.5 77 680.5 103 c 0,37,38
 680.5 123 680.5 123 670 136.5 c 128,-1,39
 659.5 150 659.5 150 642.5 150 c 256,40,41
 625.5 150 625.5 150 611.5 136.5 c 128,-1,42
 597.5 123 597.5 123 597.5 99 c 256,43,44
 597.5 75 597.5 75 608.5 62 c 128,-1,45
 619.5 49 619.5 49 635.5 49 c 0,34,35
EndSplineSet
EndChar

StartChar: slash.telu
Encoding: 47 47 15
Width: 1274
Flags: W
LayerCount: 2
Fore
SplineSet
523.5 -77 m 0,0,1
 519.5 -77 519.5 -77 508 -75 c 128,-1,2
 496.5 -73 496.5 -73 484.5 -68.5 c 128,-1,3
 472.5 -64 472.5 -64 463.5 -57 c 128,-1,4
 454.5 -50 454.5 -50 454.5 -41 c 0,5,6
 454.5 -38 454.5 -38 465 -9.5 c 128,-1,7
 475.5 19 475.5 19 492.5 64 c 128,-1,8
 509.5 109 509.5 109 532 166 c 128,-1,9
 554.5 223 554.5 223 578.5 283 c 128,-1,10
 602.5 343 602.5 343 626.5 402 c 128,-1,11
 650.5 461 650.5 461 670.5 509.5 c 128,-1,12
 690.5 558 690.5 558 705.5 592 c 128,-1,13
 720.5 626 720.5 626 726.5 636 c 0,14,15
 733.5 647 733.5 647 745 656.5 c 128,-1,16
 756.5 666 756.5 666 770.5 666 c 0,17,18
 777.5 666 777.5 666 786 663.5 c 128,-1,19
 794.5 661 794.5 661 802 656.5 c 128,-1,20
 809.5 652 809.5 652 814.5 646 c 128,-1,21
 819.5 640 819.5 640 819.5 633 c 0,22,23
 819.5 625 819.5 625 811 599.5 c 128,-1,24
 802.5 574 802.5 574 791 544.5 c 128,-1,25
 779.5 515 779.5 515 768 487.5 c 128,-1,26
 756.5 460 756.5 460 750.5 447 c 0,27,28
 746.5 438 746.5 438 735.5 410.5 c 128,-1,29
 724.5 383 724.5 383 709.5 344.5 c 128,-1,30
 694.5 306 694.5 306 676.5 259.5 c 128,-1,31
 658.5 213 658.5 213 639.5 166.5 c 128,-1,32
 620.5 120 620.5 120 602 76 c 128,-1,33
 583.5 32 583.5 32 568 -2 c 128,-1,34
 552.5 -36 552.5 -36 540.5 -56.5 c 128,-1,35
 528.5 -77 528.5 -77 523.5 -77 c 0,0,1
498.5 -37 m 0,36,37
 502.5 -25 502.5 -25 510.5 -7 c 128,-1,38
 518.5 11 518.5 11 525.5 27.5 c 128,-1,39
 532.5 44 532.5 44 536 56.5 c 128,-1,40
 539.5 69 539.5 69 534.5 70 c 0,41,42
 532.5 71 532.5 71 527.5 71 c 128,-1,43
 522.5 71 522.5 71 519.5 66 c 0,44,45
 517.5 62 517.5 62 511 48.5 c 128,-1,46
 504.5 35 504.5 35 498 19.5 c 128,-1,47
 491.5 4 491.5 4 486.5 -10.5 c 128,-1,48
 481.5 -25 481.5 -25 481.5 -31 c 0,49,50
 481.5 -38 481.5 -38 489 -40 c 128,-1,51
 496.5 -42 496.5 -42 498.5 -37 c 0,36,37
EndSplineSet
EndChar

StartChar: zero.telu
Encoding: 48 48 16
Width: 1274
Flags: W
LayerCount: 2
Fore
SplineSet
642 -17 m 0,0,1
 590 -17 590 -17 555.5 11.5 c 128,-1,2
 521 40 521 40 500 86 c 128,-1,3
 479 132 479 132 470.5 190 c 128,-1,4
 462 248 462 248 462 307 c 256,5,6
 462 366 462 366 472 422.5 c 128,-1,7
 482 479 482 479 504.5 523 c 128,-1,8
 527 567 527 567 563 594 c 128,-1,9
 599 621 599 621 650 621 c 0,10,11
 684 621 684 621 709 604 c 128,-1,12
 734 587 734 587 752 560 c 128,-1,13
 770 533 770 533 782 499 c 128,-1,14
 794 465 794 465 800.5 430 c 128,-1,15
 807 395 807 395 809.5 362.5 c 128,-1,16
 812 330 812 330 812 307 c 0,17,18
 812 258 812 258 803 201 c 128,-1,19
 794 144 794 144 774 95.5 c 128,-1,20
 754 47 754 47 721.5 15 c 128,-1,21
 689 -17 689 -17 642 -17 c 0,0,1
535 512 m 0,22,23
 544 531 544 531 549 540.5 c 128,-1,24
 554 550 554 550 554 553 c 0,25,26
 554 555 554 555 550 555.5 c 128,-1,27
 546 556 546 556 541 549 c 0,28,29
 537 543 537 543 530 530.5 c 128,-1,30
 523 518 523 518 516 504 c 128,-1,31
 509 490 509 490 504.5 476.5 c 128,-1,32
 500 463 500 463 500 456 c 256,33,34
 500 449 500 449 505 451 c 128,-1,35
 510 453 510 453 513 460 c 0,36,37
 516 468 516 468 521 481 c 128,-1,38
 526 494 526 494 535 512 c 0,22,23
643 59 m 0,39,40
 674 59 674 59 692 85 c 128,-1,41
 710 111 710 111 719.5 150 c 128,-1,42
 729 189 729 189 731.5 234 c 128,-1,43
 734 279 734 279 734 316 c 0,44,45
 734 339 734 339 731 377 c 128,-1,46
 728 415 728 415 719 451.5 c 128,-1,47
 710 488 710 488 693.5 514.5 c 128,-1,48
 677 541 677 541 650 541 c 0,49,50
 628 541 628 541 612 514 c 128,-1,51
 596 487 596 487 585.5 449.5 c 128,-1,52
 575 412 575 412 570 371 c 128,-1,53
 565 330 565 330 565 301 c 0,54,55
 565 286 565 286 565 262.5 c 128,-1,56
 565 239 565 239 567 212 c 128,-1,57
 569 185 569 185 573.5 158 c 128,-1,58
 578 131 578 131 586.5 109 c 128,-1,59
 595 87 595 87 609 73 c 128,-1,60
 623 59 623 59 643 59 c 0,39,40
EndSplineSet
EndChar

StartChar: one.telu
Encoding: 49 49 17
Width: 1274
Flags: W
LayerCount: 2
Fore
SplineSet
686.5 0 m 0,0,1
 641.5 0 641.5 0 641.5 47 c 2,2,-1
 641.5 450 l 2,3,4
 641.5 459 641.5 459 641 466 c 128,-1,5
 640.5 473 640.5 473 638.5 473 c 0,6,7
 635.5 473 635.5 473 629.5 465.5 c 128,-1,8
 623.5 458 623.5 458 616 448.5 c 128,-1,9
 608.5 439 608.5 439 600 429.5 c 128,-1,10
 591.5 420 591.5 420 583.5 416 c 0,11,12
 574.5 411 574.5 411 564.5 411 c 0,13,14
 550.5 411 550.5 411 541.5 421 c 128,-1,15
 532.5 431 532.5 431 532.5 445 c 0,16,17
 532.5 450 532.5 450 542 463 c 128,-1,18
 551.5 476 551.5 476 558.5 486 c 0,19,20
 567.5 499 567.5 499 585.5 521 c 128,-1,21
 603.5 543 603.5 543 624 564 c 128,-1,22
 644.5 585 644.5 585 663.5 600.5 c 128,-1,23
 682.5 616 682.5 616 694.5 616 c 0,24,25
 700.5 616 700.5 616 708.5 615 c 128,-1,26
 716.5 614 716.5 614 724 611 c 128,-1,27
 731.5 608 731.5 608 736.5 602.5 c 128,-1,28
 741.5 597 741.5 597 741.5 587 c 2,29,-1
 741.5 48 l 2,30,31
 741.5 30 741.5 30 725 15 c 128,-1,32
 708.5 0 708.5 0 686.5 0 c 0,0,1
685.5 592 m 0,33,34
 690.5 600 690.5 600 693.5 602.5 c 128,-1,35
 696.5 605 696.5 605 693.5 606 c 0,36,37
 691.5 606 691.5 606 684.5 603.5 c 128,-1,38
 677.5 601 677.5 601 671.5 595 c 0,39,40
 666.5 590 666.5 590 658.5 583 c 128,-1,41
 650.5 576 650.5 576 650.5 572 c 0,42,43
 650.5 569 650.5 569 654.5 568 c 0,44,45
 661.5 567 661.5 567 671.5 577 c 128,-1,46
 681.5 587 681.5 587 685.5 592 c 0,33,34
674.5 45 m 0,47,48
 674.5 53 674.5 53 672 58 c 128,-1,49
 669.5 63 669.5 63 669.5 74 c 0,50,51
 669.5 79 669.5 79 669 83 c 128,-1,52
 668.5 87 668.5 87 663.5 87 c 0,53,54
 659.5 87 659.5 87 657.5 77.5 c 128,-1,55
 655.5 68 655.5 68 655.5 57 c 128,-1,56
 655.5 46 655.5 46 657.5 36.5 c 128,-1,57
 659.5 27 659.5 27 663.5 27 c 0,58,59
 674.5 27 674.5 27 674.5 45 c 0,47,48
EndSplineSet
EndChar

StartChar: two.telu
Encoding: 50 50 18
Width: 1274
Flags: W
LayerCount: 2
Fore
SplineSet
506.2109375 0 m 2,0,1
 497.2109375 0 497.2109375 0 489.7109375 13 c 128,-1,2
 482.2109375 26 482.2109375 26 484.2109375 38 c 256,3,4
 486.2109375 50 486.2109375 50 500.2109375 68 c 128,-1,5
 514.2109375 86 514.2109375 86 530.2109375 106 c 0,6,7
 566.2109375 151 566.2109375 151 595.2109375 198.5 c 128,-1,8
 624.2109375 246 624.2109375 246 644.7109375 292.5 c 128,-1,9
 665.2109375 339 665.2109375 339 676.2109375 383 c 128,-1,10
 687.2109375 427 687.2109375 427 687.2109375 465 c 0,11,12
 687.2109375 506 687.2109375 506 669.7109375 520 c 128,-1,13
 652.2109375 534 652.2109375 534 632.2109375 534 c 256,14,15
 612.2109375 534 612.2109375 534 597.2109375 517.5 c 128,-1,16
 582.2109375 501 582.2109375 501 582.2109375 464 c 0,17,18
 582.2109375 442 582.2109375 442 587.2109375 430.5 c 128,-1,19
 592.2109375 419 592.2109375 419 592.2109375 403 c 0,20,21
 592.2109375 389 592.2109375 389 576.7109375 383 c 128,-1,22
 561.2109375 377 561.2109375 377 550.2109375 377 c 0,23,24
 524.2109375 377 524.2109375 377 506.7109375 403.5 c 128,-1,25
 489.2109375 430 489.2109375 430 489.2109375 470 c 0,26,27
 489.2109375 502 489.2109375 502 499.7109375 529.5 c 128,-1,28
 510.2109375 557 510.2109375 557 529.7109375 577.5 c 128,-1,29
 549.2109375 598 549.2109375 598 575.7109375 610 c 128,-1,30
 602.2109375 622 602.2109375 622 633.2109375 622 c 0,31,32
 663.2109375 622 663.2109375 622 691.7109375 610.5 c 128,-1,33
 720.2109375 599 720.2109375 599 742.2109375 577.5 c 128,-1,34
 764.2109375 556 764.2109375 556 777.2109375 525.5 c 128,-1,35
 790.2109375 495 790.2109375 495 790.2109375 457 c 0,36,37
 790.2109375 410 790.2109375 410 778.2109375 364 c 128,-1,38
 766.2109375 318 766.2109375 318 747.7109375 277 c 128,-1,39
 729.2109375 236 729.2109375 236 708.2109375 201 c 128,-1,40
 687.2109375 166 687.2109375 166 668.7109375 140 c 128,-1,41
 650.2109375 114 650.2109375 114 638.2109375 98 c 128,-1,42
 626.2109375 82 626.2109375 82 626.2109375 79 c 1,43,44
 629.2109375 79 629.2109375 79 634.2109375 79 c 2,45,-1
 658.2109375 79 l 1,46,-1
 745.2109375 82 l 2,47,48
 763.2109375 83 763.2109375 83 772.2109375 79 c 128,-1,49
 781.2109375 75 781.2109375 75 785.2109375 67.5 c 128,-1,50
 789.2109375 60 789.2109375 60 789.2109375 50 c 128,-1,51
 789.2109375 40 789.2109375 40 789.2109375 29 c 0,52,53
 789.2109375 11 789.2109375 11 778.7109375 5.5 c 128,-1,54
 768.2109375 0 768.2109375 0 736.2109375 0 c 2,55,-1
 506.2109375 0 l 2,0,1
522.2109375 488 m 0,56,57
 523.2109375 500 523.2109375 500 521.2109375 507 c 128,-1,58
 519.2109375 514 519.2109375 514 516.2109375 513 c 0,59,60
 512.2109375 513 512.2109375 513 509.7109375 506.5 c 128,-1,61
 507.2109375 500 507.2109375 500 506.7109375 491.5 c 128,-1,62
 506.2109375 483 506.2109375 483 506.2109375 475.5 c 128,-1,63
 506.2109375 468 506.2109375 468 506.2109375 465 c 0,64,65
 508.2109375 452 508.2109375 452 511.2109375 450 c 0,66,67
 516.2109375 445 516.2109375 445 518.2109375 452 c 128,-1,68
 520.2109375 459 520.2109375 459 522.2109375 488 c 0,56,57
524.2109375 424 m 0,69,70
 524.2109375 431 524.2109375 431 517.2109375 431 c 256,71,72
 510.2109375 431 510.2109375 431 510.2109375 423 c 0,73,74
 510.2109375 421 510.2109375 421 512.2109375 418 c 128,-1,75
 514.2109375 415 514.2109375 415 516.2109375 415 c 0,76,77
 520.2109375 415 520.2109375 415 522.2109375 418 c 128,-1,78
 524.2109375 421 524.2109375 421 524.2109375 424 c 0,69,70
523.2109375 50 m 0,79,80
 531.2109375 69 531.2109375 69 528.2109375 69 c 0,81,82
 521.2109375 69 521.2109375 69 513.7109375 60 c 128,-1,83
 506.2109375 51 506.2109375 51 506.2109375 40 c 0,84,85
 506.2109375 32 506.2109375 32 510.2109375 32 c 0,86,87
 515.2109375 32 515.2109375 32 523.2109375 50 c 0,79,80
EndSplineSet
EndChar

StartChar: three.telu
Encoding: 51 51 19
Width: 1274
Flags: W
LayerCount: 2
Fore
SplineSet
689 486 m 0,0,1
 689 515 689 515 675 527.5 c 128,-1,2
 661 540 661 540 633 540 c 0,3,4
 600 540 600 540 584 514.5 c 128,-1,5
 568 489 568 489 568 430 c 0,6,7
 568 416 568 416 557.5 410 c 128,-1,8
 547 404 547 404 536 404 c 0,9,10
 475 404 475 404 475 493 c 0,11,12
 475 520 475 520 488.5 543.5 c 128,-1,13
 502 567 502 567 523.5 584.5 c 128,-1,14
 545 602 545 602 573 612 c 128,-1,15
 601 622 601 622 629 622 c 0,16,17
 673 622 673 622 704.5 611 c 128,-1,18
 736 600 736 600 756 581 c 128,-1,19
 776 562 776 562 786 537.5 c 128,-1,20
 796 513 796 513 796 487 c 0,21,22
 796 447 796 447 778.5 418 c 128,-1,23
 761 389 761 389 739.5 368.5 c 128,-1,24
 718 348 718 348 700.5 336 c 128,-1,25
 683 324 683 324 683 318 c 256,26,27
 683 312 683 312 701 305.5 c 128,-1,28
 719 299 719 299 741 284 c 128,-1,29
 763 269 763 269 781 241.5 c 128,-1,30
 799 214 799 214 799 167 c 0,31,32
 799 121 799 121 781.5 88.5 c 128,-1,33
 764 56 764 56 735.5 35 c 128,-1,34
 707 14 707 14 671 4 c 128,-1,35
 635 -6 635 -6 598 -6 c 0,36,37
 582 -6 582 -6 562 -1.5 c 128,-1,38
 542 3 542 3 524.5 12.5 c 128,-1,39
 507 22 507 22 495 36.5 c 128,-1,40
 483 51 483 51 483 71 c 0,41,42
 483 86 483 86 489 95.5 c 128,-1,43
 495 105 495 105 506 105 c 0,44,45
 519 105 519 105 529.5 100.5 c 128,-1,46
 540 96 540 96 550.5 90.5 c 128,-1,47
 561 85 561 85 573 80.5 c 128,-1,48
 585 76 585 76 600 76 c 0,49,50
 627 76 627 76 645 84 c 128,-1,51
 663 92 663 92 673.5 105 c 128,-1,52
 684 118 684 118 688 134 c 128,-1,53
 692 150 692 150 692 166 c 0,54,55
 692 198 692 198 674 220 c 128,-1,56
 656 242 656 242 627 242 c 0,57,58
 585 242 585 242 568 257 c 128,-1,59
 551 272 551 272 551 292 c 0,60,61
 551 311 551 311 572.5 334.5 c 128,-1,62
 594 358 594 358 620 383 c 128,-1,63
 646 408 646 408 667.5 434.5 c 128,-1,64
 689 461 689 461 689 486 c 0,0,1
516 515 m 0,65,66
 517 527 517 527 515 534 c 128,-1,67
 513 541 513 541 510 540 c 0,68,69
 506 540 506 540 502.5 534 c 128,-1,70
 499 528 499 528 496.5 520 c 128,-1,71
 494 512 494 512 492.5 504 c 128,-1,72
 491 496 491 496 492 492 c 0,73,74
 494 479 494 479 497 477 c 0,75,76
 502 472 502 472 508 479 c 128,-1,77
 514 486 514 486 516 515 c 0,65,66
510 451 m 0,78,79
 510 458 510 458 503 458 c 256,80,81
 496 458 496 458 496 450 c 0,82,83
 496 448 496 448 498 445 c 128,-1,84
 500 442 500 442 502 442 c 0,85,86
 506 442 506 442 508 445 c 128,-1,87
 510 448 510 448 510 451 c 0,78,79
584 291 m 0,88,89
 586 296 586 296 590 304 c 128,-1,90
 594 312 594 312 599 319 c 0,91,92
 603 325 603 325 604 330 c 128,-1,93
 605 335 605 335 603 335 c 0,94,95
 599 335 599 335 593 329 c 128,-1,96
 587 323 587 323 581.5 315 c 128,-1,97
 576 307 576 307 572 298.5 c 128,-1,98
 568 290 568 290 568 284 c 0,99,100
 568 275 568 275 573 275 c 256,101,102
 578 275 578 275 584 291 c 0,88,89
514 80 m 0,103,104
 514 101 514 101 505 92 c 0,105,106
 500 87 500 87 498 78 c 128,-1,107
 496 69 496 69 497 62 c 0,108,109
 498 58 498 58 500 56.5 c 128,-1,110
 502 55 502 55 504 55 c 256,111,112
 506 55 506 55 510 63.5 c 128,-1,113
 514 72 514 72 514 80 c 0,103,104
EndSplineSet
EndChar

StartChar: four.telu
Encoding: 52 52 20
Width: 1274
Flags: W
LayerCount: 2
Fore
SplineSet
744.5 0 m 0,0,1
 720.5 0 720.5 0 712 19.5 c 128,-1,2
 703.5 39 703.5 39 703.5 62 c 2,3,-1
 703.5 130 l 2,4,5
 703.5 142 703.5 142 690.5 142 c 2,6,-1
 509.5 142 l 2,7,8
 487.5 142 487.5 142 477 152 c 128,-1,9
 466.5 162 466.5 162 466.5 173 c 0,10,11
 466.5 178 466.5 178 475 209.5 c 128,-1,12
 483.5 241 483.5 241 496 286 c 128,-1,13
 508.5 331 508.5 331 523.5 382 c 128,-1,14
 538.5 433 538.5 433 552 478 c 128,-1,15
 565.5 523 565.5 523 575.5 555 c 128,-1,16
 585.5 587 585.5 587 588.5 592 c 0,17,18
 596.5 607 596.5 607 606.5 610.5 c 128,-1,19
 616.5 614 616.5 614 626.5 614 c 0,20,21
 631.5 614 631.5 614 640.5 612 c 128,-1,22
 649.5 610 649.5 610 658 606.5 c 128,-1,23
 666.5 603 666.5 603 673 598 c 128,-1,24
 679.5 593 679.5 593 679.5 587 c 256,25,26
 679.5 581 679.5 581 674.5 558.5 c 128,-1,27
 669.5 536 669.5 536 661.5 503.5 c 128,-1,28
 653.5 471 653.5 471 643.5 433 c 128,-1,29
 633.5 395 633.5 395 623.5 358.5 c 128,-1,30
 613.5 322 613.5 322 604.5 291.5 c 128,-1,31
 595.5 261 595.5 261 589.5 243 c 0,32,33
 587.5 238 587.5 238 586.5 235 c 128,-1,34
 585.5 232 585.5 232 585.5 229 c 0,35,36
 585.5 224 585.5 224 593.5 224 c 2,37,-1
 690.5 224 l 2,38,39
 698.5 224 698.5 224 701 226.5 c 128,-1,40
 703.5 229 703.5 229 703.5 235 c 2,41,-1
 703.5 536 l 2,42,43
 703.5 561 703.5 561 708 576.5 c 128,-1,44
 712.5 592 712.5 592 719.5 601 c 128,-1,45
 726.5 610 726.5 610 735.5 613 c 128,-1,46
 744.5 616 744.5 616 754.5 616 c 0,47,48
 781.5 616 781.5 616 794.5 597 c 128,-1,49
 807.5 578 807.5 578 807.5 550 c 2,50,-1
 807.5 70 l 2,51,52
 807.5 49 807.5 49 802.5 35 c 128,-1,53
 797.5 21 797.5 21 788.5 13.5 c 128,-1,54
 779.5 6 779.5 6 768 3 c 128,-1,55
 756.5 0 756.5 0 744.5 0 c 0,0,1
723.5 541 m 256,56,57
 727.5 541 727.5 541 731 547 c 128,-1,58
 734.5 553 734.5 553 737 561 c 128,-1,59
 739.5 569 739.5 569 741 577.5 c 128,-1,60
 742.5 586 742.5 586 742.5 591 c 0,61,62
 742.5 598 742.5 598 735.5 598 c 0,63,64
 732.5 598 732.5 598 729.5 593.5 c 128,-1,65
 726.5 589 726.5 589 724 582.5 c 128,-1,66
 721.5 576 721.5 576 719.5 569.5 c 128,-1,67
 717.5 563 717.5 563 717.5 558 c 0,68,69
 717.5 552 717.5 552 718.5 546.5 c 128,-1,70
 719.5 541 719.5 541 723.5 541 c 256,56,57
510.5 215 m 0,71,72
 514.5 228 514.5 228 517 235 c 128,-1,73
 519.5 242 519.5 242 518.5 251 c 0,74,75
 518.5 259 518.5 259 513.5 259 c 0,76,77
 510.5 259 510.5 259 507 251.5 c 128,-1,78
 503.5 244 503.5 244 500 234 c 128,-1,79
 496.5 224 496.5 224 494.5 214 c 128,-1,80
 492.5 204 492.5 204 492.5 199 c 0,81,82
 492.5 188 492.5 188 497.5 188 c 0,83,84
 504.5 189 504.5 189 510.5 215 c 0,71,72
500.5 169 m 0,85,86
 500.5 179 500.5 179 492.5 179 c 256,87,88
 484.5 179 484.5 179 484.5 169 c 0,89,90
 484.5 167 484.5 167 485.5 166 c 0,91,92
 489.5 162 489.5 162 492.5 162 c 0,93,94
 494.5 162 494.5 162 497.5 164 c 128,-1,95
 500.5 166 500.5 166 500.5 169 c 0,85,86
736.5 29 m 0,96,97
 733.5 35 733.5 35 730.5 37.5 c 128,-1,98
 727.5 40 727.5 40 727.5 45 c 0,99,100
 727.5 49 727.5 49 726.5 53 c 0,101,102
 726.5 61 726.5 61 721.5 61 c 0,103,104
 715.5 61 715.5 61 715.5 50 c 0,105,106
 715.5 42 715.5 42 720 28.5 c 128,-1,107
 724.5 15 724.5 15 730.5 15 c 0,108,109
 733.5 15 733.5 15 736.5 19.5 c 128,-1,110
 739.5 24 739.5 24 736.5 29 c 0,96,97
EndSplineSet
EndChar

StartChar: five.telu
Encoding: 53 53 21
Width: 1274
Flags: W
LayerCount: 2
Fore
SplineSet
537 -8 m 0,0,1
 515 -8 515 -8 502.5 -1.5 c 128,-1,2
 490 5 490 5 484 14 c 128,-1,3
 478 23 478 23 476.5 32.5 c 128,-1,4
 475 42 475 42 475 48 c 0,5,6
 475 62 475 62 480.5 70 c 128,-1,7
 486 78 486 78 495 81.5 c 128,-1,8
 504 85 504 85 515 85.5 c 128,-1,9
 526 86 526 86 537 86 c 0,10,11
 624 86 624 86 660.5 112.5 c 128,-1,12
 697 139 697 139 697 196 c 0,13,14
 697 251 697 251 671 277 c 128,-1,15
 645 303 645 303 596 303 c 0,16,17
 577 303 577 303 565 300 c 128,-1,18
 553 297 553 297 544 293.5 c 128,-1,19
 535 290 535 290 527 287 c 128,-1,20
 519 284 519 284 509 284 c 256,21,22
 499 284 499 284 493 293 c 128,-1,23
 487 302 487 302 484 314.5 c 128,-1,24
 481 327 481 327 480.5 341.5 c 128,-1,25
 480 356 480 356 480 366 c 2,26,-1
 480 568 l 2,27,28
 480 595 480 595 493.5 605.5 c 128,-1,29
 507 616 507 616 526 616 c 2,30,-1
 759 616 l 2,31,32
 767 616 767 616 774 608.5 c 128,-1,33
 781 601 781 601 781 587 c 0,34,35
 781 569 781 569 773.5 552.5 c 128,-1,36
 766 536 766 536 757 536 c 2,37,-1
 589 535 l 2,38,39
 584 535 584 535 582 530.5 c 128,-1,40
 580 526 580 526 580 521 c 2,41,-1
 580 399 l 2,42,43
 580 383 580 383 583 381 c 128,-1,44
 586 379 586 379 593 379 c 2,45,-1
 617 380 l 2,46,47
 657 382 657 382 690.5 371.5 c 128,-1,48
 724 361 724 361 748 338 c 128,-1,49
 772 315 772 315 785.5 280 c 128,-1,50
 799 245 799 245 799 197 c 0,51,52
 799 158 799 158 783 121.5 c 128,-1,53
 767 85 767 85 734.5 56 c 128,-1,54
 702 27 702 27 653 9.5 c 128,-1,55
 604 -8 604 -8 537 -8 c 0,0,1
508 403 m 0,56,57
 508 422 508 422 507 432 c 128,-1,58
 506 442 506 442 500 436 c 0,59,60
 497 433 497 433 495 421 c 128,-1,61
 493 409 493 409 493 395 c 128,-1,62
 493 381 493 381 495 369 c 128,-1,63
 497 357 497 357 500 354 c 256,64,65
 503 351 503 351 504 351 c 0,66,67
 508 351 508 351 508 403 c 0,56,57
516 326 m 0,68,69
 516 336 516 336 511 336 c 0,70,71
 500 336 500 336 500 322 c 0,72,73
 500 315 500 315 508 315 c 0,74,75
 513 315 513 315 514.5 319.5 c 128,-1,76
 516 324 516 324 516 326 c 0,68,69
507 48 m 0,77,78
 506 50 506 50 506.5 54 c 128,-1,79
 507 58 507 58 507.5 61.5 c 128,-1,80
 508 65 508 65 507 67.5 c 128,-1,81
 506 70 506 70 502 70 c 0,82,83
 497 70 497 70 495 61.5 c 128,-1,84
 493 53 493 53 494 42 c 256,85,86
 495 31 495 31 498 21.5 c 128,-1,87
 501 12 501 12 507 12 c 0,88,89
 509 12 509 12 510.5 23 c 128,-1,90
 512 34 512 34 507 48 c 0,77,78
EndSplineSet
EndChar

StartChar: six.telu
Encoding: 54 54 22
Width: 1274
Flags: W
LayerCount: 2
Fore
SplineSet
638.5 -11 m 0,0,1
 586.5 -11 586.5 -11 550 8.5 c 128,-1,2
 513.5 28 513.5 28 490.5 61 c 128,-1,3
 467.5 94 467.5 94 457 136.5 c 128,-1,4
 446.5 179 446.5 179 446.5 225 c 0,5,6
 446.5 276 446.5 276 454.5 328.5 c 128,-1,7
 462.5 381 462.5 381 479.5 429 c 128,-1,8
 496.5 477 496.5 477 524 518 c 128,-1,9
 551.5 559 551.5 559 590.5 587 c 0,10,11
 618.5 607 618.5 607 646.5 613.5 c 128,-1,12
 674.5 620 674.5 620 696.5 620 c 0,13,14
 701.5 620 701.5 620 709 618.5 c 128,-1,15
 716.5 617 716.5 617 723.5 614 c 128,-1,16
 730.5 611 730.5 611 736 606 c 128,-1,17
 741.5 601 741.5 601 741.5 593 c 0,18,19
 741.5 579 741.5 579 736.5 567.5 c 128,-1,20
 731.5 556 731.5 556 704.5 547 c 0,21,22
 678.5 538 678.5 538 657.5 521 c 128,-1,23
 636.5 504 636.5 504 620 482.5 c 128,-1,24
 603.5 461 603.5 461 591.5 435.5 c 128,-1,25
 579.5 410 579.5 410 570.5 385 c 0,26,27
 565.5 373 565.5 373 561.5 354.5 c 128,-1,28
 557.5 336 557.5 336 557.5 325 c 0,29,30
 557.5 315 557.5 315 561.5 315 c 0,31,32
 564.5 315 564.5 315 571.5 324.5 c 128,-1,33
 578.5 334 578.5 334 591.5 345 c 128,-1,34
 604.5 356 604.5 356 623.5 365.5 c 128,-1,35
 642.5 375 642.5 375 669.5 375 c 0,36,37
 746.5 375 746.5 375 787 323 c 128,-1,38
 827.5 271 827.5 271 827.5 187 c 0,39,40
 827.5 146 827.5 146 812.5 110 c 128,-1,41
 797.5 74 797.5 74 771.5 47 c 128,-1,42
 745.5 20 745.5 20 711 4.5 c 128,-1,43
 676.5 -11 676.5 -11 638.5 -11 c 0,0,1
633.5 80 m 0,44,45
 675.5 80 675.5 80 701 106.5 c 128,-1,46
 726.5 133 726.5 133 726.5 190 c 0,47,48
 726.5 207 726.5 207 723.5 224 c 128,-1,49
 720.5 241 720.5 241 712.5 255 c 128,-1,50
 704.5 269 704.5 269 691 277.5 c 128,-1,51
 677.5 286 677.5 286 656.5 286 c 0,52,53
 637.5 286 637.5 286 618 276 c 128,-1,54
 598.5 266 598.5 266 583.5 250.5 c 128,-1,55
 568.5 235 568.5 235 559 215.5 c 128,-1,56
 549.5 196 549.5 196 549.5 178 c 0,57,58
 549.5 137 549.5 137 567 108.5 c 128,-1,59
 584.5 80 584.5 80 633.5 80 c 0,44,45
507.5 107 m 0,60,61
 504.5 118 504.5 118 500.5 127.5 c 128,-1,62
 496.5 137 496.5 137 493.5 148 c 0,63,64
 491.5 154 491.5 154 490 159 c 128,-1,65
 488.5 164 488.5 164 484.5 163 c 0,66,67
 481.5 163 481.5 163 479.5 155 c 0,68,69
 478.5 148 478.5 148 482 135 c 128,-1,70
 485.5 122 485.5 122 490.5 110 c 128,-1,71
 495.5 98 495.5 98 501 89.5 c 128,-1,72
 506.5 81 506.5 81 508.5 81 c 0,73,74
 513.5 81 513.5 81 513.5 86 c 0,75,76
 513.5 90 513.5 90 511.5 95 c 128,-1,77
 509.5 100 509.5 100 507.5 107 c 0,60,61
EndSplineSet
EndChar

StartChar: seven.telu
Encoding: 55 55 23
Width: 1274
Flags: W
LayerCount: 2
Fore
SplineSet
558.5 -2 m 0,0,1
 544.5 -2 544.5 -2 535 6.5 c 128,-1,2
 525.5 15 525.5 15 525.5 25 c 0,3,4
 525.5 34 525.5 34 535.5 70 c 128,-1,5
 545.5 106 545.5 106 560.5 156 c 128,-1,6
 575.5 206 575.5 206 593.5 263 c 128,-1,7
 611.5 320 611.5 320 628 371 c 128,-1,8
 644.5 422 644.5 422 657.5 461 c 128,-1,9
 670.5 500 670.5 500 675.5 514 c 0,10,11
 680.5 529 680.5 529 668.5 529 c 2,12,-1
 538.5 529 l 2,13,14
 511.5 529 511.5 529 496.5 537.5 c 128,-1,15
 481.5 546 481.5 546 481.5 573 c 256,16,17
 481.5 600 481.5 600 498 608 c 128,-1,18
 514.5 616 514.5 616 540.5 616 c 2,19,-1
 751.5 616 l 2,20,21
 768.5 616 768.5 616 780.5 605.5 c 128,-1,22
 792.5 595 792.5 595 792.5 581 c 0,23,24
 792.5 571 792.5 571 781.5 529 c 128,-1,25
 770.5 487 770.5 487 753 429 c 128,-1,26
 735.5 371 735.5 371 714 303.5 c 128,-1,27
 692.5 236 692.5 236 672.5 176 c 128,-1,28
 652.5 116 652.5 116 636.5 71 c 128,-1,29
 620.5 26 620.5 26 612.5 11 c 0,30,31
 610.5 6 610.5 6 596 2 c 128,-1,32
 581.5 -2 581.5 -2 558.5 -2 c 0,0,1
513.5 594 m 0,33,34
 513.5 602 513.5 602 508.5 602 c 256,35,36
 503.5 602 503.5 602 497 594.5 c 128,-1,37
 490.5 587 490.5 587 490.5 576 c 0,38,39
 490.5 556 490.5 556 498.5 556 c 0,40,41
 501.5 556 501.5 556 504.5 560.5 c 128,-1,42
 507.5 565 507.5 565 509.5 571 c 128,-1,43
 511.5 577 511.5 577 512.5 583.5 c 128,-1,44
 513.5 590 513.5 590 513.5 594 c 0,33,34
558.5 38 m 0,45,46
 560.5 48 560.5 48 562.5 58.5 c 128,-1,47
 564.5 69 564.5 69 566.5 73 c 0,48,49
 570.5 78 570.5 78 569 83 c 128,-1,50
 567.5 88 567.5 88 562.5 88 c 0,51,52
 559.5 88 559.5 88 556 81 c 128,-1,53
 552.5 74 552.5 74 550 64.5 c 128,-1,54
 547.5 55 547.5 55 545.5 45.5 c 128,-1,55
 543.5 36 543.5 36 543.5 31 c 0,56,57
 543.5 19 543.5 19 548.5 19 c 256,58,59
 553.5 19 553.5 19 558.5 38 c 0,45,46
EndSplineSet
EndChar

StartChar: eight.telu
Encoding: 56 56 24
Width: 1274
Flags: W
LayerCount: 2
Fore
SplineSet
628.5 -6 m 0,0,1
 588.5 -6 588.5 -6 555 8.5 c 128,-1,2
 521.5 23 521.5 23 498 46.5 c 128,-1,3
 474.5 70 474.5 70 461.5 100.5 c 128,-1,4
 448.5 131 448.5 131 448.5 163 c 0,5,6
 448.5 201 448.5 201 465.5 228 c 128,-1,7
 482.5 255 482.5 255 503 274 c 128,-1,8
 523.5 293 523.5 293 540.5 305.5 c 128,-1,9
 557.5 318 557.5 318 557.5 325 c 0,10,11
 557.5 333 557.5 333 542 342 c 128,-1,12
 526.5 351 526.5 351 507.5 367 c 128,-1,13
 488.5 383 488.5 383 473 407.5 c 128,-1,14
 457.5 432 457.5 432 457.5 471 c 0,15,16
 457.5 503 457.5 503 472 531 c 128,-1,17
 486.5 559 486.5 559 511.5 580 c 128,-1,18
 536.5 601 536.5 601 568.5 613 c 128,-1,19
 600.5 625 600.5 625 635.5 625 c 0,20,21
 661.5 625 661.5 625 691.5 614.5 c 128,-1,22
 721.5 604 721.5 604 747 584.5 c 128,-1,23
 772.5 565 772.5 565 789 536 c 128,-1,24
 805.5 507 805.5 507 805.5 469 c 0,25,26
 805.5 432 805.5 432 791.5 409.5 c 128,-1,27
 777.5 387 777.5 387 761 373.5 c 128,-1,28
 744.5 360 744.5 360 730.5 353 c 128,-1,29
 716.5 346 716.5 346 716.5 340 c 0,30,31
 716.5 331 716.5 331 733.5 319.5 c 128,-1,32
 750.5 308 750.5 308 771 289.5 c 128,-1,33
 791.5 271 791.5 271 808.5 242 c 128,-1,34
 825.5 213 825.5 213 825.5 169 c 0,35,36
 825.5 136 825.5 136 810 104.5 c 128,-1,37
 794.5 73 794.5 73 767.5 48 c 128,-1,38
 740.5 23 740.5 23 705 8.5 c 128,-1,39
 669.5 -6 669.5 -6 628.5 -6 c 0,0,1
500.5 512 m 0,40,41
 501.5 518 501.5 518 506.5 525 c 128,-1,42
 511.5 532 511.5 532 517.5 538.5 c 128,-1,43
 523.5 545 523.5 545 529 550.5 c 128,-1,44
 534.5 556 534.5 556 537.5 559 c 0,45,46
 548.5 571 548.5 571 548.5 578 c 0,47,48
 548.5 582 548.5 582 544.5 582 c 0,49,50
 535.5 582 535.5 582 525 572.5 c 128,-1,51
 514.5 563 514.5 563 505.5 549.5 c 128,-1,52
 496.5 536 496.5 536 490.5 522.5 c 128,-1,53
 484.5 509 484.5 509 484.5 501 c 256,54,55
 484.5 493 484.5 493 488.5 493 c 0,56,57
 495.5 493 495.5 493 500.5 512 c 0,40,41
635.5 371 m 0,58,59
 648.5 371 648.5 371 661 379.5 c 128,-1,60
 673.5 388 673.5 388 683.5 402 c 128,-1,61
 693.5 416 693.5 416 700 433.5 c 128,-1,62
 706.5 451 706.5 451 706.5 469 c 0,63,64
 706.5 504 706.5 504 686.5 529.5 c 128,-1,65
 666.5 555 666.5 555 634.5 555 c 256,66,67
 602.5 555 602.5 555 579.5 533 c 128,-1,68
 556.5 511 556.5 511 556.5 473 c 0,69,70
 556.5 459 556.5 459 561.5 441.5 c 128,-1,71
 566.5 424 566.5 424 576.5 408 c 128,-1,72
 586.5 392 586.5 392 601.5 381.5 c 128,-1,73
 616.5 371 616.5 371 635.5 371 c 0,58,59
490.5 469 m 0,74,75
 490.5 478 490.5 478 483.5 478 c 0,76,77
 478.5 478 478.5 478 477 475 c 128,-1,78
 475.5 472 475.5 472 475.5 469 c 0,79,80
 475.5 467 475.5 467 476.5 465 c 0,81,82
 478.5 461 478.5 461 482.5 461 c 0,83,84
 484.5 461 484.5 461 487.5 463 c 128,-1,85
 490.5 465 490.5 465 490.5 469 c 0,74,75
630.5 73 m 0,86,87
 678.5 73 678.5 73 696 98 c 128,-1,88
 713.5 123 713.5 123 713.5 169 c 0,89,90
 713.5 188 713.5 188 706 208.5 c 128,-1,91
 698.5 229 698.5 229 687 246 c 128,-1,92
 675.5 263 675.5 263 662.5 274 c 128,-1,93
 649.5 285 649.5 285 638.5 285 c 0,94,95
 623.5 285 623.5 285 608.5 273.5 c 128,-1,96
 593.5 262 593.5 262 581.5 244.5 c 128,-1,97
 569.5 227 569.5 227 562 205.5 c 128,-1,98
 554.5 184 554.5 184 554.5 163 c 0,99,100
 554.5 147 554.5 147 560 131 c 128,-1,101
 565.5 115 565.5 115 575 102 c 128,-1,102
 584.5 89 584.5 89 598.5 81 c 128,-1,103
 612.5 73 612.5 73 630.5 73 c 0,86,87
494.5 222 m 256,104,105
 497.5 230 497.5 230 494.5 233 c 128,-1,106
 491.5 236 491.5 236 484.5 229 c 0,107,108
 481.5 226 481.5 226 476.5 218.5 c 128,-1,109
 471.5 211 471.5 211 467 202 c 128,-1,110
 462.5 193 462.5 193 459 183.5 c 128,-1,111
 455.5 174 455.5 174 455.5 166 c 0,112,113
 454.5 158 454.5 158 458 150.5 c 128,-1,114
 461.5 143 461.5 143 468.5 143 c 0,115,116
 476.5 143 476.5 143 475.5 155.5 c 128,-1,117
 474.5 168 474.5 168 476.5 179 c 0,118,119
 479.5 194 479.5 194 485.5 204 c 128,-1,120
 491.5 214 491.5 214 494.5 222 c 256,104,105
EndSplineSet
EndChar

StartChar: nine.telu
Encoding: 57 57 25
Width: 1274
Flags: W
LayerCount: 2
Fore
SplineSet
635 623 m 0,0,1
 690 623 690 623 727 601.5 c 128,-1,2
 764 580 764 580 786 546 c 128,-1,3
 808 512 808 512 817.5 470 c 128,-1,4
 827 428 827 428 827 387 c 0,5,6
 827 336 827 336 815.5 284 c 128,-1,7
 804 232 804 232 783.5 185 c 128,-1,8
 763 138 763 138 735 99 c 128,-1,9
 707 60 707 60 674 34 c 0,10,11
 647 13 647 13 618.5 2.5 c 128,-1,12
 590 -8 590 -8 568 -8 c 0,13,14
 550 -8 550 -8 537.5 -1.5 c 128,-1,15
 525 5 525 5 525 21 c 0,16,17
 525 36 525 36 533 51.5 c 128,-1,18
 541 67 541 67 568 76 c 0,19,20
 594 85 594 85 614.5 100 c 128,-1,21
 635 115 635 115 651 135 c 128,-1,22
 667 155 667 155 678.5 178.5 c 128,-1,23
 690 202 690 202 699 227 c 0,24,25
 704 239 704 239 708 257.5 c 128,-1,26
 712 276 712 276 712 287 c 0,27,28
 712 297 712 297 708 297 c 0,29,30
 705 297 705 297 698.5 289 c 128,-1,31
 692 281 692 281 679 272 c 128,-1,32
 666 263 666 263 646 255 c 128,-1,33
 626 247 626 247 596 247 c 0,34,35
 526 247 526 247 486.5 295 c 128,-1,36
 447 343 447 343 447 425 c 0,37,38
 447 463 447 463 459 499 c 128,-1,39
 471 535 471 535 495 562.5 c 128,-1,40
 519 590 519 590 554 606.5 c 128,-1,41
 589 623 589 623 635 623 c 0,0,1
640 535 m 0,42,43
 598 535 598 535 572.5 508 c 128,-1,44
 547 481 547 481 547 432 c 0,45,46
 547 390 547 390 565.5 364.5 c 128,-1,47
 584 339 584 339 617 339 c 0,48,49
 637 339 637 339 655.5 347 c 128,-1,50
 674 355 674 355 688 368 c 128,-1,51
 702 381 702 381 711 398.5 c 128,-1,52
 720 416 720 416 720 434 c 0,53,54
 720 455 720 455 716.5 473 c 128,-1,55
 713 491 713 491 704 505 c 128,-1,56
 695 519 695 519 679.5 527 c 128,-1,57
 664 535 664 535 640 535 c 0,42,43
497 486 m 0,58,59
 499 496 499 496 501.5 503.5 c 128,-1,60
 504 511 504 511 504 517 c 0,61,62
 504 524 504 524 497 524 c 0,63,64
 494 524 494 524 488.5 511 c 128,-1,65
 483 498 483 498 478.5 480 c 128,-1,66
 474 462 474 462 471 444 c 128,-1,67
 468 426 468 426 470 415 c 0,68,69
 473 403 473 403 478 403 c 256,70,71
 483 403 483 403 485.5 410.5 c 128,-1,72
 488 418 488 418 490 426 c 0,73,74
 494 443 494 443 494 457 c 128,-1,75
 494 471 494 471 497 486 c 0,58,59
493 380 m 0,76,77
 493 385 493 385 491.5 388.5 c 128,-1,78
 490 392 490 392 487 392 c 0,79,80
 482 392 482 392 478 389 c 128,-1,81
 474 386 474 386 474 376 c 0,82,83
 474 373 474 373 476.5 370 c 128,-1,84
 479 367 479 367 483 367 c 0,85,86
 489 367 489 367 491 372.5 c 128,-1,87
 493 378 493 378 493 380 c 0,76,77
565 58 m 2,88,89
 565 61 565 61 560.5 60 c 128,-1,90
 556 59 556 59 551 55 c 128,-1,91
 546 51 546 51 542 44 c 128,-1,92
 538 37 538 37 538 28 c 0,93,94
 538 26 538 26 539.5 20 c 128,-1,95
 541 14 541 14 545 14 c 0,96,97
 548 14 548 14 551.5 20.5 c 128,-1,98
 555 27 555 27 558 35.5 c 128,-1,99
 561 44 561 44 563 51 c 128,-1,100
 565 58 565 58 565 58 c 2,88,89
EndSplineSet
EndChar

StartChar: colon.telu
Encoding: 58 58 26
Width: 1274
Flags: W
LayerCount: 2
Fore
SplineSet
575 54 m 0,0,1
 575 91 575 91 593 106 c 128,-1,2
 611 121 611 121 636 121 c 0,3,4
 662 121 662 121 680.5 106 c 128,-1,5
 699 91 699 91 699 54 c 0,6,7
 699 18 699 18 680.5 2 c 128,-1,8
 662 -14 662 -14 636 -14 c 0,9,10
 611 -14 611 -14 593 2 c 128,-1,11
 575 18 575 18 575 54 c 0,0,1
575 482 m 0,12,13
 575 520 575 520 593 535 c 128,-1,14
 611 550 611 550 636 550 c 0,15,16
 662 550 662 550 680.5 535 c 128,-1,17
 699 520 699 520 699 482 c 0,18,19
 699 446 699 446 680.5 430 c 128,-1,20
 662 414 662 414 636 414 c 0,21,22
 611 414 611 414 593 430 c 128,-1,23
 575 446 575 446 575 482 c 0,12,13
EndSplineSet
EndChar

StartChar: semicolon.telu
Encoding: 59 59 27
Width: 1274
Flags: W
LayerCount: 2
Fore
SplineSet
707.5 105 m 1,0,1
 698.5 70 698.5 70 684.5 29 c 128,-1,2
 670.5 -12 670.5 -12 654 -52.5 c 128,-1,3
 637.5 -93 637.5 -93 621.5 -129 c 1,4,-1
 555.5 -129 l 1,5,6
 562.5 -101 562.5 -101 570 -69 c 128,-1,7
 577.5 -37 577.5 -37 584.5 -4.5 c 128,-1,8
 591.5 28 591.5 28 597 59 c 128,-1,9
 602.5 90 602.5 90 606.5 116 c 1,10,-1
 700.5 116 l 1,11,-1
 707.5 105 l 1,0,1
594.5 482 m 0,12,13
 594.5 520 594.5 520 612.5 535 c 128,-1,14
 630.5 550 630.5 550 655.5 550 c 0,15,16
 681.5 550 681.5 550 700 535 c 128,-1,17
 718.5 520 718.5 520 718.5 482 c 0,18,19
 718.5 446 718.5 446 700 430 c 128,-1,20
 681.5 414 681.5 414 655.5 414 c 0,21,22
 630.5 414 630.5 414 612.5 430 c 128,-1,23
 594.5 446 594.5 446 594.5 482 c 0,12,13
EndSplineSet
EndChar

StartChar: less.telu
Encoding: 60 60 28
Width: 1274
Flags: W
LayerCount: 2
Fore
SplineSet
872.5 116 m 1,0,-1
 401.5 323 l 1,1,-1
 401.5 373 l 1,2,-1
 872.5 608 l 1,3,-1
 872.5 530 l 1,4,-1
 495.5 352 l 1,5,-1
 872.5 194 l 1,6,-1
 872.5 116 l 1,0,-1
EndSplineSet
EndChar

StartChar: equal.telu
Encoding: 61 61 29
Width: 1274
Flags: W
LayerCount: 2
Fore
SplineSet
408 416 m 1,0,-1
 408 487 l 1,1,-1
 866 487 l 1,2,-1
 866 416 l 1,3,-1
 408 416 l 1,0,-1
408 217 m 1,4,-1
 408 288 l 1,5,-1
 866 288 l 1,6,-1
 866 217 l 1,7,-1
 408 217 l 1,4,-1
EndSplineSet
EndChar

StartChar: greater.telu
Encoding: 62 62 30
Width: 1274
Flags: W
LayerCount: 2
Fore
SplineSet
401.5 194 m 1,0,-1
 778.5 351 l 1,1,-1
 401.5 530 l 1,2,-1
 401.5 608 l 1,3,-1
 872.5 373 l 1,4,-1
 872.5 323 l 1,5,-1
 401.5 116 l 1,6,-1
 401.5 194 l 1,0,-1
EndSplineSet
EndChar

StartChar: question.telu
Encoding: 63 63 31
Width: 1274
Flags: W
LayerCount: 2
Fore
SplineSet
567 199 m 6,0,1
 567 237 567 237 574.5 264.5 c 132,-1,2
 582 292 582 292 600.5 317 c 132,-1,3
 619 342 619 342 651 369 c 4,4,5
 690 402 690 402 711.5 424 c 132,-1,6
 733 446 733 446 742 467 c 132,-1,7
 751 488 751 488 751 518 c 4,8,9
 751 566 751 566 720 592 c 132,-1,10
 689 618 689 618 630 618 c 4,11,12
 581 618 581 618 543 605.5 c 132,-1,13
 505 593 505 593 470 576 c 5,14,-1
 439 646 l 5,15,16
 479 667 479 667 527.5 681 c 132,-1,17
 576 695 576 695 636 695 c 4,18,19
 731 695 731 695 783 648 c 132,-1,20
 835 601 835 601 835 520 c 4,21,22
 835 475 835 475 820.5 443.5 c 132,-1,23
 806 412 806 412 779.5 385.5 c 132,-1,24
 753 359 753 359 717 329 c 4,25,26
 684 301 684 301 666.5 280 c 132,-1,27
 649 259 649 259 643 238.5 c 132,-1,28
 637 218 637 218 637 189 c 6,29,-1
 637 172 l 5,30,-1
 567 172 l 5,31,-1
 567 199 l 6,0,1
544 25 m 4,32,33
 544 62 544 62 561.5 77 c 132,-1,34
 579 92 579 92 606 92 c 4,35,36
 631 92 631 92 649 77 c 132,-1,37
 667 62 667 62 667 25 c 4,38,39
 667 -11 667 -11 649 -27 c 132,-1,40
 631 -43 631 -43 606 -43 c 4,41,42
 579 -43 579 -43 561.5 -27 c 132,-1,43
 544 -11 544 -11 544 25 c 4,32,33
EndSplineSet
EndChar

StartChar: bracketleft.telu
Encoding: 91 91 32
Width: 1274
Flags: W
LayerCount: 2
Fore
SplineSet
541.930664062 -70 m 0,0,1
 538.930664062 -67 538.930664062 -67 537.430664062 -56.5 c 128,-1,2
 535.930664062 -46 535.930664062 -46 534.930664062 -12.5 c 128,-1,3
 533.930664062 21 533.930664062 21 533.930664062 86.5 c 128,-1,4
 533.930664062 152 533.930664062 152 533.930664062 266 c 0,5,6
 533.930664062 347 533.930664062 347 533.930664062 405 c 128,-1,7
 533.930664062 463 533.930664062 463 533.930664062 503.5 c 128,-1,8
 533.930664062 544 533.930664062 544 534.930664062 570 c 128,-1,9
 535.930664062 596 535.930664062 596 537.930664062 611.5 c 128,-1,10
 539.930664062 627 539.930664062 627 542.930664062 635 c 128,-1,11
 545.930664062 643 545.930664062 643 550.930664062 649 c 0,12,13
 554.930664062 654 554.930664062 654 566.430664062 657 c 128,-1,14
 577.930664062 660 577.930664062 660 593.430664062 661.5 c 128,-1,15
 608.930664062 663 608.930664062 663 628.430664062 663.5 c 128,-1,16
 647.930664062 664 647.930664062 664 667.930664062 664 c 0,17,18
 708.930664062 664 708.930664062 664 729.430664062 650 c 128,-1,19
 749.930664062 636 749.930664062 636 730.930664062 616 c 0,20,21
 725.930664062 610 725.930664062 610 711.930664062 606 c 128,-1,22
 697.930664062 602 697.930664062 602 667.930664062 602 c 0,23,24
 653.930664062 602 653.930664062 602 646.430664062 600 c 128,-1,25
 638.930664062 598 638.930664062 598 635.930664062 593 c 128,-1,26
 632.930664062 588 632.930664062 588 632.930664062 579.5 c 128,-1,27
 632.930664062 571 632.930664062 571 632.930664062 557 c 2,28,-1
 632.930664062 -20 l 1,29,-1
 650.930664062 -20 l 2,30,31
 693.930664062 -20 693.930664062 -20 708.430664062 -27.5 c 128,-1,32
 722.930664062 -35 722.930664062 -35 722.930664062 -56 c 0,33,34
 722.930664062 -66 722.930664062 -66 719.430664062 -71.5 c 128,-1,35
 715.930664062 -77 715.930664062 -77 705.430664062 -79.5 c 128,-1,36
 694.930664062 -82 694.930664062 -82 676.930664062 -82.5 c 128,-1,37
 658.930664062 -83 658.930664062 -83 628.930664062 -83 c 0,38,39
 601.930664062 -83 601.930664062 -83 586.430664062 -83 c 128,-1,40
 570.930664062 -83 570.930664062 -83 561.930664062 -81.5 c 128,-1,41
 552.930664062 -80 552.930664062 -80 548.930664062 -77.5 c 128,-1,42
 544.930664062 -75 544.930664062 -75 541.930664062 -70 c 0,0,1
578.930664062 616 m 256,43,44
 580.930664062 624 580.930664062 624 589.930664062 630 c 128,-1,45
 598.930664062 636 598.930664062 636 604.930664062 636 c 0,46,47
 613.930664062 636 613.930664062 636 613.930664062 643 c 0,48,49
 613.930664062 644 613.930664062 644 612.430664062 644 c 128,-1,50
 610.930664062 644 610.930664062 644 604.930664062 644 c 0,51,52
 589.930664062 644 589.930664062 644 575.930664062 634 c 128,-1,53
 561.930664062 624 561.930664062 624 561.930664062 610 c 0,54,55
 561.930664062 598 561.930664062 598 565.930664062 598 c 256,56,57
 569.930664062 598 569.930664062 598 573.430664062 603 c 128,-1,58
 576.930664062 608 576.930664062 608 578.930664062 616 c 256,43,44
EndSplineSet
EndChar

StartChar: backslash.telu
Encoding: 92 92 33
Width: 1274
Flags: W
LayerCount: 2
Fore
SplineSet
523.5 666 m 0,0,1
 530.5 666 530.5 666 548.5 630.5 c 128,-1,2
 566.5 595 566.5 595 590 541 c 128,-1,3
 613.5 487 613.5 487 639.5 422.5 c 128,-1,4
 665.5 358 665.5 358 688.5 299.5 c 128,-1,5
 711.5 241 711.5 241 728 197.5 c 128,-1,6
 744.5 154 744.5 154 750.5 142 c 0,7,8
 756.5 129 756.5 129 768 101.5 c 128,-1,9
 779.5 74 779.5 74 791 44.5 c 128,-1,10
 802.5 15 802.5 15 811 -10.5 c 128,-1,11
 819.5 -36 819.5 -36 819.5 -44 c 0,12,13
 819.5 -51 819.5 -51 814.5 -57 c 128,-1,14
 809.5 -63 809.5 -63 802 -67.5 c 128,-1,15
 794.5 -72 794.5 -72 786 -74.5 c 128,-1,16
 777.5 -77 777.5 -77 770.5 -77 c 0,17,18
 756.5 -77 756.5 -77 745 -67.5 c 128,-1,19
 733.5 -58 733.5 -58 726.5 -47 c 0,20,21
 720.5 -37 720.5 -37 705.5 -3 c 128,-1,22
 690.5 31 690.5 31 670.5 79.5 c 128,-1,23
 650.5 128 650.5 128 626.5 187 c 128,-1,24
 602.5 246 602.5 246 578.5 306 c 128,-1,25
 554.5 366 554.5 366 532 423 c 128,-1,26
 509.5 480 509.5 480 492.5 525 c 128,-1,27
 475.5 570 475.5 570 465 598.5 c 128,-1,28
 454.5 627 454.5 627 454.5 630 c 0,29,30
 454.5 639 454.5 639 463.5 646 c 128,-1,31
 472.5 653 472.5 653 484.5 657.5 c 128,-1,32
 496.5 662 496.5 662 508 664 c 128,-1,33
 519.5 666 519.5 666 523.5 666 c 0,0,1
498.5 626 m 0,34,35
 496.5 631 496.5 631 489 629 c 128,-1,36
 481.5 627 481.5 627 481.5 620 c 0,37,38
 481.5 614 481.5 614 486.5 599.5 c 128,-1,39
 491.5 585 491.5 585 498 569.5 c 128,-1,40
 504.5 554 504.5 554 511 540.5 c 128,-1,41
 517.5 527 517.5 527 519.5 523 c 0,42,43
 522.5 518 522.5 518 527.5 518 c 128,-1,44
 532.5 518 532.5 518 534.5 519 c 0,45,46
 539.5 520 539.5 520 536 532.5 c 128,-1,47
 532.5 545 532.5 545 525.5 561.5 c 128,-1,48
 518.5 578 518.5 578 510.5 596 c 128,-1,49
 502.5 614 502.5 614 498.5 626 c 0,34,35
EndSplineSet
EndChar

StartChar: bracketright.telu
Encoding: 93 93 34
Width: 1274
Flags: W
LayerCount: 2
Fore
SplineSet
566.75 -80 m 0,0,1
 551.75 -80 551.75 -80 541.25 -71.5 c 128,-1,2
 530.75 -63 530.75 -63 530.75 -55 c 0,3,4
 530.75 -33 530.75 -33 544.25 -25 c 128,-1,5
 557.75 -17 557.75 -17 577.75 -17 c 0,6,7
 601.75 -17 601.75 -17 615.25 -15 c 128,-1,8
 628.75 -13 628.75 -13 635.25 -8.5 c 128,-1,9
 641.75 -4 641.75 -4 643.25 3.5 c 128,-1,10
 644.75 11 644.75 11 644.75 21 c 2,11,-1
 644.75 551 l 2,12,13
 644.75 580 644.75 580 632.75 590 c 128,-1,14
 620.75 600 620.75 600 609.75 600 c 256,15,16
 598.75 600 598.75 600 586.75 598 c 128,-1,17
 574.75 596 574.75 596 563.75 596 c 0,18,19
 549.75 596 549.75 596 540.25 603 c 128,-1,20
 530.75 610 530.75 610 530.75 633 c 0,21,22
 530.75 645 530.75 645 547.25 653.5 c 128,-1,23
 563.75 662 563.75 662 592.75 662 c 0,24,25
 617.75 662 617.75 662 641.75 662 c 128,-1,26
 665.75 662 665.75 662 685.25 660.5 c 128,-1,27
 704.75 659 704.75 659 717.75 656 c 128,-1,28
 730.75 653 730.75 653 733.75 647 c 0,29,30
 736.75 642 736.75 642 737.25 625.5 c 128,-1,31
 737.75 609 737.75 609 737.75 570.5 c 128,-1,32
 737.75 532 737.75 532 738.25 466 c 128,-1,33
 738.75 400 738.75 400 739.75 295 c 0,34,35
 741.75 193 741.75 193 742.75 127.5 c 128,-1,36
 743.75 62 743.75 62 742.75 21 c 0,37,38
 742.75 -7 742.75 -7 738.75 -25 c 128,-1,39
 734.75 -43 734.75 -43 728.75 -54 c 128,-1,40
 722.75 -65 722.75 -65 714.25 -70 c 128,-1,41
 705.75 -75 705.75 -75 695.75 -76 c 0,42,43
 677.75 -78 677.75 -78 656.25 -79 c 128,-1,44
 634.75 -80 634.75 -80 615.75 -80 c 128,-1,45
 596.75 -80 596.75 -80 582.75 -80 c 128,-1,46
 568.75 -80 568.75 -80 566.75 -80 c 0,0,1
561.75 644 m 256,47,48
 557.75 649 557.75 649 550.75 645 c 128,-1,49
 543.75 641 543.75 641 543.75 633 c 0,50,51
 543.75 623 543.75 623 547.75 623 c 256,52,53
 551.75 623 551.75 623 551.75 630 c 0,54,55
 552.75 634 552.75 634 559.25 636.5 c 128,-1,56
 565.75 639 565.75 639 561.75 644 c 256,47,48
EndSplineSet
EndChar

StartChar: asciicircum.telu
Encoding: 94 94 35
Width: 1274
Flags: W
LayerCount: 2
Fore
SplineSet
389 267 m 1,0,-1
 601 719 l 1,1,-1
 651 719 l 1,2,-1
 885 267 l 1,3,-1
 807 267 l 1,4,-1
 627 626 l 1,5,-1
 467 267 l 1,6,-1
 389 267 l 1,0,-1
EndSplineSet
EndChar

StartChar: underscore.telu
Encoding: 95 95 36
Width: 1274
Flags: W
LayerCount: 2
Fore
SplineSet
861 -154 m 1,0,-1
 413 -154 l 1,1,-1
 413 -90 l 1,2,-1
 861 -90 l 1,3,-1
 861 -154 l 1,0,-1
EndSplineSet
EndChar

StartChar: braceleft.telu
Encoding: 123 123 37
Width: 1274
Flags: W
LayerCount: 2
Fore
SplineSet
713.5 -77 m 0,0,1
 660.5 -77 660.5 -77 630.5 -62 c 128,-1,2
 600.5 -47 600.5 -47 585 -21 c 128,-1,3
 569.5 5 569.5 5 565 39 c 128,-1,4
 560.5 73 560.5 73 558.5 111 c 0,5,6
 556.5 156 556.5 156 546 178 c 128,-1,7
 535.5 200 535.5 200 524 213 c 128,-1,8
 512.5 226 512.5 226 503.5 238 c 128,-1,9
 494.5 250 494.5 250 494.5 276 c 256,10,11
 494.5 302 494.5 302 507.5 315.5 c 128,-1,12
 520.5 329 520.5 329 536.5 345 c 128,-1,13
 552.5 361 552.5 361 566.5 387.5 c 128,-1,14
 580.5 414 580.5 414 582.5 466 c 0,15,16
 584.5 505 584.5 505 587.5 540.5 c 128,-1,17
 590.5 576 590.5 576 604 602.5 c 128,-1,18
 617.5 629 617.5 629 646 644.5 c 128,-1,19
 674.5 660 674.5 660 728.5 660 c 0,20,21
 743.5 660 743.5 660 753.5 656 c 128,-1,22
 763.5 652 763.5 652 769.5 646 c 128,-1,23
 775.5 640 775.5 640 777.5 633.5 c 128,-1,24
 779.5 627 779.5 627 779.5 622 c 0,25,26
 779.5 606 779.5 606 767 602 c 128,-1,27
 754.5 598 754.5 598 737.5 596.5 c 128,-1,28
 720.5 595 720.5 595 702.5 591 c 128,-1,29
 684.5 587 684.5 587 672.5 572 c 0,30,31
 664.5 562 664.5 562 665.5 540.5 c 128,-1,32
 666.5 519 666.5 519 669.5 492.5 c 128,-1,33
 672.5 466 672.5 466 674 436 c 128,-1,34
 675.5 406 675.5 406 669.5 378 c 0,35,36
 666.5 364 666.5 364 653 348 c 128,-1,37
 639.5 332 639.5 332 625.5 318 c 128,-1,38
 611.5 304 611.5 304 600 293 c 128,-1,39
 588.5 282 588.5 282 588.5 277 c 256,40,41
 588.5 272 588.5 272 599.5 260.5 c 128,-1,42
 610.5 249 610.5 249 623.5 232 c 128,-1,43
 636.5 215 636.5 215 647.5 192.5 c 128,-1,44
 658.5 170 658.5 170 658.5 143 c 0,45,46
 658.5 135 658.5 135 657.5 115.5 c 128,-1,47
 656.5 96 656.5 96 656 74.5 c 128,-1,48
 655.5 53 655.5 53 657 34 c 128,-1,49
 658.5 15 658.5 15 663.5 9 c 0,50,51
 672.5 -2 672.5 -2 685.5 -10 c 128,-1,52
 698.5 -18 698.5 -18 715.5 -18 c 0,53,54
 723.5 -18 723.5 -18 733 -18.5 c 128,-1,55
 742.5 -19 742.5 -19 750 -21.5 c 128,-1,56
 757.5 -24 757.5 -24 762.5 -30 c 128,-1,57
 767.5 -36 767.5 -36 767.5 -47 c 0,58,59
 767.5 -56 767.5 -56 762 -62 c 128,-1,60
 756.5 -68 756.5 -68 748.5 -71.5 c 128,-1,61
 740.5 -75 740.5 -75 731 -76 c 128,-1,62
 721.5 -77 721.5 -77 713.5 -77 c 0,0,1
632.5 584 m 0,63,64
 639.5 594 639.5 594 648 601.5 c 128,-1,65
 656.5 609 656.5 609 664 615 c 128,-1,66
 671.5 621 671.5 621 676 626 c 128,-1,67
 680.5 631 680.5 631 680.5 636 c 0,68,69
 680.5 640 680.5 640 675.5 640 c 0,70,71
 668.5 640 668.5 640 657.5 633 c 128,-1,72
 646.5 626 646.5 626 636.5 616 c 128,-1,73
 626.5 606 626.5 606 619.5 594.5 c 128,-1,74
 612.5 583 612.5 583 612.5 574 c 0,75,76
 612.5 572 612.5 572 614.5 571 c 128,-1,77
 616.5 570 616.5 570 617.5 570 c 0,78,79
 622.5 570 622.5 570 626 575 c 128,-1,80
 629.5 580 629.5 580 632.5 584 c 0,63,64
EndSplineSet
EndChar

StartChar: bar.telu
Encoding: 124 124 38
Width: 1274
Flags: W
LayerCount: 2
Fore
SplineSet
639 -99 m 256,0,1
 612 -99 612 -99 600.5 -80 c 128,-1,2
 589 -61 589 -61 589 -43 c 2,3,-1
 590 666 l 2,4,5
 590 682 590 682 600.5 694 c 128,-1,6
 611 706 611 706 631 706 c 0,7,8
 655 706 655 706 669 698 c 128,-1,9
 683 690 683 690 685 672 c 2,10,-1
 685 -38 l 2,11,12
 685 -60 685 -60 675.5 -79.5 c 128,-1,13
 666 -99 666 -99 639 -99 c 256,0,1
617 653 m 0,14,15
 617 664 617 664 619.5 671.5 c 128,-1,16
 622 679 622 679 623.5 683.5 c 128,-1,17
 625 688 625 688 625 690 c 128,-1,18
 625 692 625 692 620 692 c 0,19,20
 614 692 614 692 610.5 686.5 c 128,-1,21
 607 681 607 681 605 673.5 c 128,-1,22
 603 666 603 666 602.5 658.5 c 128,-1,23
 602 651 602 651 602 646 c 0,24,25
 602 633 602 633 605 622.5 c 128,-1,26
 608 612 608 612 614 612 c 0,27,28
 617 612 617 612 617.5 616.5 c 128,-1,29
 618 621 618 621 618 628 c 128,-1,30
 618 635 618 635 617.5 642 c 128,-1,31
 617 649 617 649 617 653 c 0,14,15
EndSplineSet
EndChar

StartChar: braceright.telu
Encoding: 125 125 39
Width: 1274
Flags: W
LayerCount: 2
Fore
SplineSet
563 -74 m 0,0,1
 556 -74 556 -74 547 -72.5 c 128,-1,2
 538 -71 538 -71 529.5 -67 c 128,-1,3
 521 -63 521 -63 515 -57 c 128,-1,4
 509 -51 509 -51 509 -42 c 0,5,6
 509 -34 509 -34 514 -29.5 c 128,-1,7
 519 -25 519 -25 525.5 -23 c 128,-1,8
 532 -21 532 -21 540 -21 c 128,-1,9
 548 -21 548 -21 554 -21 c 0,10,11
 581 -21 581 -21 593 -12.5 c 128,-1,12
 605 -4 605 -4 609.5 10.5 c 128,-1,13
 614 25 614 25 614 43 c 128,-1,14
 614 61 614 61 616 80 c 0,15,16
 618 97 618 97 620 122.5 c 128,-1,17
 622 148 622 148 627.5 175 c 128,-1,18
 633 202 633 202 641.5 226.5 c 128,-1,19
 650 251 650 251 663 264 c 0,20,21
 665 267 665 267 673 271.5 c 128,-1,22
 681 276 681 276 681 280 c 0,23,24
 681 286 681 286 669.5 289.5 c 128,-1,25
 658 293 658 293 654 296 c 0,26,27
 638 306 638 306 627.5 334 c 128,-1,28
 617 362 617 362 611.5 395 c 128,-1,29
 606 428 606 428 603.5 459 c 128,-1,30
 601 490 601 490 600 505 c 0,31,32
 599 514 599 514 599.5 529 c 128,-1,33
 600 544 600 544 598.5 558 c 128,-1,34
 597 572 597 572 593.5 583 c 128,-1,35
 590 594 590 594 581 596 c 0,36,37
 563 601 563 601 545 599 c 0,38,39
 516 597 516 597 503.5 605.5 c 128,-1,40
 491 614 491 614 491 631 c 0,41,42
 491 653 491 653 513.5 660.5 c 128,-1,43
 536 668 536 668 569 663 c 0,44,45
 605 659 605 659 628.5 642.5 c 128,-1,46
 652 626 652 626 666 603 c 128,-1,47
 680 580 680 580 686.5 553.5 c 128,-1,48
 693 527 693 527 695 502 c 0,49,50
 697 472 697 472 698 443 c 128,-1,51
 699 414 699 414 703.5 389 c 128,-1,52
 708 364 708 364 718.5 344.5 c 128,-1,53
 729 325 729 325 750 315 c 0,54,55
 759 311 759 311 771 301.5 c 128,-1,56
 783 292 783 292 783 281 c 0,57,58
 783 273 783 273 777 267.5 c 128,-1,59
 771 262 771 262 765 257 c 0,60,61
 745 242 745 242 736 227.5 c 128,-1,62
 727 213 727 213 723.5 197.5 c 128,-1,63
 720 182 720 182 720 164.5 c 128,-1,64
 720 147 720 147 719 126 c 0,65,66
 717 87 717 87 713.5 51 c 128,-1,67
 710 15 710 15 695.5 -12.5 c 128,-1,68
 681 -40 681 -40 650 -57 c 128,-1,69
 619 -74 619 -74 563 -74 c 0,0,1
516 616 m 0,70,71
 519 616 519 616 522.5 620.5 c 128,-1,72
 526 625 526 625 528.5 630.5 c 128,-1,73
 531 636 531 636 532.5 641.5 c 128,-1,74
 534 647 534 647 534 649 c 0,75,76
 534 656 534 656 527 656 c 0,77,78
 521 656 521 656 517 652 c 128,-1,79
 513 648 513 648 510.5 643 c 128,-1,80
 508 638 508 638 507 632.5 c 128,-1,81
 506 627 506 627 507 625 c 0,82,83
 510 616 510 616 516 616 c 0,70,71
EndSplineSet
EndChar

StartChar: asciitilde.telu
Encoding: 126 126 40
Width: 1274
Flags: W
LayerCount: 2
Fore
SplineSet
620.5 319 m 0,0,1
 584.5 335 584.5 335 561 340.5 c 128,-1,2
 537.5 346 537.5 346 515.5 346 c 0,3,4
 487.5 346 487.5 346 456.5 329 c 128,-1,5
 425.5 312 425.5 312 401.5 287 c 1,6,-1
 401.5 365 l 1,7,8
 425.5 391 425.5 391 455.5 404.5 c 128,-1,9
 485.5 418 485.5 418 521.5 418 c 0,10,11
 550.5 418 550.5 418 579 412 c 128,-1,12
 607.5 406 607.5 406 653.5 386 c 0,13,14
 689.5 370 689.5 370 713 364.5 c 128,-1,15
 736.5 359 736.5 359 757.5 359 c 0,16,17
 786.5 359 786.5 359 817.5 376 c 128,-1,18
 848.5 393 848.5 393 872.5 418 c 1,19,-1
 872.5 341 l 1,20,21
 848.5 315 848.5 315 818.5 301 c 128,-1,22
 788.5 287 788.5 287 752.5 287 c 0,23,24
 724.5 287 724.5 287 695 293.5 c 128,-1,25
 665.5 300 665.5 300 620.5 319 c 0,0,1
EndSplineSet
EndChar

StartChar: A
Encoding: 65 65 41
Width: 1274
Flags: W
LayerCount: 2
Fore
SplineSet
592.5 -8 m 0,0,1
 525.5 -8 525.5 -8 488 71 c 128,-1,2
 450.5 150 450.5 150 450.5 291 c 0,3,4
 450.5 444 450.5 444 494.5 530 c 128,-1,5
 538.5 616 538.5 616 618.5 621 c 0,6,7
 647.5 623 647.5 623 666 614.5 c 128,-1,8
 684.5 606 684.5 606 696.5 595 c 128,-1,9
 708.5 584 708.5 584 714.5 575 c 128,-1,10
 720.5 566 720.5 566 723.5 566 c 256,11,12
 726.5 566 726.5 566 727.5 575 c 128,-1,13
 728.5 584 728.5 584 732.5 595 c 128,-1,14
 736.5 606 736.5 606 745 615 c 128,-1,15
 753.5 624 753.5 624 772.5 624 c 256,16,17
 791.5 624 791.5 624 804.5 615 c 128,-1,18
 817.5 606 817.5 606 817.5 592 c 2,19,-1
 817.5 204 l 2,20,21
 817.5 163 817.5 163 820.5 126.5 c 128,-1,22
 823.5 90 823.5 90 823.5 71 c 0,23,24
 823.5 36 823.5 36 810 14 c 128,-1,25
 796.5 -8 796.5 -8 775.5 -8 c 0,26,27
 751.5 -8 751.5 -8 736.5 19 c 128,-1,28
 721.5 46 721.5 46 721.5 88 c 0,29,30
 721.5 114 721.5 114 716.5 114 c 0,31,32
 712.5 114 712.5 114 705.5 95 c 128,-1,33
 698.5 76 698.5 76 685 53 c 128,-1,34
 671.5 30 671.5 30 649.5 11 c 128,-1,35
 627.5 -8 627.5 -8 592.5 -8 c 0,0,1
746.5 557 m 0,36,37
 750.5 557 750.5 557 752 563.5 c 128,-1,38
 753.5 570 753.5 570 755.5 577 c 0,39,40
 758.5 587 758.5 587 761.5 594 c 128,-1,41
 764.5 601 764.5 601 764.5 606 c 256,42,43
 764.5 611 764.5 611 760.5 611 c 0,44,45
 755.5 611 755.5 611 747.5 601 c 128,-1,46
 739.5 591 739.5 591 739.5 575 c 0,47,48
 739.5 567 739.5 567 741.5 562 c 128,-1,49
 743.5 557 743.5 557 746.5 557 c 0,36,37
616.5 90 m 0,50,51
 630.5 90 630.5 90 646.5 117 c 128,-1,52
 662.5 144 662.5 144 676 185.5 c 128,-1,53
 689.5 227 689.5 227 698.5 275.5 c 128,-1,54
 707.5 324 707.5 324 707.5 366 c 0,55,56
 707.5 399 707.5 399 702 428.5 c 128,-1,57
 696.5 458 696.5 458 686.5 480.5 c 128,-1,58
 676.5 503 676.5 503 664 516 c 128,-1,59
 651.5 529 651.5 529 637.5 529 c 0,60,61
 621.5 529 621.5 529 606.5 511.5 c 128,-1,62
 591.5 494 591.5 494 581 463.5 c 128,-1,63
 570.5 433 570.5 433 564 392.5 c 128,-1,64
 557.5 352 557.5 352 557.5 306 c 0,65,66
 557.5 265 557.5 265 562.5 226 c 128,-1,67
 567.5 187 567.5 187 576 157 c 128,-1,68
 584.5 127 584.5 127 595 108.5 c 128,-1,69
 605.5 90 605.5 90 616.5 90 c 0,50,51
544.5 33 m 0,70,71
 548.5 33 548.5 33 551 36.5 c 128,-1,72
 553.5 40 553.5 40 552.5 43 c 256,73,74
 551.5 46 551.5 46 547 51.5 c 128,-1,75
 542.5 57 542.5 57 536.5 64.5 c 128,-1,76
 530.5 72 530.5 72 525 80.5 c 128,-1,77
 519.5 89 519.5 89 517.5 97 c 0,78,79
 516.5 101 516.5 101 515 107.5 c 128,-1,80
 513.5 114 513.5 114 511.5 120.5 c 128,-1,81
 509.5 127 509.5 127 507.5 131.5 c 128,-1,82
 505.5 136 505.5 136 502.5 136 c 0,83,84
 497.5 136 497.5 136 497.5 122.5 c 128,-1,85
 497.5 109 497.5 109 504.5 89 c 0,86,87
 512.5 69 512.5 69 524.5 51 c 128,-1,88
 536.5 33 536.5 33 544.5 33 c 0,70,71
773.5 22 m 256,89,90
 773.5 25 773.5 25 770 29 c 128,-1,91
 766.5 33 766.5 33 762 38 c 128,-1,92
 757.5 43 757.5 43 754 49.5 c 128,-1,93
 750.5 56 750.5 56 750.5 63 c 0,94,95
 750.5 66 750.5 66 749.5 69 c 0,96,97
 747.5 74 747.5 74 743.5 74 c 0,98,99
 736.5 74 736.5 74 736.5 62 c 0,100,101
 736.5 46 736.5 46 745.5 29.5 c 128,-1,102
 754.5 13 754.5 13 763.5 13 c 0,103,104
 767.5 13 767.5 13 770.5 16 c 128,-1,105
 773.5 19 773.5 19 773.5 22 c 256,89,90
569.5 17 m 256,106,107
 572.5 17 572.5 17 576 21 c 128,-1,108
 579.5 25 579.5 25 581 29.5 c 128,-1,109
 582.5 34 582.5 34 581 38 c 128,-1,110
 579.5 42 579.5 42 573.5 42 c 0,111,112
 561.5 42 561.5 42 561.5 30 c 0,113,114
 561.5 25 561.5 25 564 21 c 128,-1,115
 566.5 17 566.5 17 569.5 17 c 256,106,107
EndSplineSet

EndChar

StartChar: B
Encoding: 66 66 42
Width: 1274
Flags: W
LayerCount: 2
Fore
SplineSet
702 546 m 0,0,1
 662 546 662 546 633.5 574 c 128,-1,2
 605 602 605 602 605 646 c 0,3,4
 605 670 605 670 613.5 691.5 c 128,-1,5
 622 713 622 713 637 728.5 c 128,-1,6
 652 744 652 744 673 753.5 c 128,-1,7
 694 763 694 763 719 763 c 0,8,9
 739 763 739 763 756 754.5 c 128,-1,10
 773 746 773 746 785 731 c 128,-1,11
 797 716 797 716 803.5 697 c 128,-1,12
 810 678 810 678 810 657 c 0,13,14
 810 630 810 630 801.5 609.5 c 128,-1,15
 793 589 793 589 778 575 c 128,-1,16
 763 561 763 561 743.5 553.5 c 128,-1,17
 724 546 724 546 702 546 c 0,0,1
665 719 m 0,18,19
 672 726 672 726 673.5 731 c 128,-1,20
 675 736 675 736 673 736 c 0,21,22
 665 736 665 736 656 728.5 c 128,-1,23
 647 721 647 721 639.5 710.5 c 128,-1,24
 632 700 632 700 627 688 c 128,-1,25
 622 676 622 676 622 666 c 0,26,27
 622 664 622 664 623.5 658 c 128,-1,28
 625 652 625 652 628 652 c 0,29,30
 632 652 632 652 638 674 c 0,31,32
 641 688 641 688 649 699.5 c 128,-1,33
 657 711 657 711 665 719 c 0,18,19
706 603 m 0,34,35
 718 603 718 603 734.5 617 c 128,-1,36
 751 631 751 631 751 657 c 0,37,38
 751 677 751 677 740.5 690.5 c 128,-1,39
 730 704 730 704 713 704 c 256,40,41
 696 704 696 704 682 690.5 c 128,-1,42
 668 677 668 677 668 653 c 256,43,44
 668 629 668 629 679 616 c 128,-1,45
 690 603 690 603 706 603 c 0,34,35
509 655 m 0,46,47
 489 655 489 655 472 640 c 128,-1,48
 455 625 455 625 455 586 c 2,49,-1
 455 91 l 2,50,51
 455 70 455 70 463.5 53 c 128,-1,52
 472 36 472 36 486.5 24.5 c 128,-1,53
 501 13 501 13 519.5 7 c 128,-1,54
 538 1 538 1 558 1 c 2,55,-1
 617 1 l 2,56,57
 648 1 648 1 683.5 13 c 128,-1,58
 719 25 719 25 749 51 c 128,-1,59
 779 77 779 77 799 119 c 128,-1,60
 819 161 819 161 819 220 c 256,61,62
 819 279 819 279 799.5 325.5 c 128,-1,63
 780 372 780 372 751 403.5 c 128,-1,64
 722 435 722 435 688 451.5 c 128,-1,65
 654 468 654 468 624 468 c 2,66,-1
 595 468 l 2,67,68
 586 468 586 468 577.5 472 c 128,-1,69
 569 476 569 476 569 485 c 2,70,-1
 569 590 l 2,71,72
 569 608 569 608 563.5 620 c 128,-1,73
 558 632 558 632 549 640 c 128,-1,74
 540 648 540 648 529.5 651.5 c 128,-1,75
 519 655 519 655 509 655 c 0,46,47
613 379 m 2,76,77
 630 379 630 379 646 371 c 128,-1,78
 662 363 662 363 675.5 345.5 c 128,-1,79
 689 328 689 328 697 300 c 128,-1,80
 705 272 705 272 705 232 c 0,81,82
 705 189 705 189 697 160.5 c 128,-1,83
 689 132 689 132 676 115.5 c 128,-1,84
 663 99 663 99 647 92 c 128,-1,85
 631 85 631 85 616 85 c 2,86,-1
 594 85 l 2,87,88
 569 85 569 85 569 119 c 2,89,-1
 569 356 l 2,90,91
 569 379 569 379 600 379 c 2,92,-1
 613 379 l 2,76,77
495 620 m 256,93,94
 490 615 490 615 486.5 602 c 128,-1,95
 483 589 483 589 483 550.5 c 128,-1,96
 483 512 483 512 476 512 c 0,97,98
 471 512 471 512 469.5 520.5 c 128,-1,99
 468 529 468 529 468 541 c 0,100,101
 468 603 468 603 475 619 c 128,-1,102
 482 635 482 635 492 635 c 0,103,104
 494 635 494 635 497 633 c 128,-1,105
 500 631 500 631 500 629 c 0,106,107
 500 625 500 625 495 620 c 256,93,94
EndSplineSet
EndChar

StartChar: C
Encoding: 67 67 43
Width: 1274
Flags: W
LayerCount: 2
Fore
SplineSet
683 584 m 0
 643 584 643 584 614.5 612 c 0
 586 640 586 640 586 684 c 0
 586 708 586 708 594.5 729.5 c 0
 603 751 603 751 618 766.5 c 0
 633 782 633 782 654 791.5 c 0
 675 801 675 801 700 801 c 0
 720 801 720 801 737 792.5 c 0
 754 784 754 784 766 769 c 0
 778 754 778 754 784.5 735 c 0
 791 716 791 716 791 695 c 0
 791 668 791 668 782.5 647.5 c 0
 774 627 774 627 759 613 c 0
 744 599 744 599 724.5 591.5 c 0
 705 584 705 584 683 584 c 0
646 757 m 0
 653 764 653 764 654.5 769 c 0
 656 774 656 774 654 774 c 0
 646 774 646 774 637 766.5 c 0
 628 759 628 759 620.5 748.5 c 0
 613 738 613 738 608 726 c 0
 603 714 603 714 603 704 c 0
 603 702 603 702 604.5 696 c 0
 606 690 606 690 609 690 c 0
 613 690 613 690 619 712 c 0
 622 726 622 726 630 737.5 c 0
 638 749 638 749 646 757 c 0
687 641 m 0
 699 641 699 641 715.5 655 c 0
 732 669 732 669 732 695 c 0
 732 715 732 715 721.5 728.5 c 0
 711 742 711 742 694 742 c 256
 677 742 677 742 663 728.5 c 0
 649 715 649 715 649 691 c 256
 649 667 649 667 660 654 c 0
 671 641 671 641 687 641 c 0
EndSplineSet
Refer: 69 99 N 1 0 0 1 0 -15 2
EndChar

StartChar: D
Encoding: 68 68 44
Width: 1274
Flags: W
LayerCount: 2
Fore
SplineSet
537.5 0 m 2,0,1
 519.5 0 519.5 0 503 4 c 128,-1,2
 486.5 8 486.5 8 474 18 c 128,-1,3
 461.5 28 461.5 28 454 45 c 128,-1,4
 446.5 62 446.5 62 446.5 88 c 2,5,-1
 446.5 516 l 2,6,7
 446.5 543 446.5 543 456 562.5 c 128,-1,8
 465.5 582 465.5 582 481 594.5 c 128,-1,9
 496.5 607 496.5 607 517.5 612.5 c 128,-1,10
 538.5 618 538.5 618 561.5 618 c 2,11,-1
 606.5 618 l 2,12,13
 649.5 618 649.5 618 689.5 598.5 c 128,-1,14
 729.5 579 729.5 579 760 541.5 c 128,-1,15
 790.5 504 790.5 504 809 449.5 c 128,-1,16
 827.5 395 827.5 395 827.5 326 c 0,17,18
 827.5 253 827.5 253 808.5 192.5 c 128,-1,19
 789.5 132 789.5 132 757.5 89.5 c 128,-1,20
 725.5 47 725.5 47 682.5 23.5 c 128,-1,21
 639.5 0 639.5 0 592.5 0 c 2,22,-1
 537.5 0 l 2,0,1
587.5 96 m 2,23,24
 613.5 96 613.5 96 636.5 112.5 c 128,-1,25
 659.5 129 659.5 129 676 159.5 c 128,-1,26
 692.5 190 692.5 190 702 233 c 128,-1,27
 711.5 276 711.5 276 711.5 329 c 0,28,29
 711.5 424 711.5 424 681.5 472 c 128,-1,30
 651.5 520 651.5 520 603.5 520 c 2,31,-1
 588.5 520 l 2,32,33
 571.5 520 571.5 520 566 512.5 c 128,-1,34
 560.5 505 560.5 505 560.5 480 c 2,35,-1
 560.5 132 l 2,36,37
 560.5 112 560.5 112 564 104 c 128,-1,38
 567.5 96 567.5 96 574.5 96 c 2,39,-1
 587.5 96 l 2,23,24
477.5 83 m 0,40,41
 481.5 83 481.5 83 483 93.5 c 128,-1,42
 484.5 104 484.5 104 484.5 117.5 c 128,-1,43
 484.5 131 484.5 131 484 143.5 c 128,-1,44
 483.5 156 483.5 156 483.5 161 c 0,45,46
 483.5 216 483.5 216 477.5 216 c 0,47,48
 474.5 216 474.5 216 471.5 203.5 c 128,-1,49
 468.5 191 468.5 191 468.5 161 c 0,50,51
 468.5 116 468.5 116 469 99.5 c 128,-1,52
 469.5 83 469.5 83 477.5 83 c 0,40,41
476.5 69 m 0,53,54
 469.5 69 469.5 69 469.5 58 c 0,55,56
 469.5 40 469.5 40 477.5 40 c 0,57,58
 480.5 40 480.5 40 482.5 46 c 128,-1,59
 484.5 52 484.5 52 484.5 58 c 0,60,61
 484.5 69 484.5 69 476.5 69 c 0,53,54
EndSplineSet

EndChar

StartChar: E
Encoding: 69 69 45
Width: 1274
Flags: W
LayerCount: 2
Fore
SplineSet
522 333.5 m 0,0,1
 510 349.5 510 349.5 501 365 c 128,-1,2
 492 380.5 492 380.5 490 395.5 c 0,3,4
 487 409.5 487 409.5 481 408.5 c 0,5,6
 473 408.5 473 408.5 476 390.5 c 0,7,8
 477 381.5 477 381.5 481.5 368.5 c 128,-1,9
 486 355.5 486 355.5 492 344.5 c 128,-1,10
 498 333.5 498 333.5 506 326 c 128,-1,11
 514 318.5 514 318.5 523 319.5 c 0,12,13
 531 321.5 531 321.5 522 333.5 c 0,0,1
508 60 m 0,14,15
 496 76 496 76 487 91.5 c 128,-1,16
 478 107 478 107 476 122 c 0,17,18
 473 136 473 136 467 135 c 0,19,20
 459 135 459 135 462 117 c 0,21,22
 463 108 463 108 467.5 95 c 128,-1,23
 472 82 472 82 478 71 c 128,-1,24
 484 60 484 60 492 52.5 c 128,-1,25
 500 45 500 45 509 46 c 0,26,27
 517 48 517 48 508 60 c 0,14,15
746 315 m 1,28,-1
 746 243 l 1,29,-1
 673 243 l 2,30,31
 622 243 622 243 588.5 232.5 c 128,-1,32
 555 222 555 222 538.5 202 c 128,-1,33
 522 182 522 182 522 151 c 0,34,35
 522 118 522 118 541 98.5 c 128,-1,36
 560 79 560 79 592 70.5 c 128,-1,37
 624 62 624 62 664 62 c 0,38,39
 720 62 720 62 762.5 75 c 128,-1,40
 805 88 805 88 838 104 c 1,41,-1
 838 27 l 1,42,43
 807 11 807 11 764 0.5 c 128,-1,44
 721 -10 721 -10 659 -10 c 0,45,46
 544 -10 544 -10 489 34.5 c 128,-1,47
 434 79 434 79 434 146 c 0,48,49
 434 186 434 186 450.5 211.5 c 128,-1,50
 467 237 467 237 494 252.5 c 128,-1,51
 521 268 521 268 553 277 c 1,52,-1
 553 282 l 1,53,54
 508 296 508 296 480.5 325.5 c 128,-1,55
 453 355 453 355 453 404 c 0,56,57
 453 449 453 449 479.5 481 c 128,-1,58
 506 513 506 513 552.5 529.5 c 128,-1,59
 599 546 599 546 659 546 c 0,60,61
 717 546 717 546 758.5 536 c 128,-1,62
 800 526 800 526 840 508 c 1,63,-1
 807 438 l 1,64,65
 774 453 774 453 739.5 463 c 128,-1,66
 705 473 705 473 658 473 c 0,67,68
 598 473 598 473 567.5 454 c 128,-1,69
 537 435 537 435 537 397 c 0,70,71
 537 353 537 353 578.5 334 c 128,-1,72
 620 315 620 315 690 315 c 2,73,-1
 746 315 l 1,28,-1
EndSplineSet

EndChar

StartChar: F
Encoding: 70 70 46
Width: 1274
Flags: W
LayerCount: 2
Fore
SplineSet
548.5 0 m 0,0,1
 521.5 0 521.5 0 504 9.5 c 128,-1,2
 486.5 19 486.5 19 486.5 49 c 2,3,-1
 486.5 543 l 2,4,5
 486.5 582 486.5 582 515 599.5 c 128,-1,6
 543.5 617 543.5 617 588.5 617 c 2,7,-1
 758.5 616 l 2,8,9
 769.5 616 769.5 616 778.5 604.5 c 128,-1,10
 787.5 593 787.5 593 787.5 579 c 0,11,12
 787.5 572 787.5 572 786 561.5 c 128,-1,13
 784.5 551 784.5 551 781.5 541.5 c 128,-1,14
 778.5 532 778.5 532 774 525.5 c 128,-1,15
 769.5 519 769.5 519 763.5 519 c 2,16,-1
 626.5 520 l 2,17,18
 600.5 520 600.5 520 600.5 494 c 2,19,-1
 600.5 345 l 2,20,21
 600.5 335 600.5 335 607 330.5 c 128,-1,22
 613.5 326 613.5 326 623.5 326 c 2,23,-1
 729.5 329 l 2,24,25
 737.5 329 737.5 329 743.5 324 c 128,-1,26
 749.5 319 749.5 319 754.5 310.5 c 128,-1,27
 759.5 302 759.5 302 762 293 c 128,-1,28
 764.5 284 764.5 284 764.5 276 c 0,29,30
 764.5 237 764.5 237 726.5 236 c 2,31,-1
 620.5 233 l 2,32,33
 612.5 233 612.5 233 606.5 227 c 128,-1,34
 600.5 221 600.5 221 600.5 213 c 2,35,-1
 600.5 48 l 2,36,37
 600.5 32 600.5 32 596 22.5 c 128,-1,38
 591.5 13 591.5 13 584 8 c 128,-1,39
 576.5 3 576.5 3 567 1.5 c 128,-1,40
 557.5 0 557.5 0 548.5 0 c 0,0,1
536.5 26 m 0,41,42
 535.5 31 535.5 31 527 42 c 128,-1,43
 518.5 53 518.5 53 516.5 78 c 0,44,45
 514.5 91 514.5 91 511 94 c 128,-1,46
 507.5 97 507.5 97 505.5 97 c 256,47,48
 503.5 97 503.5 97 502 91 c 128,-1,49
 500.5 85 500.5 85 502.5 75 c 0,50,51
 502.5 70 502.5 70 504.5 60.5 c 128,-1,52
 506.5 51 506.5 51 510 41.5 c 128,-1,53
 513.5 32 513.5 32 518.5 25 c 128,-1,54
 523.5 18 523.5 18 530.5 19 c 0,55,56
 536.5 19 536.5 19 536.5 26 c 0,41,42
EndSplineSet

EndChar

StartChar: G
Encoding: 71 71 47
Width: 1274
Flags: W
LayerCount: 2
Fore
SplineSet
667 621 m 0,0,1
 627 621 627 621 598.5 649 c 128,-1,2
 570 677 570 677 570 721 c 0,3,4
 570 745 570 745 578.5 766.5 c 128,-1,5
 587 788 587 788 602 803.5 c 128,-1,6
 617 819 617 819 638 828.5 c 128,-1,7
 659 838 659 838 684 838 c 0,8,9
 704 838 704 838 721 829.5 c 128,-1,10
 738 821 738 821 750 806 c 128,-1,11
 762 791 762 791 768.5 772 c 128,-1,12
 775 753 775 753 775 732 c 0,13,14
 775 705 775 705 766.5 684.5 c 128,-1,15
 758 664 758 664 743 650 c 128,-1,16
 728 636 728 636 708.5 628.5 c 128,-1,17
 689 621 689 621 667 621 c 0,0,1
630 794 m 0,18,19
 637 801 637 801 638.5 806 c 128,-1,20
 640 811 640 811 638 811 c 0,21,22
 630 811 630 811 621 803.5 c 128,-1,23
 612 796 612 796 604.5 785.5 c 128,-1,24
 597 775 597 775 592 763 c 128,-1,25
 587 751 587 751 587 741 c 0,26,27
 587 739 587 739 588.5 733 c 128,-1,28
 590 727 590 727 593 727 c 0,29,30
 597 727 597 727 603 749 c 0,31,32
 606 763 606 763 614 774.5 c 128,-1,33
 622 786 622 786 630 794 c 0,18,19
671 678 m 0,34,35
 683 678 683 678 699.5 692 c 128,-1,36
 716 706 716 706 716 732 c 0,37,38
 716 752 716 752 705.5 765.5 c 128,-1,39
 695 779 695 779 678 779 c 256,40,41
 661 779 661 779 647 765.5 c 128,-1,42
 633 752 633 752 633 728 c 256,43,44
 633 704 633 704 644 691 c 128,-1,45
 655 678 655 678 671 678 c 0,34,35
636 -37 m 0,46,47
 573 -37 573 -37 532.5 -4 c 128,-1,48
 492 29 492 29 469 79 c 128,-1,49
 446 129 446 129 437.5 187 c 128,-1,50
 429 245 429 245 429 296 c 0,51,52
 429 352 429 352 442.5 405.5 c 128,-1,53
 456 459 456 459 484.5 500.5 c 128,-1,54
 513 542 513 542 558.5 567.5 c 128,-1,55
 604 593 604 593 668 593 c 0,56,57
 695 593 695 593 724.5 587 c 128,-1,58
 754 581 754 581 778.5 564.5 c 128,-1,59
 803 548 803 548 819.5 520 c 128,-1,60
 836 492 836 492 836 448 c 0,61,62
 836 432 836 432 829.5 422.5 c 128,-1,63
 823 413 823 413 813.5 407.5 c 128,-1,64
 804 402 804 402 794 400.5 c 128,-1,65
 784 399 784 399 778 399 c 0,66,67
 764 399 764 399 751.5 409 c 128,-1,68
 739 419 739 419 739 448 c 0,69,70
 739 471 739 471 731 483 c 128,-1,71
 723 495 723 495 712 500.5 c 128,-1,72
 701 506 701 506 690.5 507 c 128,-1,73
 680 508 680 508 674 508 c 0,74,75
 648 508 648 508 625 492.5 c 128,-1,76
 602 477 602 477 584.5 448 c 128,-1,77
 567 419 567 419 557 377 c 128,-1,78
 547 335 547 335 547 282 c 0,79,80
 547 253 547 253 550.5 213 c 128,-1,81
 554 173 554 173 566 137 c 128,-1,82
 578 101 578 101 600 75.5 c 128,-1,83
 622 50 622 50 658 50 c 0,84,85
 681 50 681 50 698 65 c 128,-1,86
 715 80 715 80 726.5 102 c 128,-1,87
 738 124 738 124 744 148.5 c 128,-1,88
 750 173 750 173 749 192 c 0,89,90
 748 208 748 208 729.5 209.5 c 128,-1,91
 711 211 711 211 688 211 c 2,92,-1
 626 211 l 2,93,94
 620 211 620 211 615 217 c 128,-1,95
 610 223 610 223 607 231.5 c 128,-1,96
 604 240 604 240 602 249 c 128,-1,97
 600 258 600 258 600 264 c 0,98,99
 600 280 600 280 610.5 292.5 c 128,-1,100
 621 305 621 305 644 305 c 2,101,-1
 769 304 l 2,102,103
 782 304 782 304 795.5 298.5 c 128,-1,104
 809 293 809 293 819.5 282.5 c 128,-1,105
 830 272 830 272 837 255.5 c 128,-1,106
 844 239 844 239 844 216 c 0,107,108
 844 181 844 181 844.5 151 c 128,-1,109
 845 121 845 121 845 77 c 0,110,111
 845 43 845 43 842.5 22 c 128,-1,112
 840 1 840 1 834 -11 c 128,-1,113
 828 -23 828 -23 819.5 -27.5 c 128,-1,114
 811 -32 811 -32 799 -32 c 0,115,116
 782 -32 782 -32 774 -19.5 c 128,-1,117
 766 -7 766 -7 762.5 8 c 128,-1,118
 759 23 759 23 758 35.5 c 128,-1,119
 757 48 757 48 754 48 c 256,120,121
 751 48 751 48 745 34.5 c 128,-1,122
 739 21 739 21 726 5.5 c 128,-1,123
 713 -10 713 -10 692 -23.5 c 128,-1,124
 671 -37 671 -37 636 -37 c 0,46,47
541 44 m 0,125,126
 541 49 541 49 525 72 c 0,127,128
 518 83 518 83 511 97.5 c 128,-1,129
 504 112 504 112 499 126 c 128,-1,130
 494 140 494 140 491 152 c 128,-1,131
 488 164 488 164 489 168 c 0,132,133
 490 173 490 173 487 175.5 c 128,-1,134
 484 178 484 178 483 178 c 0,135,136
 475 178 475 178 473 167 c 256,137,138
 471 156 471 156 476.5 135 c 128,-1,139
 482 114 482 114 491.5 93 c 128,-1,140
 501 72 501 72 512.5 56 c 128,-1,141
 524 40 524 40 533 39 c 0,142,143
 540 37 540 37 541 44 c 0,125,126
804 -7 m 0,144,145
 804 1 804 1 796 6.5 c 128,-1,146
 788 12 788 12 787 24 c 0,147,148
 787 27 787 27 786.5 35 c 128,-1,149
 786 43 786 43 781 43 c 256,150,151
 776 43 776 43 775 36.5 c 128,-1,152
 774 30 774 30 774 25 c 256,153,154
 774 20 774 20 775.5 12.5 c 128,-1,155
 777 5 777 5 780 -1.5 c 128,-1,156
 783 -8 783 -8 787 -13 c 128,-1,157
 791 -18 791 -18 796 -18 c 256,158,159
 801 -18 801 -18 802.5 -14 c 128,-1,160
 804 -10 804 -10 804 -7 c 0,144,145
561 27 m 0,161,162
 562 30 562 30 559.5 32.5 c 128,-1,163
 557 35 557 35 555 35 c 0,164,165
 551 36 551 36 549.5 33 c 128,-1,166
 548 30 548 30 547 28 c 0,167,168
 546 23 546 23 548.5 21.5 c 128,-1,169
 551 20 551 20 553 20 c 0,170,171
 559 20 559 20 561 27 c 0,161,162
EndSplineSet
EndChar

StartChar: H
Encoding: 72 72 48
Width: 1274
Flags: W
LayerCount: 2
Fore
SplineSet
756 0 m 0,0,1
 739 0 739 0 729 9.5 c 128,-1,2
 719 19 719 19 714 32.5 c 128,-1,3
 709 46 709 46 707.5 62.5 c 128,-1,4
 706 79 706 79 706 92 c 2,5,-1
 706 237 l 2,6,7
 706 250 706 250 703.5 256.5 c 128,-1,8
 701 263 701 263 693 263 c 2,9,-1
 586 263 l 2,10,11
 576 263 576 263 572 260 c 128,-1,12
 568 257 568 257 568 247 c 2,13,-1
 568 105 l 2,14,15
 568 91 568 91 566 72.5 c 128,-1,16
 564 54 564 54 558 38 c 128,-1,17
 552 22 552 22 542 11 c 128,-1,18
 532 0 532 0 516 0 c 0,19,20
 498 0 498 0 486 8.5 c 128,-1,21
 474 17 474 17 467.5 31 c 128,-1,22
 461 45 461 45 458.5 64 c 128,-1,23
 456 83 456 83 456 105 c 2,24,-1
 456 546 l 2,25,26
 456 552 456 552 458.5 563.5 c 128,-1,27
 461 575 461 575 467 587 c 128,-1,28
 473 599 473 599 484 607.5 c 128,-1,29
 495 616 495 616 513 616 c 0,30,31
 528 616 528 616 538.5 609 c 128,-1,32
 549 602 549 602 555.5 591 c 128,-1,33
 562 580 562 580 565 567.5 c 128,-1,34
 568 555 568 555 568 544 c 2,35,-1
 568 369 l 2,36,37
 568 361 568 361 570.5 355 c 128,-1,38
 573 349 573 349 581 349 c 2,39,-1
 695 348 l 2,40,41
 700 348 700 348 703 350.5 c 128,-1,42
 706 353 706 353 706 367 c 2,43,-1
 706 540 l 2,44,45
 706 578 706 578 718 597 c 128,-1,46
 730 616 730 616 751 616 c 0,47,48
 762 616 762 616 773.5 612 c 128,-1,49
 785 608 785 608 795 598.5 c 128,-1,50
 805 589 805 589 811.5 574 c 128,-1,51
 818 559 818 559 818 537 c 2,52,-1
 818 91 l 2,53,54
 818 77 818 77 814.5 61 c 128,-1,55
 811 45 811 45 803.5 31.5 c 128,-1,56
 796 18 796 18 784 9 c 128,-1,57
 772 0 772 0 756 0 c 0,0,1
473 555 m 0,58,59
 476 555 476 555 480.5 559.5 c 128,-1,60
 485 564 485 564 489.5 570.5 c 128,-1,61
 494 577 494 577 498 583.5 c 128,-1,62
 502 590 502 590 503 593 c 256,63,64
 504 596 504 596 503.5 600.5 c 128,-1,65
 503 605 503 605 500 604 c 0,66,67
 493 603 493 603 488 597.5 c 128,-1,68
 483 592 483 592 479 585 c 128,-1,69
 475 578 475 578 473 572 c 128,-1,70
 471 566 471 566 471 563 c 0,71,72
 471 561 471 561 471 558.5 c 128,-1,73
 471 556 471 556 473 555 c 0,58,59
743 575 m 0,74,75
 744 583 744 583 749.5 591 c 128,-1,76
 755 599 755 599 749 600 c 0,77,78
 741 601 741 601 732.5 591.5 c 128,-1,79
 724 582 724 582 722 568 c 0,80,81
 721 554 721 554 727 552 c 0,82,83
 735 551 735 551 738.5 561 c 128,-1,84
 742 571 742 571 743 575 c 0,74,75
498 30 m 0,85,86
 498 35 498 35 494 39 c 0,87,88
 489 44 489 44 487 59.5 c 128,-1,89
 485 75 485 75 485 86 c 0,90,91
 485 103 485 103 478 103 c 0,92,93
 474 103 474 103 473 96 c 128,-1,94
 472 89 472 89 472 86 c 0,95,96
 472 82 472 82 473 72 c 128,-1,97
 474 62 474 62 476 52 c 128,-1,98
 478 42 478 42 482 34.5 c 128,-1,99
 486 27 486 27 492 27 c 256,100,101
 498 27 498 27 498 30 c 0,85,86
744 26 m 0,102,103
 738 32 738 32 733.5 50 c 128,-1,104
 729 68 729 68 729 77 c 0,105,106
 729 81 729 81 727 81 c 0,107,108
 724 81 724 81 722 73.5 c 128,-1,109
 720 66 720 66 720 58 c 0,110,111
 720 46 720 46 725 31.5 c 128,-1,112
 730 17 730 17 744 17 c 0,113,114
 747 17 747 17 746.5 20.5 c 128,-1,115
 746 24 746 24 744 26 c 0,102,103
EndSplineSet
EndChar

StartChar: I
Encoding: 73 73 49
Width: 1274
Flags: W
LayerCount: 2
Fore
SplineSet
504 484 m 1,0,-1
 614 792 l 1,1,-1
 664 792 l 1,2,-1
 770 484 l 1,3,-1
 692 484 l 1,4,-1
 640 699 l 1,5,-1
 582 484 l 1,6,-1
 504 484 l 1,0,-1
632 -4 m 256,7,8
 608 -4 608 -4 595 6.5 c 128,-1,9
 582 17 582 17 582 32 c 2,10,-1
 582 387 l 2,11,12
 582 396 582 396 584.5 408 c 128,-1,13
 587 420 587 420 592.5 430 c 128,-1,14
 598 440 598 440 607.5 447 c 128,-1,15
 617 454 617 454 632 454 c 256,16,17
 647 454 647 454 657.5 448 c 128,-1,18
 668 442 668 442 674.5 433 c 128,-1,19
 681 424 681 424 684.5 413 c 128,-1,20
 688 402 688 402 688 392 c 2,21,-1
 688 32 l 2,22,23
 688 16 688 16 672 6 c 128,-1,24
 656 -4 656 -4 632 -4 c 256,7,8
600 359 m 0,25,26
 603 359 603 359 604 365 c 128,-1,27
 605 371 605 371 605 379.5 c 128,-1,28
 605 388 605 388 605.5 397.5 c 128,-1,29
 606 407 606 407 608 413 c 0,30,31
 609 417 609 417 611 424 c 128,-1,32
 613 431 613 431 610 431 c 0,33,34
 605 431 605 431 601.5 425.5 c 128,-1,35
 598 420 598 420 595.5 412.5 c 128,-1,36
 593 405 593 405 592 396.5 c 128,-1,37
 591 388 591 388 591 383 c 0,38,39
 591 376 591 376 593 367.5 c 128,-1,40
 595 359 595 359 600 359 c 0,25,26
EndSplineSet
EndChar

StartChar: J
Encoding: 74 74 50
Width: 1274
Flags: W
LayerCount: 2
Fore
SplineSet
640 -8 m 0,0,1
 595 -8 595 -8 563 4.5 c 128,-1,2
 531 17 531 17 511 38.5 c 128,-1,3
 491 60 491 60 482 88.5 c 128,-1,4
 473 117 473 117 473 149 c 0,5,6
 473 203 473 203 486 221.5 c 128,-1,7
 499 240 499 240 515 240 c 0,8,9
 523 240 523 240 532 238 c 128,-1,10
 541 236 541 236 549 230.5 c 128,-1,11
 557 225 557 225 562 215 c 128,-1,12
 567 205 567 205 567 188 c 0,13,14
 567 172 567 172 568.5 153 c 128,-1,15
 570 134 570 134 575.5 118 c 128,-1,16
 581 102 581 102 592 91.5 c 128,-1,17
 603 81 603 81 623 81 c 0,18,19
 641 81 641 81 653 86 c 128,-1,20
 665 91 665 91 672.5 104.5 c 128,-1,21
 680 118 680 118 683 141 c 128,-1,22
 686 164 686 164 686 199 c 0,23,24
 686 237 686 237 686.5 290 c 128,-1,25
 687 343 687 343 687 412 c 2,26,-1
 687 517 l 2,27,28
 687 525 687 525 679.5 530.5 c 128,-1,29
 672 536 672 536 664 536 c 2,30,-1
 623 536 l 2,31,32
 569 536 569 536 546.5 546 c 128,-1,33
 524 556 524 556 524 579 c 0,34,35
 524 594 524 594 532 601.5 c 128,-1,36
 540 609 540 609 558 612 c 128,-1,37
 576 615 576 615 605 615.5 c 128,-1,38
 634 616 634 616 676 616 c 0,39,40
 736 616 736 616 765.5 609 c 128,-1,41
 795 602 795 602 800 584 c 0,42,43
 801 581 801 581 801 558.5 c 128,-1,44
 801 536 801 536 801 502.5 c 128,-1,45
 801 469 801 469 800.5 429.5 c 128,-1,46
 800 390 800 390 800 353 c 0,47,48
 799 289 799 289 799 247 c 128,-1,49
 799 205 799 205 798.5 177 c 128,-1,50
 798 149 798 149 795.5 129.5 c 128,-1,51
 793 110 793 110 788 90 c 0,52,53
 781 65 781 65 765 46.5 c 128,-1,54
 749 28 749 28 728 16 c 128,-1,55
 707 4 707 4 684 -2 c 128,-1,56
 661 -8 661 -8 640 -8 c 0,0,1
580 594 m 0,57,58
 582 599 582 599 578 600 c 0,59,60
 571 602 571 602 557.5 598 c 128,-1,61
 544 594 544 594 542 587 c 0,62,63
 541 584 541 584 542 580.5 c 128,-1,64
 543 577 543 577 545 576 c 0,65,66
 553 574 553 574 565.5 581 c 128,-1,67
 578 588 578 588 580 594 c 0,57,58
494 144 m 0,68,69
 499 145 499 145 500.5 157 c 128,-1,70
 502 169 502 169 503 173 c 0,71,72
 505 183 505 183 507.5 194 c 128,-1,73
 510 205 510 205 517 214 c 0,74,75
 522 219 522 219 521 223 c 0,76,77
 521 225 521 225 519 226.5 c 128,-1,78
 517 228 517 228 515 227 c 0,79,80
 506 226 506 226 500 217 c 128,-1,81
 494 208 494 208 491 197 c 128,-1,82
 488 186 488 186 487 176 c 128,-1,83
 486 166 486 166 486 163 c 0,84,85
 487 155 487 155 489 149 c 128,-1,86
 491 143 491 143 494 144 c 0,68,69
EndSplineSet
EndChar

StartChar: K
Encoding: 75 75 51
Width: 1274
Flags: W
LayerCount: 2
Fore
SplineSet
588.5 575 m 0,0,1
 548.5 575 548.5 575 520 603 c 128,-1,2
 491.5 631 491.5 631 491.5 675 c 0,3,4
 491.5 699 491.5 699 500 720.5 c 128,-1,5
 508.5 742 508.5 742 523.5 757.5 c 128,-1,6
 538.5 773 538.5 773 559.5 782.5 c 128,-1,7
 580.5 792 580.5 792 605.5 792 c 0,8,9
 625.5 792 625.5 792 642.5 783.5 c 128,-1,10
 659.5 775 659.5 775 671.5 760 c 128,-1,11
 683.5 745 683.5 745 690 726 c 128,-1,12
 696.5 707 696.5 707 696.5 686 c 0,13,14
 696.5 659 696.5 659 688 638.5 c 128,-1,15
 679.5 618 679.5 618 664.5 604 c 128,-1,16
 649.5 590 649.5 590 630 582.5 c 128,-1,17
 610.5 575 610.5 575 588.5 575 c 0,0,1
551.5 748 m 0,18,19
 558.5 755 558.5 755 560 760 c 128,-1,20
 561.5 765 561.5 765 559.5 765 c 0,21,22
 551.5 765 551.5 765 542.5 757.5 c 128,-1,23
 533.5 750 533.5 750 526 739.5 c 128,-1,24
 518.5 729 518.5 729 513.5 717 c 128,-1,25
 508.5 705 508.5 705 508.5 695 c 0,26,27
 508.5 693 508.5 693 510 687 c 128,-1,28
 511.5 681 511.5 681 514.5 681 c 0,29,30
 518.5 681 518.5 681 524.5 703 c 0,31,32
 527.5 717 527.5 717 535.5 728.5 c 128,-1,33
 543.5 740 543.5 740 551.5 748 c 0,18,19
592.5 632 m 0,34,35
 604.5 632 604.5 632 621 646 c 128,-1,36
 637.5 660 637.5 660 637.5 686 c 0,37,38
 637.5 706 637.5 706 627 719.5 c 128,-1,39
 616.5 733 616.5 733 599.5 733 c 256,40,41
 582.5 733 582.5 733 568.5 719.5 c 128,-1,42
 554.5 706 554.5 706 554.5 682 c 256,43,44
 554.5 658 554.5 658 565.5 645 c 128,-1,45
 576.5 632 576.5 632 592.5 632 c 0,34,35
503.5 0 m 0,46,47
 482.5 0 482.5 0 472.5 11 c 128,-1,48
 462.5 22 462.5 22 459 38.5 c 128,-1,49
 455.5 55 455.5 55 455.5 73 c 128,-1,50
 455.5 91 455.5 91 455.5 105 c 2,51,-1
 455.5 204 l 1,52,-1
 454.5 402 l 1,53,-1
 454.5 428 l 2,54,55
 454.5 455 454.5 455 456.5 476 c 128,-1,56
 458.5 497 458.5 497 464.5 512 c 128,-1,57
 470.5 527 470.5 527 482 535 c 128,-1,58
 493.5 543 493.5 543 513.5 543 c 0,59,60
 536.5 543 536.5 543 554 524.5 c 128,-1,61
 571.5 506 571.5 506 571.5 476 c 0,62,63
 571.5 471 571.5 471 571 456 c 128,-1,64
 570.5 441 570.5 441 570.5 421 c 2,65,-1
 570.5 429 l 1,66,-1
 570.5 410 l 2,67,68
 570.5 391 570.5 391 572 379 c 128,-1,69
 573.5 367 573.5 367 575.5 367 c 0,70,71
 579.5 367 579.5 367 591 385.5 c 128,-1,72
 602.5 404 602.5 404 618 431.5 c 128,-1,73
 633.5 459 633.5 459 651.5 491.5 c 128,-1,74
 669.5 524 669.5 524 687.5 551.5 c 128,-1,75
 705.5 579 705.5 579 722 597.5 c 128,-1,76
 738.5 616 738.5 616 749.5 616 c 0,77,78
 758.5 616 758.5 616 769.5 613 c 128,-1,79
 780.5 610 780.5 610 789.5 604 c 128,-1,80
 798.5 598 798.5 598 804.5 589 c 128,-1,81
 810.5 580 810.5 580 810.5 567 c 0,82,83
 810.5 559 810.5 559 799.5 537.5 c 128,-1,84
 788.5 516 788.5 516 772.5 489 c 128,-1,85
 756.5 462 756.5 462 737.5 432 c 128,-1,86
 718.5 402 718.5 402 702.5 376.5 c 128,-1,87
 686.5 351 686.5 351 675.5 333.5 c 128,-1,88
 664.5 316 664.5 316 664.5 313 c 0,89,90
 664.5 309 664.5 309 676 290 c 128,-1,91
 687.5 271 687.5 271 704.5 245 c 128,-1,92
 721.5 219 721.5 219 742 188.5 c 128,-1,93
 762.5 158 762.5 158 779.5 130 c 128,-1,94
 796.5 102 796.5 102 808 80 c 128,-1,95
 819.5 58 819.5 58 819.5 48 c 0,96,97
 819.5 35 819.5 35 811 26 c 128,-1,98
 802.5 17 802.5 17 790.5 11 c 128,-1,99
 778.5 5 778.5 5 766.5 2 c 128,-1,100
 754.5 -1 754.5 -1 746.5 -1 c 0,101,102
 732.5 -1 732.5 -1 717.5 17.5 c 128,-1,103
 702.5 36 702.5 36 690.5 57 c 0,104,105
 686.5 64 686.5 64 678 80.5 c 128,-1,106
 669.5 97 669.5 97 658 118 c 128,-1,107
 646.5 139 646.5 139 634 161.5 c 128,-1,108
 621.5 184 621.5 184 610 203 c 128,-1,109
 598.5 222 598.5 222 590 234 c 128,-1,110
 581.5 246 581.5 246 577.5 246 c 0,111,112
 569.5 246 569.5 246 569.5 234.5 c 128,-1,113
 569.5 223 569.5 223 569.5 215 c 2,114,-1
 569.5 164 l 1,115,-1
 570.5 125 l 1,116,-1
 570.5 102 l 2,117,118
 570.5 51 570.5 51 554.5 25.5 c 128,-1,119
 538.5 0 538.5 0 503.5 0 c 0,46,47
473.5 488 m 0,120,121
 478.5 487 478.5 487 483 491 c 128,-1,122
 487.5 495 487.5 495 491 500.5 c 128,-1,123
 494.5 506 494.5 506 497.5 512.5 c 128,-1,124
 500.5 519 500.5 519 501.5 523 c 0,125,126
 502.5 526 502.5 526 499.5 528.5 c 128,-1,127
 496.5 531 496.5 531 493.5 531 c 0,128,129
 489.5 531 489.5 531 485.5 526 c 128,-1,130
 481.5 521 481.5 521 478 514.5 c 128,-1,131
 474.5 508 474.5 508 472.5 501.5 c 128,-1,132
 470.5 495 470.5 495 470.5 492 c 0,133,134
 470.5 488 470.5 488 473.5 488 c 0,120,121
723.5 558 m 0,135,136
 726.5 558 726.5 558 732.5 562.5 c 128,-1,137
 738.5 567 738.5 567 744.5 573 c 128,-1,138
 750.5 579 750.5 579 754.5 585.5 c 128,-1,139
 758.5 592 758.5 592 757.5 596 c 0,140,141
 757.5 600 757.5 600 753.5 600 c 0,142,143
 750.5 601 750.5 601 744 596.5 c 128,-1,144
 737.5 592 737.5 592 731 585.5 c 128,-1,145
 724.5 579 724.5 579 720 573 c 128,-1,146
 715.5 567 715.5 567 716.5 564 c 0,147,148
 718.5 559 718.5 559 723.5 558 c 0,135,136
488.5 70 m 0,149,150
 488.5 74 488.5 74 488.5 84.5 c 128,-1,151
 488.5 95 488.5 95 487.5 106 c 128,-1,152
 486.5 117 486.5 117 484.5 125.5 c 128,-1,153
 482.5 134 482.5 134 478.5 134 c 0,154,155
 475.5 134 475.5 134 473 129 c 128,-1,156
 470.5 124 470.5 124 469.5 117 c 128,-1,157
 468.5 110 468.5 110 468 103.5 c 128,-1,158
 467.5 97 467.5 97 467.5 95 c 0,159,160
 467.5 91 467.5 91 467.5 82.5 c 128,-1,161
 467.5 74 467.5 74 469 65 c 128,-1,162
 470.5 56 470.5 56 473.5 49.5 c 128,-1,163
 476.5 43 476.5 43 482.5 43 c 0,164,165
 484.5 43 484.5 43 486 47 c 128,-1,166
 487.5 51 487.5 51 488 55.5 c 128,-1,167
 488.5 60 488.5 60 488.5 64.5 c 128,-1,168
 488.5 69 488.5 69 488.5 70 c 0,149,150
749.5 21 m 0,169,170
 749.5 24 749.5 24 746.5 30.5 c 128,-1,171
 743.5 37 743.5 37 739 43 c 128,-1,172
 734.5 49 734.5 49 729.5 54 c 128,-1,173
 724.5 59 724.5 59 721.5 59 c 0,174,175
 719.5 59 719.5 59 718.5 55.5 c 128,-1,176
 717.5 52 717.5 52 717.5 50 c 0,177,178
 717.5 47 717.5 47 720 41 c 128,-1,179
 722.5 35 722.5 35 726 29 c 128,-1,180
 729.5 23 729.5 23 734.5 19 c 128,-1,181
 739.5 15 739.5 15 743.5 15 c 0,182,183
 749.5 15 749.5 15 749.5 21 c 0,169,170
498.5 25 m 0,184,185
 500.5 29 500.5 29 497.5 32.5 c 128,-1,186
 494.5 36 494.5 36 490.5 36 c 0,187,188
 485.5 36 485.5 36 483 32.5 c 128,-1,189
 480.5 29 480.5 29 482.5 25 c 0,190,191
 484.5 17 484.5 17 490.5 17 c 256,192,193
 496.5 17 496.5 17 498.5 25 c 0,184,185
EndSplineSet
EndChar

StartChar: L
Encoding: 76 76 52
Width: 1274
Flags: W
LayerCount: 2
Fore
SplineSet
655 569 m 0,0,1
 615 569 615 569 586.5 597 c 128,-1,2
 558 625 558 625 558 669 c 0,3,4
 558 693 558 693 566.5 714.5 c 128,-1,5
 575 736 575 736 590 751.5 c 128,-1,6
 605 767 605 767 626 776.5 c 128,-1,7
 647 786 647 786 672 786 c 0,8,9
 692 786 692 786 709 777.5 c 128,-1,10
 726 769 726 769 738 754 c 128,-1,11
 750 739 750 739 756.5 720 c 128,-1,12
 763 701 763 701 763 680 c 0,13,14
 763 653 763 653 754.5 632.5 c 128,-1,15
 746 612 746 612 731 598 c 128,-1,16
 716 584 716 584 696.5 576.5 c 128,-1,17
 677 569 677 569 655 569 c 0,0,1
618 742 m 0,18,19
 625 749 625 749 626.5 754 c 128,-1,20
 628 759 628 759 626 759 c 0,21,22
 618 759 618 759 609 751.5 c 128,-1,23
 600 744 600 744 592.5 733.5 c 128,-1,24
 585 723 585 723 580 711 c 128,-1,25
 575 699 575 699 575 689 c 0,26,27
 575 687 575 687 576.5 681 c 128,-1,28
 578 675 578 675 581 675 c 0,29,30
 585 675 585 675 591 697 c 0,31,32
 594 711 594 711 602 722.5 c 128,-1,33
 610 734 610 734 618 742 c 0,18,19
659 626 m 0,34,35
 671 626 671 626 687.5 640 c 128,-1,36
 704 654 704 654 704 680 c 0,37,38
 704 700 704 700 693.5 713.5 c 128,-1,39
 683 727 683 727 666 727 c 256,40,41
 649 727 649 727 635 713.5 c 128,-1,42
 621 700 621 700 621 676 c 256,43,44
 621 652 621 652 632 639 c 128,-1,45
 643 626 643 626 659 626 c 0,34,35
528 0 m 2,46,47
 517 0 517 0 508.5 8 c 128,-1,48
 500 16 500 16 500 27 c 2,49,-1
 500 492 l 2,50,51
 500 503 500 503 501.5 514 c 128,-1,52
 503 525 503 525 509 534 c 128,-1,53
 515 543 515 543 526.5 549 c 128,-1,54
 538 555 538 555 558 555 c 0,55,56
 581 555 581 555 597.5 537 c 128,-1,57
 614 519 614 519 614 499 c 2,58,-1
 614 121 l 2,59,60
 614 103 614 103 621 98.5 c 128,-1,61
 628 94 628 94 637 94 c 0,62,63
 654 94 654 94 667.5 94.5 c 128,-1,64
 681 95 681 95 693.5 95.5 c 128,-1,65
 706 96 706 96 719.5 96.5 c 128,-1,66
 733 97 733 97 750 97 c 0,67,68
 764 97 764 97 769 82.5 c 128,-1,69
 774 68 774 68 774 54 c 0,70,71
 774 34 774 34 761.5 16.5 c 128,-1,72
 749 -1 749 -1 735 -1 c 2,73,-1
 688 -1 l 1,74,-1
 605 0 l 1,75,-1
 528 0 l 2,46,47
518 488 m 0,76,77
 521 488 521 488 525.5 494.5 c 128,-1,78
 530 501 530 501 534.5 510 c 128,-1,79
 539 519 539 519 542.5 527 c 128,-1,80
 546 535 546 535 546 538 c 0,81,82
 546 543 546 543 538 543 c 0,83,84
 533 543 533 543 528 536.5 c 128,-1,85
 523 530 523 530 519.5 522 c 128,-1,86
 516 514 516 514 514 506 c 128,-1,87
 512 498 512 498 513 494 c 0,88,89
 513 488 513 488 518 488 c 0,76,77
529 59 m 0,90,91
 534 59 534 59 536 70 c 128,-1,92
 538 81 538 81 539 96.5 c 128,-1,93
 540 112 540 112 539.5 128.5 c 128,-1,94
 539 145 539 145 539 155 c 0,95,96
 539 159 539 159 538.5 165 c 128,-1,97
 538 171 538 171 536.5 177 c 128,-1,98
 535 183 535 183 532.5 187 c 128,-1,99
 530 191 530 191 525 191 c 0,100,101
 522 191 522 191 520.5 182.5 c 128,-1,102
 519 174 519 174 518 163 c 128,-1,103
 517 152 517 152 517 142.5 c 128,-1,104
 517 133 517 133 517 130 c 256,105,106
 517 127 517 127 517.5 115.5 c 128,-1,107
 518 104 518 104 519.5 91.5 c 128,-1,108
 521 79 521 79 523 69 c 128,-1,109
 525 59 525 59 529 59 c 0,90,91
546 30 m 0,110,111
 546 41 546 41 539 41 c 0,112,113
 529 41 529 41 529 30 c 0,114,115
 529 22 529 22 537 22 c 0,116,117
 540 22 540 22 543 24 c 128,-1,118
 546 26 546 26 546 30 c 0,110,111
EndSplineSet
EndChar

StartChar: M
Encoding: 77 77 53
Width: 1274
Flags: W
LayerCount: 2
Fore
SplineSet
660.5 599 m 0,0,1
 620.5 599 620.5 599 592 627 c 128,-1,2
 563.5 655 563.5 655 563.5 699 c 0,3,4
 563.5 723 563.5 723 572 744.5 c 128,-1,5
 580.5 766 580.5 766 595.5 781.5 c 128,-1,6
 610.5 797 610.5 797 631.5 806.5 c 128,-1,7
 652.5 816 652.5 816 677.5 816 c 0,8,9
 697.5 816 697.5 816 714.5 807.5 c 128,-1,10
 731.5 799 731.5 799 743.5 784 c 128,-1,11
 755.5 769 755.5 769 762 750 c 128,-1,12
 768.5 731 768.5 731 768.5 710 c 0,13,14
 768.5 683 768.5 683 760 662.5 c 128,-1,15
 751.5 642 751.5 642 736.5 628 c 128,-1,16
 721.5 614 721.5 614 702 606.5 c 128,-1,17
 682.5 599 682.5 599 660.5 599 c 0,0,1
623.5 772 m 0,18,19
 630.5 779 630.5 779 632 784 c 128,-1,20
 633.5 789 633.5 789 631.5 789 c 0,21,22
 623.5 789 623.5 789 614.5 781.5 c 128,-1,23
 605.5 774 605.5 774 598 763.5 c 128,-1,24
 590.5 753 590.5 753 585.5 741 c 128,-1,25
 580.5 729 580.5 729 580.5 719 c 0,26,27
 580.5 717 580.5 717 582 711 c 128,-1,28
 583.5 705 583.5 705 586.5 705 c 0,29,30
 590.5 705 590.5 705 596.5 727 c 0,31,32
 599.5 741 599.5 741 607.5 752.5 c 128,-1,33
 615.5 764 615.5 764 623.5 772 c 0,18,19
664.5 656 m 0,34,35
 676.5 656 676.5 656 693 670 c 128,-1,36
 709.5 684 709.5 684 709.5 710 c 0,37,38
 709.5 730 709.5 730 699 743.5 c 128,-1,39
 688.5 757 688.5 757 671.5 757 c 256,40,41
 654.5 757 654.5 757 640.5 743.5 c 128,-1,42
 626.5 730 626.5 730 626.5 706 c 256,43,44
 626.5 682 626.5 682 637.5 669 c 128,-1,45
 648.5 656 648.5 656 664.5 656 c 0,34,35
412.5 0 m 0,46,47
 397.5 0 397.5 0 388.5 5.5 c 128,-1,48
 379.5 11 379.5 11 375 20 c 128,-1,49
 370.5 29 370.5 29 369 40.5 c 128,-1,50
 367.5 52 367.5 52 367.5 65 c 2,51,-1
 367.5 496 l 2,52,53
 367.5 507 367.5 507 368 520 c 128,-1,54
 368.5 533 368.5 533 372.5 544 c 128,-1,55
 376.5 555 376.5 555 385.5 562.5 c 128,-1,56
 394.5 570 394.5 570 410.5 570 c 0,57,58
 430.5 570 430.5 570 440.5 555.5 c 128,-1,59
 450.5 541 450.5 541 455 523 c 128,-1,60
 459.5 505 459.5 505 460.5 490.5 c 128,-1,61
 461.5 476 461.5 476 463.5 476 c 256,62,63
 465.5 476 465.5 476 469.5 491.5 c 128,-1,64
 473.5 507 473.5 507 484 525 c 128,-1,65
 494.5 543 494.5 543 513.5 558.5 c 128,-1,66
 532.5 574 532.5 574 565.5 574 c 0,67,68
 593.5 574 593.5 574 611.5 559 c 128,-1,69
 629.5 544 629.5 544 640.5 525.5 c 128,-1,70
 651.5 507 651.5 507 657.5 492 c 128,-1,71
 663.5 477 663.5 477 666.5 477 c 256,72,73
 669.5 477 669.5 477 675 492 c 128,-1,74
 680.5 507 680.5 507 691.5 525.5 c 128,-1,75
 702.5 544 702.5 544 722 559 c 128,-1,76
 741.5 574 741.5 574 773.5 574 c 0,77,78
 814.5 574 814.5 574 840.5 554 c 128,-1,79
 866.5 534 866.5 534 881 498.5 c 128,-1,80
 895.5 463 895.5 463 901 414.5 c 128,-1,81
 906.5 366 906.5 366 906.5 310 c 2,82,-1
 906.5 27 l 2,83,84
 906.5 13 906.5 13 887.5 6.5 c 128,-1,85
 868.5 0 868.5 0 848.5 0 c 256,86,87
 828.5 0 828.5 0 817.5 5.5 c 128,-1,88
 806.5 11 806.5 11 806.5 26 c 2,89,-1
 806.5 301 l 2,90,91
 806.5 313 806.5 313 806.5 341.5 c 128,-1,92
 806.5 370 806.5 370 802 400 c 128,-1,93
 797.5 430 797.5 430 787 452.5 c 128,-1,94
 776.5 475 776.5 475 755.5 475 c 0,95,96
 737.5 475 737.5 475 726 461 c 128,-1,97
 714.5 447 714.5 447 707.5 422.5 c 128,-1,98
 700.5 398 700.5 398 697 363.5 c 128,-1,99
 693.5 329 693.5 329 691.5 287 c 0,100,101
 688.5 238 688.5 238 687.5 211 c 128,-1,102
 686.5 184 686.5 184 687 141.5 c 128,-1,103
 687.5 99 687.5 99 688 69.5 c 128,-1,104
 688.5 40 688.5 40 688.5 31 c 0,105,106
 688.5 17 688.5 17 672 8.5 c 128,-1,107
 655.5 0 655.5 0 631.5 0 c 256,108,109
 607.5 0 607.5 0 597.5 7 c 128,-1,110
 587.5 14 587.5 14 587.5 38 c 2,111,-1
 587.5 301 l 2,112,113
 587.5 312 587.5 312 587.5 341 c 128,-1,114
 587.5 370 587.5 370 583.5 400 c 128,-1,115
 579.5 430 579.5 430 569.5 453 c 128,-1,116
 559.5 476 559.5 476 539.5 476 c 0,117,118
 521.5 476 521.5 476 509 460.5 c 128,-1,119
 496.5 445 496.5 445 488.5 421 c 128,-1,120
 480.5 397 480.5 397 476 367 c 128,-1,121
 471.5 337 471.5 337 469.5 309 c 128,-1,122
 467.5 281 467.5 281 467 257 c 128,-1,123
 466.5 233 466.5 233 466.5 221 c 2,124,-1
 466.5 45 l 2,125,126
 466.5 26 466.5 26 450.5 13 c 128,-1,127
 434.5 0 434.5 0 412.5 0 c 0,46,47
391.5 476 m 0,128,129
 397.5 477 397.5 477 398 487.5 c 128,-1,130
 398.5 498 398.5 498 398.5 506 c 0,131,132
 398.5 513 398.5 513 400.5 521.5 c 128,-1,133
 402.5 530 402.5 530 404 537 c 128,-1,134
 405.5 544 405.5 544 405.5 549 c 128,-1,135
 405.5 554 405.5 554 401.5 554 c 0,136,137
 394.5 554 394.5 554 390 547.5 c 128,-1,138
 385.5 541 385.5 541 383.5 532 c 128,-1,139
 381.5 523 381.5 523 380.5 515 c 128,-1,140
 379.5 507 379.5 507 379.5 504 c 0,141,142
 379.5 496 379.5 496 381.5 485.5 c 128,-1,143
 383.5 475 383.5 475 391.5 476 c 0,128,129
622.5 23 m 0,144,145
 622.5 33 622.5 33 616 36.5 c 128,-1,146
 609.5 40 609.5 40 609.5 51 c 0,147,148
 609.5 53 609.5 53 609.5 58.5 c 128,-1,149
 609.5 64 609.5 64 609 69.5 c 128,-1,150
 608.5 75 608.5 75 606.5 79.5 c 128,-1,151
 604.5 84 604.5 84 601.5 84 c 0,152,153
 599.5 84 599.5 84 598.5 79.5 c 128,-1,154
 597.5 75 597.5 75 597 69 c 128,-1,155
 596.5 63 596.5 63 596.5 57.5 c 128,-1,156
 596.5 52 596.5 52 596.5 50 c 0,157,158
 596.5 38 596.5 38 600 24.5 c 128,-1,159
 603.5 11 603.5 11 613.5 11 c 0,160,161
 622.5 11 622.5 11 622.5 23 c 0,144,145
838.5 24 m 0,162,163
 838.5 34 838.5 34 833 41.5 c 128,-1,164
 827.5 49 827.5 49 827.5 60 c 0,165,166
 827.5 64 827.5 64 827 74 c 128,-1,167
 826.5 84 826.5 84 820.5 84 c 0,168,169
 815.5 84 815.5 84 815 73 c 128,-1,170
 814.5 62 814.5 62 814.5 59 c 256,171,172
 814.5 56 814.5 56 815 48 c 128,-1,173
 815.5 40 815.5 40 817.5 32.5 c 128,-1,174
 819.5 25 819.5 25 822.5 19 c 128,-1,175
 825.5 13 825.5 13 830.5 13 c 0,176,177
 834.5 13 834.5 13 836.5 17.5 c 128,-1,178
 838.5 22 838.5 22 838.5 24 c 0,162,163
410.5 24 m 0,179,180
 410.5 35 410.5 35 406 36 c 128,-1,181
 401.5 37 401.5 37 396.5 44 c 0,182,183
 395.5 46 395.5 46 395 51.5 c 128,-1,184
 394.5 57 394.5 57 394.5 62.5 c 128,-1,185
 394.5 68 394.5 68 393 72.5 c 128,-1,186
 391.5 77 391.5 77 388.5 77 c 0,187,188
 383.5 77 383.5 77 383 67.5 c 128,-1,189
 382.5 58 382.5 58 382.5 51 c 0,190,191
 382.5 47 382.5 47 383.5 41 c 128,-1,192
 384.5 35 384.5 35 387 29 c 128,-1,193
 389.5 23 389.5 23 393 18.5 c 128,-1,194
 396.5 14 396.5 14 401.5 14 c 0,195,196
 410.5 14 410.5 14 410.5 24 c 0,179,180
EndSplineSet
EndChar

StartChar: N
Encoding: 78 78 54
Width: 1274
Flags: W
LayerCount: 2
Fore
SplineSet
616.5 558 m 4,0,1
 576.5 558 576.5 558 548 586 c 132,-1,2
 519.5 614 519.5 614 519.5 658 c 4,3,4
 519.5 682 519.5 682 528 703.5 c 132,-1,5
 536.5 725 536.5 725 551.5 740.5 c 132,-1,6
 566.5 756 566.5 756 587.5 765.5 c 132,-1,7
 608.5 775 608.5 775 633.5 775 c 4,8,9
 653.5 775 653.5 775 670.5 766.5 c 132,-1,10
 687.5 758 687.5 758 699.5 743 c 132,-1,11
 711.5 728 711.5 728 718 709 c 132,-1,12
 724.5 690 724.5 690 724.5 669 c 4,13,14
 724.5 642 724.5 642 716 621.5 c 132,-1,15
 707.5 601 707.5 601 692.5 587 c 132,-1,16
 677.5 573 677.5 573 658 565.5 c 132,-1,17
 638.5 558 638.5 558 616.5 558 c 4,0,1
579.5 731 m 4,18,19
 586.5 738 586.5 738 588 743 c 132,-1,20
 589.5 748 589.5 748 587.5 748 c 4,21,22
 579.5 748 579.5 748 570.5 740.5 c 132,-1,23
 561.5 733 561.5 733 554 722.5 c 132,-1,24
 546.5 712 546.5 712 541.5 700 c 132,-1,25
 536.5 688 536.5 688 536.5 678 c 4,26,27
 536.5 676 536.5 676 538 670 c 132,-1,28
 539.5 664 539.5 664 542.5 664 c 4,29,30
 546.5 664 546.5 664 552.5 686 c 4,31,32
 555.5 700 555.5 700 563.5 711.5 c 132,-1,33
 571.5 723 571.5 723 579.5 731 c 4,18,19
620.5 615 m 4,34,35
 632.5 615 632.5 615 649 629 c 132,-1,36
 665.5 643 665.5 643 665.5 669 c 4,37,38
 665.5 689 665.5 689 655 702.5 c 132,-1,39
 644.5 716 644.5 716 627.5 716 c 260,40,41
 610.5 716 610.5 716 596.5 702.5 c 132,-1,42
 582.5 689 582.5 689 582.5 665 c 260,43,44
 582.5 641 582.5 641 593.5 628 c 132,-1,45
 604.5 615 604.5 615 620.5 615 c 4,34,35
508.5 0 m 0,46,47
 483.5 0 483.5 0 473.5 14.5 c 128,-1,48
 463.5 29 463.5 29 463.5 65 c 2,49,-1
 463.5 422 l 2,50,51
 463.5 466 463.5 466 473 481 c 128,-1,52
 482.5 496 482.5 496 511.5 496 c 0,53,54
 530.5 496 530.5 496 548.5 486.5 c 128,-1,55
 566.5 477 566.5 477 566.5 451 c 2,56,-1
 566.5 437 l 2,57,58
 566.5 397 566.5 397 570.5 397 c 256,59,60
 574.5 397 574.5 397 579.5 413 c 128,-1,61
 584.5 429 584.5 429 596.5 448.5 c 128,-1,62
 608.5 468 608.5 468 630.5 484 c 128,-1,63
 652.5 500 652.5 500 688.5 500 c 0,64,65
 752.5 500 752.5 500 781.5 437 c 128,-1,66
 810.5 374 810.5 374 810.5 236 c 2,67,-1
 810.5 31 l 2,68,69
 810.5 0 810.5 0 754.5 0 c 0,70,71
 727.5 0 727.5 0 715.5 11.5 c 128,-1,72
 703.5 23 703.5 23 703.5 34 c 2,73,-1
 703.5 227 l 2,74,75
 703.5 279 703.5 279 700.5 311 c 128,-1,76
 697.5 343 697.5 343 691.5 361 c 128,-1,77
 685.5 379 685.5 379 676 385.5 c 128,-1,78
 666.5 392 666.5 392 652.5 392 c 0,79,80
 631.5 392 631.5 392 616 372.5 c 128,-1,81
 600.5 353 600.5 353 590.5 320 c 128,-1,82
 580.5 287 580.5 287 576 242.5 c 128,-1,83
 571.5 198 571.5 198 571.5 147 c 2,84,-1
 571.5 45 l 2,85,86
 571.5 30 571.5 30 564 21 c 128,-1,87
 556.5 12 556.5 12 546.5 7.5 c 128,-1,88
 536.5 3 536.5 3 526 1.5 c 128,-1,89
 515.5 0 515.5 0 508.5 0 c 0,46,47
483.5 395 m 0,90,91
 486.5 395 486.5 395 488.5 407 c 128,-1,92
 490.5 419 490.5 419 492.5 434 c 128,-1,93
 494.5 449 494.5 449 495.5 461.5 c 128,-1,94
 496.5 474 496.5 474 496.5 475 c 0,95,96
 496.5 477 496.5 477 496 480 c 128,-1,97
 495.5 483 495.5 483 493.5 483 c 0,98,99
 488.5 483 488.5 483 485 475.5 c 128,-1,100
 481.5 468 481.5 468 479.5 458.5 c 128,-1,101
 477.5 449 477.5 449 476.5 439.5 c 128,-1,102
 475.5 430 475.5 430 475.5 427 c 0,103,104
 475.5 419 475.5 419 477.5 407 c 128,-1,105
 479.5 395 479.5 395 483.5 395 c 0,90,91
740.5 29 m 0,106,107
 740.5 35 740.5 35 738.5 38 c 128,-1,108
 736.5 41 736.5 41 734 43 c 128,-1,109
 731.5 45 731.5 45 729.5 49 c 128,-1,110
 727.5 53 727.5 53 727.5 60 c 0,111,112
 727.5 76 727.5 76 726 80 c 128,-1,113
 724.5 84 724.5 84 719.5 84 c 256,114,115
 714.5 84 714.5 84 713 76.5 c 128,-1,116
 711.5 69 711.5 69 711.5 59 c 0,117,118
 711.5 39 711.5 39 717.5 27 c 128,-1,119
 723.5 15 723.5 15 731.5 15 c 0,120,121
 734.5 15 734.5 15 737.5 18.5 c 128,-1,122
 740.5 22 740.5 22 740.5 29 c 0,106,107
507.5 26 m 0,123,124
 507.5 31 507.5 31 505 33.5 c 128,-1,125
 502.5 36 502.5 36 499.5 38.5 c 128,-1,126
 496.5 41 496.5 41 494 45 c 128,-1,127
 491.5 49 491.5 49 491.5 56 c 0,128,129
 491.5 77 491.5 77 484.5 77 c 0,130,131
 482.5 77 482.5 77 480.5 69.5 c 128,-1,132
 478.5 62 478.5 62 478.5 51 c 0,133,134
 478.5 36 478.5 36 485 24 c 128,-1,135
 491.5 12 491.5 12 499.5 12 c 0,136,137
 501.5 12 501.5 12 504.5 16 c 128,-1,138
 507.5 20 507.5 20 507.5 26 c 0,123,124
EndSplineSet
EndChar

StartChar: O
Encoding: 79 79 55
Width: 1274
Flags: W
LayerCount: 2
Fore
SplineSet
510.5 341.5 m 0,0,1
 497.5 346 497.5 346 489 355 c 128,-1,2
 480.5 364 480.5 364 478 374 c 128,-1,3
 475.5 384 475.5 384 479 394.5 c 0,4,5
 483.5 406 483.5 406 492.5 411.5 c 0,6,7
 497.5 414 497.5 414 505 416.5 c 0,8,9
 512.5 418 512.5 418 526 420 c 128,-1,10
 539.5 422 539.5 422 559.5 422 c 0,11,12
 619.5 422 619.5 422 650.5 422.5 c 0,13,14
 722.5 422 722.5 422 747.5 421 c 128,-1,15
 772.5 420 772.5 420 785 414.5 c 0,16,17
 797.5 410 797.5 410 800.5 400.5 c 0,18,19
 803.5 392 803.5 392 803.5 376.5 c 0,20,21
 803.5 364 803.5 364 798 357 c 128,-1,22
 792.5 350 792.5 350 778.5 345 c 128,-1,23
 764.5 340 764.5 340 740.5 338.5 c 0,24,25
 716.5 336 716.5 336 650.5 336.5 c 0,26,27
 572.5 336 572.5 336 544 338 c 128,-1,28
 515.5 340 515.5 340 510.5 341.5 c 0,0,1
518.5 402.5 m 0,29,30
 518.5 404 518.5 404 516 406 c 0,31,32
 514.5 407 514.5 407 509.5 404.5 c 128,-1,33
 504.5 402 504.5 402 502 392.5 c 0,34,35
 499.5 384 499.5 384 499.5 376.5 c 256,36,37
 499.5 370 499.5 370 501.5 369.5 c 0,38,39
 504.5 370 504.5 370 509.5 382.5 c 0,40,41
 515.5 396 515.5 396 515.5 396.5 c 0,42,43
 518.5 399 518.5 399 518.5 402.5 c 0,29,30
508.5 180.5 m 0,44,45
 489.5 184 489.5 184 480 198 c 128,-1,46
 470.5 212 470.5 212 477.5 226.5 c 0,47,48
 482.5 236 482.5 236 490 240.5 c 0,49,50
 497.5 246 497.5 246 513 248 c 0,51,52
 536.5 251 536.5 251 553.5 251 c 0,53,54
 617.5 251 617.5 251 671 251.5 c 128,-1,55
 724.5 252 724.5 252 750 250 c 128,-1,56
 775.5 248 775.5 248 789.5 245 c 128,-1,57
 803.5 242 803.5 242 809 235 c 128,-1,58
 814.5 228 814.5 228 814.5 217.5 c 0,59,60
 814.5 204 814.5 204 808.5 195.5 c 0,61,62
 802.5 186 802.5 186 787 181.5 c 0,63,64
 771.5 176 771.5 176 745.5 174 c 0,65,66
 708.5 171 708.5 171 651.5 171.5 c 0,67,68
 573.5 172 573.5 172 545 175 c 128,-1,69
 516.5 178 516.5 178 508.5 180.5 c 0,44,45
511.5 229.5 m 0,70,71
 511.5 232 511.5 232 508.5 232.5 c 256,72,73
 505.5 232 505.5 232 504.5 231.5 c 0,74,75
 502.5 230 502.5 230 499.5 226 c 128,-1,76
 496.5 222 496.5 222 496.5 214.5 c 0,77,78
 496.5 206 496.5 206 498 204.5 c 0,79,80
 499.5 204 499.5 204 504.5 208.5 c 0,81,82
 508.5 212 508.5 212 510 218.5 c 0,83,84
 511.5 224 511.5 224 511.5 229.5 c 0,70,71
634.5 -10 m 0,85,86
 562.5 -10 562.5 -10 509 17.5 c 128,-1,87
 455.5 45 455.5 45 420.5 88.5 c 128,-1,88
 385.5 132 385.5 132 368 186 c 128,-1,89
 350.5 240 350.5 240 350.5 294 c 0,90,91
 350.5 360 350.5 360 370.5 416 c 128,-1,92
 390.5 472 390.5 472 428 512.5 c 128,-1,93
 465.5 553 465.5 553 519.5 576 c 128,-1,94
 573.5 599 573.5 599 640.5 599 c 0,95,96
 702.5 599 702.5 599 754.5 576.5 c 128,-1,97
 806.5 554 806.5 554 844 514.5 c 128,-1,98
 881.5 475 881.5 475 902.5 420.5 c 128,-1,99
 923.5 366 923.5 366 923.5 303 c 0,100,101
 923.5 239 923.5 239 902 182 c 128,-1,102
 880.5 125 880.5 125 842 82.5 c 128,-1,103
 803.5 40 803.5 40 750.5 15 c 128,-1,104
 697.5 -10 697.5 -10 634.5 -10 c 0,85,86
636.5 67 m 0,105,106
 737.5 67 737.5 67 789 130.5 c 128,-1,107
 840.5 194 840.5 194 840.5 303 c 0,108,109
 840.5 347 840.5 347 827 387.5 c 128,-1,110
 813.5 428 813.5 428 787.5 459 c 128,-1,111
 761.5 490 761.5 490 724.5 508.5 c 128,-1,112
 687.5 527 687.5 527 640.5 527 c 0,113,114
 595.5 527 595.5 527 558 509 c 128,-1,115
 520.5 491 520.5 491 493.5 461 c 128,-1,116
 466.5 431 466.5 431 451.5 391 c 128,-1,117
 436.5 351 436.5 351 436.5 306 c 256,118,119
 436.5 261 436.5 261 450 218 c 128,-1,120
 463.5 175 463.5 175 489 141.5 c 128,-1,121
 514.5 108 514.5 108 551.5 87.5 c 128,-1,122
 588.5 67 588.5 67 636.5 67 c 0,105,106
EndSplineSet

EndChar

StartChar: P
Encoding: 80 80 56
Width: 1274
Flags: W
LayerCount: 2
Fore
SplineSet
509 -14 m 0,0,1
 489 -14 489 -14 472 1 c 128,-1,2
 455 16 455 16 455 69 c 2,3,-1
 455 526 l 2,4,5
 455 547 455 547 463.5 564 c 128,-1,6
 472 581 472 581 486.5 592.5 c 128,-1,7
 501 604 501 604 519.5 610 c 128,-1,8
 538 616 538 616 558 616 c 2,9,-1
 617 616 l 2,10,11
 648 616 648 616 683.5 604 c 128,-1,12
 719 592 719 592 749 566 c 128,-1,13
 779 540 779 540 799 498 c 128,-1,14
 819 456 819 456 819 397 c 256,15,16
 819 338 819 338 799.5 291.5 c 128,-1,17
 780 245 780 245 751 213.5 c 128,-1,18
 722 182 722 182 688 165.5 c 128,-1,19
 654 149 654 149 624 149 c 2,20,-1
 595 149 l 2,21,22
 586 149 586 149 577.5 145 c 128,-1,23
 569 141 569 141 569 132 c 2,24,-1
 569 65 l 2,25,26
 569 33 569 33 563.5 21 c 128,-1,27
 558 9 558 9 549 1 c 128,-1,28
 540 -7 540 -7 529.5 -10.5 c 128,-1,29
 519 -14 519 -14 509 -14 c 0,0,1
613 238 m 2,30,31
 630 238 630 238 646 246 c 128,-1,32
 662 254 662 254 675.5 271.5 c 128,-1,33
 689 289 689 289 697 317 c 128,-1,34
 705 345 705 345 705 385 c 0,35,36
 705 428 705 428 697 456.5 c 128,-1,37
 689 485 689 485 676 501.5 c 128,-1,38
 663 518 663 518 647 525 c 128,-1,39
 631 532 631 532 616 532 c 2,40,-1
 594 532 l 2,41,42
 569 532 569 532 569 498 c 2,43,-1
 569 261 l 2,44,45
 569 238 569 238 600 238 c 2,46,-1
 613 238 l 2,30,31
495 21 m 256,47,48
 490 26 490 26 486.5 39 c 128,-1,49
 483 52 483 52 483 78.5 c 128,-1,50
 483 105 483 105 476 105 c 0,51,52
 471 105 471 105 469.5 96.5 c 128,-1,53
 468 88 468 88 468 76 c 0,54,55
 468 38 468 38 475 22 c 128,-1,56
 482 6 482 6 492 6 c 0,57,58
 494 6 494 6 497 8 c 128,-1,59
 500 10 500 10 500 12 c 0,60,61
 500 16 500 16 495 21 c 256,47,48
EndSplineSet

EndChar

StartChar: Q
Encoding: 81 81 57
Width: 1274
Flags: W
LayerCount: 2
Fore
SplineSet
643 616 m 0,0,1
 602 616 602 616 569 601 c 2,2,3
 569 601 569 601 536 585 c 1,4,-1
 492 537 l 1,5,6
 460 492 460 492 444 432.5 c 128,-1,7
 428 373 428 373 428 311 c 0,8,9
 428 255 428 255 440 196.5 c 128,-1,10
 452 138 452 138 478 90.5 c 128,-1,11
 504 43 504 43 545 12.5 c 128,-1,12
 586 -18 586 -18 644 -18 c 0,13,14
 681 -18 681 -18 712 -4 c 1,15,16
 720 -22 720 -22 732.5 -40.5 c 128,-1,17
 745 -59 745 -59 768 -59 c 0,18,19
 775 -59 775 -59 783.5 -56.5 c 128,-1,20
 792 -54 792 -54 799.5 -49.5 c 128,-1,21
 807 -45 807 -45 812 -39 c 128,-1,22
 817 -33 817 -33 817 -26 c 0,23,24
 817 -18 817 -18 808 8.5 c 128,-1,25
 799 35 799 35 787 65 c 1,26,27
 817 112 817 112 831.5 177.5 c 128,-1,28
 846 243 846 243 846 316 c 0,29,30
 846 371 846 371 834 425 c 128,-1,31
 822 479 822 479 797.5 521.5 c 128,-1,32
 773 564 773 564 734.5 590 c 128,-1,33
 696 616 696 616 643 616 c 0,0,1
491 139 m 0,34,35
 494 139 494 139 498 133.5 c 128,-1,36
 502 128 502 128 506.5 119.5 c 128,-1,37
 511 111 511 111 516.5 102 c 128,-1,38
 522 93 522 93 527 86 c 0,39,40
 549 57 549 57 568.5 40 c 128,-1,41
 588 23 588 23 588 18 c 0,42,43
 588 15 588 15 583 14 c 0,44,45
 571 14 571 14 554.5 28 c 128,-1,46
 538 42 538 42 523 61.5 c 128,-1,47
 508 81 508 81 497.5 101.5 c 128,-1,48
 487 122 487 122 487 134 c 0,49,50
 487 139 487 139 491 139 c 0,34,35
548 395 m 1,51,52
 564 354 564 354 581 312 c 128,-1,53
 598 270 598 270 614.5 229.5 c 128,-1,54
 631 189 631 189 646.5 151 c 128,-1,55
 662 113 662 113 675 81 c 1,56,57
 662 74 662 74 644 74 c 0,58,59
 613 74 613 74 593 102 c 128,-1,60
 573 130 573 130 561.5 168.5 c 128,-1,61
 550 207 550 207 546 247 c 128,-1,62
 542 287 542 287 542 311 c 0,63,64
 542 327 542 327 543.5 349 c 128,-1,65
 545 371 545 371 548 395 c 1,51,52
492 161 m 256,66,67
 492 153 492 153 485 151 c 0,68,69
 482 151 482 151 477 154.5 c 128,-1,70
 472 158 472 158 472 166 c 0,71,72
 472 175 472 175 480 175 c 0,73,74
 483 175 483 175 487.5 172 c 128,-1,75
 492 169 492 169 492 161 c 256,66,67
643 536 m 0,76,77
 673 536 673 536 691.5 513.5 c 128,-1,78
 710 491 710 491 720.5 457.5 c 128,-1,79
 731 424 731 424 735 384 c 128,-1,80
 739 344 739 344 739 308 c 0,81,82
 739 282 739 282 738 254 c 128,-1,83
 737 226 737 226 733 198 c 1,84,85
 723 224 723 224 708 262.5 c 128,-1,86
 693 301 693 301 675.5 344.5 c 128,-1,87
 658 388 658 388 639.5 434.5 c 128,-1,88
 621 481 621 481 603 523 c 1,89,90
 621 536 621 536 643 536 c 0,76,77
EndSplineSet

EndChar

StartChar: R
Encoding: 82 82 58
Width: 1274
Flags: W
LayerCount: 2
Fore
SplineSet
618.5 584 m 4,0,1
 578.5 584 578.5 584 550 612 c 132,-1,2
 521.5 640 521.5 640 521.5 684 c 4,3,4
 521.5 708 521.5 708 530 729.5 c 132,-1,5
 538.5 751 538.5 751 553.5 766.5 c 132,-1,6
 568.5 782 568.5 782 589.5 791.5 c 132,-1,7
 610.5 801 610.5 801 635.5 801 c 4,8,9
 655.5 801 655.5 801 672.5 792.5 c 132,-1,10
 689.5 784 689.5 784 701.5 769 c 132,-1,11
 713.5 754 713.5 754 720 735 c 132,-1,12
 726.5 716 726.5 716 726.5 695 c 4,13,14
 726.5 668 726.5 668 718 647.5 c 132,-1,15
 709.5 627 709.5 627 694.5 613 c 132,-1,16
 679.5 599 679.5 599 660 591.5 c 132,-1,17
 640.5 584 640.5 584 618.5 584 c 4,0,1
581.5 757 m 4,18,19
 588.5 764 588.5 764 590 769 c 132,-1,20
 591.5 774 591.5 774 589.5 774 c 4,21,22
 581.5 774 581.5 774 572.5 766.5 c 132,-1,23
 563.5 759 563.5 759 556 748.5 c 132,-1,24
 548.5 738 548.5 738 543.5 726 c 132,-1,25
 538.5 714 538.5 714 538.5 704 c 4,26,27
 538.5 702 538.5 702 540 696 c 132,-1,28
 541.5 690 541.5 690 544.5 690 c 4,29,30
 548.5 690 548.5 690 554.5 712 c 4,31,32
 557.5 726 557.5 726 565.5 737.5 c 132,-1,33
 573.5 749 573.5 749 581.5 757 c 4,18,19
622.5 641 m 4,34,35
 634.5 641 634.5 641 651 655 c 132,-1,36
 667.5 669 667.5 669 667.5 695 c 4,37,38
 667.5 715 667.5 715 657 728.5 c 132,-1,39
 646.5 742 646.5 742 629.5 742 c 260,40,41
 612.5 742 612.5 742 598.5 728.5 c 132,-1,42
 584.5 715 584.5 715 584.5 691 c 260,43,44
 584.5 667 584.5 667 595.5 654 c 132,-1,45
 606.5 641 606.5 641 622.5 641 c 4,34,35
562.5 0 m 0,46,47
 537.5 0 537.5 0 527.5 17 c 128,-1,48
 517.5 34 517.5 34 517.5 64 c 2,49,-1
 517.5 451 l 2,50,51
 517.5 505 517.5 505 528.5 525 c 128,-1,52
 539.5 545 539.5 545 565.5 545 c 0,53,54
 588.5 545 588.5 545 602 526.5 c 128,-1,55
 615.5 508 615.5 508 615.5 473 c 0,56,57
 615.5 462 615.5 462 615.5 456.5 c 128,-1,58
 615.5 451 615.5 451 618.5 451 c 0,59,60
 620.5 451 620.5 451 621 454 c 128,-1,61
 621.5 457 621.5 457 623.5 461 c 0,62,63
 626.5 468 626.5 468 632 482 c 128,-1,64
 637.5 496 637.5 496 648 510 c 128,-1,65
 658.5 524 658.5 524 674.5 534.5 c 128,-1,66
 690.5 545 690.5 545 712.5 545 c 0,67,68
 732.5 545 732.5 545 744.5 533 c 128,-1,69
 756.5 521 756.5 521 756.5 502 c 0,70,71
 756.5 482 756.5 482 748 464.5 c 128,-1,72
 739.5 447 739.5 447 719.5 447 c 256,73,74
 699.5 447 699.5 447 682 428.5 c 128,-1,75
 664.5 410 664.5 410 652 381.5 c 128,-1,76
 639.5 353 639.5 353 632 319 c 128,-1,77
 624.5 285 624.5 285 624.5 254 c 2,78,-1
 624.5 55 l 2,79,80
 624.5 25 624.5 25 604.5 12.5 c 128,-1,81
 584.5 0 584.5 0 562.5 0 c 0,46,47
544.5 503 m 256,82,83
 545.5 507 545.5 507 547 511.5 c 128,-1,84
 548.5 516 548.5 516 549.5 520 c 128,-1,85
 550.5 524 550.5 524 550 526.5 c 128,-1,86
 549.5 529 549.5 529 545.5 529 c 0,87,88
 540.5 529 540.5 529 535.5 518.5 c 128,-1,89
 530.5 508 530.5 508 530.5 497 c 0,90,91
 530.5 476 530.5 476 537.5 476 c 0,92,93
 542.5 476 542.5 476 543 487.5 c 128,-1,94
 543.5 499 543.5 499 544.5 503 c 256,82,83
544.5 50 m 0,95,96
 541.5 62 541.5 62 540 71.5 c 128,-1,97
 538.5 81 538.5 81 535.5 81 c 0,98,99
 530.5 81 530.5 81 530.5 64 c 0,100,101
 530.5 46 530.5 46 535.5 32 c 128,-1,102
 540.5 18 540.5 18 547.5 18 c 0,103,104
 549.5 18 549.5 18 552 19 c 128,-1,105
 554.5 20 554.5 20 554.5 25 c 0,106,107
 554.5 28 554.5 28 550.5 34 c 128,-1,108
 546.5 40 546.5 40 544.5 50 c 0,95,96
EndSplineSet
EndChar

StartChar: S
Encoding: 83 83 59
Width: 1274
Flags: W
LayerCount: 2
Fore
SplineSet
647 622.5 m 4,0,1
 607 622.5 607 622.5 578.5 650.5 c 132,-1,2
 550 678.5 550 678.5 550 722.5 c 4,3,4
 550 746.5 550 746.5 558.5 768 c 132,-1,5
 567 789.5 567 789.5 582 805 c 132,-1,6
 597 820.5 597 820.5 618 830 c 132,-1,7
 639 839.5 639 839.5 664 839.5 c 4,8,9
 684 839.5 684 839.5 701 831 c 132,-1,10
 718 822.5 718 822.5 730 807.5 c 132,-1,11
 742 792.5 742 792.5 748.5 773.5 c 132,-1,12
 755 754.5 755 754.5 755 733.5 c 4,13,14
 755 706.5 755 706.5 746.5 686 c 132,-1,15
 738 665.5 738 665.5 723 651.5 c 132,-1,16
 708 637.5 708 637.5 688.5 630 c 132,-1,17
 669 622.5 669 622.5 647 622.5 c 4,0,1
610 795.5 m 4,18,19
 617 802.5 617 802.5 618.5 807.5 c 132,-1,20
 620 812.5 620 812.5 618 812.5 c 4,21,22
 610 812.5 610 812.5 601 805 c 132,-1,23
 592 797.5 592 797.5 584.5 787 c 132,-1,24
 577 776.5 577 776.5 572 764.5 c 132,-1,25
 567 752.5 567 752.5 567 742.5 c 4,26,27
 567 740.5 567 740.5 568.5 734.5 c 132,-1,28
 570 728.5 570 728.5 573 728.5 c 4,29,30
 577 728.5 577 728.5 583 750.5 c 4,31,32
 586 764.5 586 764.5 594 776 c 132,-1,33
 602 787.5 602 787.5 610 795.5 c 4,18,19
651 679.5 m 4,34,35
 663 679.5 663 679.5 679.5 693.5 c 132,-1,36
 696 707.5 696 707.5 696 733.5 c 4,37,38
 696 753.5 696 753.5 685.5 767 c 132,-1,39
 675 780.5 675 780.5 658 780.5 c 260,40,41
 641 780.5 641 780.5 627 767 c 132,-1,42
 613 753.5 613 753.5 613 729.5 c 260,43,44
 613 705.5 613 705.5 624 692.5 c 132,-1,45
 635 679.5 635 679.5 651 679.5 c 4,34,35
640 -46 m 4,46,47
 609 -46 609 -46 578 -32.5 c 132,-1,48
 547 -19 547 -19 522.5 6 c 132,-1,49
 498 31 498 31 483 68 c 132,-1,50
 468 105 468 105 468 151 c 4,51,52
 468 182 468 182 486 202 c 132,-1,53
 504 222 504 222 531 220 c 4,54,55
 548 219 548 219 555.5 207.5 c 132,-1,56
 563 196 563 196 563 170 c 4,57,58
 563 152 563 152 567.5 129 c 132,-1,59
 572 106 572 106 581 86 c 132,-1,60
 590 66 590 66 602.5 52.5 c 132,-1,61
 615 39 615 39 630 39 c 4,62,63
 694 39 694 39 694 104 c 4,64,65
 694 125 694 125 687.5 143 c 132,-1,66
 681 161 681 161 670.5 176 c 132,-1,67
 660 191 660 191 647 205 c 132,-1,68
 634 219 634 219 620 232 c 4,69,70
 548 304 548 304 517.5 352 c 132,-1,71
 487 400 487 400 487 440 c 4,72,73
 487 509 487 509 529.5 548 c 132,-1,74
 572 587 572 587 646 587 c 4,75,76
 680 587 680 587 708 572 c 132,-1,77
 736 557 736 557 756.5 533 c 132,-1,78
 777 509 777 509 788 479.5 c 132,-1,79
 799 450 799 450 799 422 c 4,80,81
 799 392 799 392 781.5 367.5 c 132,-1,82
 764 343 764 343 738 343 c 4,83,84
 726 343 726 343 712 353 c 132,-1,85
 698 363 698 363 698 380 c 4,86,87
 698 439 698 439 681 466.5 c 132,-1,88
 664 494 664 494 642 494 c 4,89,90
 600 494 600 494 600 446 c 4,91,92
 600 431 600 431 604 416.5 c 132,-1,93
 608 402 608 402 618.5 385 c 132,-1,94
 629 368 629 368 646.5 347.5 c 132,-1,95
 664 327 664 327 691 300 c 4,96,97
 724 267 724 267 746 241 c 132,-1,98
 768 215 768 215 781.5 193 c 132,-1,99
 795 171 795 171 800.5 152 c 132,-1,100
 806 133 806 133 806 114 c 4,101,102
 806 79 806 79 793.5 49.5 c 132,-1,103
 781 20 781 20 759 -1 c 132,-1,104
 737 -22 737 -22 706.5 -34 c 132,-1,105
 676 -46 676 -46 640 -46 c 4,46,47
545 506 m 4,106,107
 549 513 549 513 556 522.5 c 132,-1,108
 563 532 563 532 571 538 c 4,109,110
 579 543 579 543 581.5 549.5 c 132,-1,111
 584 556 584 556 581 556 c 4,112,113
 575 557 575 557 565 549.5 c 132,-1,114
 555 542 555 542 546 531 c 132,-1,115
 537 520 537 520 530 508 c 132,-1,116
 523 496 523 496 522 487 c 4,117,118
 522 481 522 481 528 481 c 4,119,120
 533 480 533 480 536 488 c 132,-1,121
 539 496 539 496 545 506 c 4,106,107
529 461 m 4,122,123
 529 468 529 468 523 468 c 4,124,125
 520 468 520 468 517.5 465 c 132,-1,126
 515 462 515 462 515 460 c 4,127,128
 515 455 515 455 522 454 c 4,129,130
 527 454 527 454 529 461 c 4,122,123
505 153 m 260,131,132
 510 167 510 167 515.5 176 c 132,-1,133
 521 185 521 185 522 193 c 4,134,135
 522 198 522 198 519 198 c 4,136,137
 511 199 511 199 504 192.5 c 132,-1,138
 497 186 497 186 492.5 176 c 132,-1,139
 488 166 488 166 487 153.5 c 132,-1,140
 486 141 486 141 490 129 c 4,141,142
 494 119 494 119 498 119 c 4,143,144
 503 119 503 119 501.5 129 c 132,-1,145
 500 139 500 139 505 153 c 260,131,132
EndSplineSet
EndChar

StartChar: T
Encoding: 84 84 60
Width: 1274
Flags: W
LayerCount: 2
Fore
SplineSet
628.5 0 m 0,0,1
 620.5 0 620.5 0 611.5 3 c 128,-1,2
 602.5 6 602.5 6 594.5 11 c 128,-1,3
 586.5 16 586.5 16 581 23.5 c 128,-1,4
 575.5 31 575.5 31 575.5 40 c 2,5,-1
 575.5 525 l 1,6,7
 563.5 525 563.5 525 523.5 525 c 128,-1,8
 483.5 525 483.5 525 467 529 c 128,-1,9
 450.5 533 450.5 533 439 542.5 c 128,-1,10
 427.5 552 427.5 552 427.5 570 c 0,11,12
 427.5 592 427.5 592 441.5 604 c 128,-1,13
 455.5 616 455.5 616 476.5 616 c 2,14,-1
 813.5 616 l 2,15,16
 829.5 616 829.5 616 838 602 c 128,-1,17
 846.5 588 846.5 588 846.5 574 c 0,18,19
 846.5 556 846.5 556 838 546.5 c 128,-1,20
 829.5 537 829.5 537 816.5 532 c 128,-1,21
 803.5 527 803.5 527 756.5 526 c 128,-1,22
 709.5 525 709.5 525 696.5 525 c 2,23,-1
 688.5 525 l 1,24,-1
 688.5 47 l 2,25,26
 688.5 24 688.5 24 668.5 12 c 128,-1,27
 648.5 0 648.5 0 628.5 0 c 0,0,1
450.5 553 m 256,28,29
 455.5 553 455.5 553 455.5 560 c 0,30,31
 455.5 568 455.5 568 458.5 578.5 c 128,-1,32
 461.5 589 461.5 589 467.5 598 c 0,33,34
 470.5 603 470.5 603 462.5 603 c 0,35,36
 453.5 603 453.5 603 447.5 591.5 c 128,-1,37
 441.5 580 441.5 580 441.5 569 c 0,38,39
 441.5 565 441.5 565 443.5 559 c 128,-1,40
 445.5 553 445.5 553 450.5 553 c 256,28,29
609.5 23 m 0,41,42
 618.5 23 618.5 23 618.5 32 c 0,43,44
 618.5 36 618.5 36 614.5 37 c 0,45,46
 608.5 39 608.5 39 606 49.5 c 128,-1,47
 603.5 60 603.5 60 603.5 65 c 0,48,49
 603.5 67 603.5 67 604 73 c 128,-1,50
 604.5 79 604.5 79 604.5 85 c 128,-1,51
 604.5 91 604.5 91 603.5 95.5 c 128,-1,52
 602.5 100 602.5 100 598.5 100 c 256,53,54
 594.5 100 594.5 100 592.5 96 c 128,-1,55
 590.5 92 590.5 92 589.5 86.5 c 128,-1,56
 588.5 81 588.5 81 588 75.5 c 128,-1,57
 587.5 70 587.5 70 587.5 68 c 0,58,59
 587.5 64 587.5 64 588.5 56 c 128,-1,60
 589.5 48 589.5 48 592 41 c 128,-1,61
 594.5 34 594.5 34 599 28.5 c 128,-1,62
 603.5 23 603.5 23 609.5 23 c 0,41,42
EndSplineSet

EndChar

StartChar: U
Encoding: 85 85 61
Width: 1274
Flags: W
LayerCount: 2
Fore
SplineSet
634.5 -4 m 0,0,1
 589.5 -4 589.5 -4 553 12.5 c 128,-1,2
 516.5 29 516.5 29 491.5 58.5 c 128,-1,3
 466.5 88 466.5 88 453 129.5 c 128,-1,4
 439.5 171 439.5 171 439.5 221 c 2,5,-1
 439.5 530 l 2,6,7
 439.5 540 439.5 540 441.5 555 c 128,-1,8
 443.5 570 443.5 570 449.5 583.5 c 128,-1,9
 455.5 597 455.5 597 466 606.5 c 128,-1,10
 476.5 616 476.5 616 492.5 616 c 0,11,12
 525.5 616 525.5 616 539.5 599 c 128,-1,13
 553.5 582 553.5 582 553.5 528 c 2,14,-1
 553.5 228 l 2,15,16
 553.5 204 553.5 204 553.5 179.5 c 128,-1,17
 553.5 155 553.5 155 561 135.5 c 128,-1,18
 568.5 116 568.5 116 586 103.5 c 128,-1,19
 603.5 91 603.5 91 638.5 91 c 0,20,21
 671.5 91 671.5 91 688.5 110 c 128,-1,22
 705.5 129 705.5 129 713 157.5 c 128,-1,23
 720.5 186 720.5 186 721 220 c 128,-1,24
 721.5 254 721.5 254 721.5 284 c 2,25,-1
 721.5 531 l 2,26,27
 721.5 541 721.5 541 723.5 556 c 128,-1,28
 725.5 571 725.5 571 731 584.5 c 128,-1,29
 736.5 598 736.5 598 746 608 c 128,-1,30
 755.5 618 755.5 618 771.5 618 c 0,31,32
 802.5 618 802.5 618 818.5 597.5 c 128,-1,33
 834.5 577 834.5 577 834.5 532 c 2,34,-1
 834.5 246 l 2,35,36
 834.5 189 834.5 189 822 143 c 128,-1,37
 809.5 97 809.5 97 784 64.5 c 128,-1,38
 758.5 32 758.5 32 721.5 14 c 128,-1,39
 684.5 -4 684.5 -4 634.5 -4 c 0,0,1
749.5 556 m 0,40,41
 749.5 560 749.5 560 752.5 568 c 128,-1,42
 755.5 576 755.5 576 762.5 584 c 0,43,44
 770.5 595 770.5 595 771 599 c 128,-1,45
 771.5 603 771.5 603 762.5 603 c 0,46,47
 757.5 603 757.5 603 753 598 c 128,-1,48
 748.5 593 748.5 593 745.5 588 c 0,49,50
 743.5 583 743.5 583 740 575 c 128,-1,51
 736.5 567 736.5 567 735.5 558 c 0,52,53
 735.5 553 735.5 553 736.5 548.5 c 128,-1,54
 737.5 544 737.5 544 742.5 544 c 256,55,56
 747.5 544 747.5 544 748.5 547.5 c 128,-1,57
 749.5 551 749.5 551 749.5 556 c 0,40,41
481.5 570 m 0,58,59
 485.5 579 485.5 579 491 585 c 128,-1,60
 496.5 591 496.5 591 496.5 598 c 0,61,62
 496.5 603 496.5 603 493.5 603 c 256,63,64
 490.5 603 490.5 603 484.5 600.5 c 128,-1,65
 478.5 598 478.5 598 473.5 590 c 0,66,67
 458.5 569 458.5 569 456.5 552 c 128,-1,68
 454.5 535 454.5 535 460.5 535 c 0,69,70
 465.5 535 465.5 535 471 545.5 c 128,-1,71
 476.5 556 476.5 556 481.5 570 c 0,58,59
550.5 48 m 0,72,73
 550.5 51 550.5 51 543 57 c 128,-1,74
 535.5 63 535.5 63 527.5 72 c 0,75,76
 519.5 80 519.5 80 509 93.5 c 128,-1,77
 498.5 107 498.5 107 491.5 122 c 0,78,79
 486.5 132 486.5 132 482 136 c 128,-1,80
 477.5 140 477.5 140 475.5 140 c 0,81,82
 471.5 140 471.5 140 471.5 133 c 0,83,84
 471.5 125 471.5 125 479.5 109.5 c 128,-1,85
 487.5 94 487.5 94 498.5 79 c 128,-1,86
 509.5 64 509.5 64 522 53 c 128,-1,87
 534.5 42 534.5 42 544.5 42 c 0,88,89
 550.5 42 550.5 42 550.5 48 c 0,72,73
573.5 39 m 0,90,91
 573.5 40 573.5 40 571 43 c 128,-1,92
 568.5 46 568.5 46 565.5 46 c 0,93,94
 560.5 45 560.5 45 558.5 42 c 128,-1,95
 556.5 39 556.5 39 556.5 37 c 0,96,97
 557.5 34 557.5 34 558.5 31.5 c 128,-1,98
 559.5 29 559.5 29 564.5 30 c 0,99,100
 573.5 30 573.5 30 573.5 39 c 0,90,91
EndSplineSet
EndChar

StartChar: V
Encoding: 86 86 62
Width: 1274
Flags: W
LayerCount: 2
Fore
SplineSet
675.5 103 m 1,0,-1
 604.5 103 l 1,1,-1
 604.5 783 l 1,2,-1
 675.5 783 l 1,3,-1
 675.5 103 l 1,0,-1
592.5 0 m 1,4,-1
 366.5 545 l 1,5,-1
 366.5 599 l 1,6,-1
 907.5 599 l 1,7,-1
 907.5 544 l 1,8,-1
 682.5 0 l 1,9,-1
 592.5 0 l 1,4,-1
638.5 98 m 1,10,-1
 811.5 520 l 1,11,-1
 465.5 520 l 1,12,-1
 638.5 98 l 1,10,-1
EndSplineSet
EndChar

StartChar: W
Encoding: 87 87 63
Width: 1274
Flags: W
LayerCount: 2
Fore
SplineSet
939.017578125 609.5 m 0,0,1
 938.517578125 578 938.517578125 578 918.017578125 568.5 c 0,2,3
 896.517578125 558 896.517578125 558 873.017578125 557.5 c 0,4,5
 837.517578125 557 837.517578125 557 628.017578125 556 c 128,-1,6
 418.517578125 555 418.517578125 555 388.017578125 555.5 c 4,7,8
 366.517578125 556 366.517578125 556 350.517578125 566 c 4,9,10
 335.517578125 575 335.517578125 575 335.017578125 599.5 c 4,11,12
 334.517578125 614 334.517578125 614 341.017578125 622 c 4,13,14
 346.517578125 630 346.517578125 630 356.017578125 635.5 c 4,15,16
 364.517578125 640 364.517578125 640 376.517578125 642.5 c 4,17,18
 388.517578125 644 388.517578125 644 399.017578125 644.5 c 4,19,20
 430.517578125 645 430.517578125 645 644.517578125 646 c 128,-1,21
 858.517578125 647 858.517578125 647 893.017578125 646.5 c 0,22,23
 910.517578125 646 910.517578125 646 924.517578125 639 c 128,-1,24
 938.517578125 632 938.517578125 632 939.017578125 609.5 c 0,0,1
353.017578125 580.5 m 4,25,26
 357.517578125 580 357.517578125 580 361.517578125 586 c 132,-1,27
 365.517578125 592 365.517578125 592 369.517578125 598 c 132,-1,28
 373.517578125 604 373.517578125 604 375.517578125 611 c 132,-1,29
 377.517578125 618 377.517578125 618 378.017578125 619.5 c 4,30,31
 377.517578125 624 377.517578125 624 377.517578125 627 c 132,-1,32
 377.517578125 630 377.517578125 630 372.017578125 630.5 c 4,33,34
 359.517578125 630 359.517578125 630 352.517578125 617 c 4,35,36
 346.517578125 607 346.517578125 607 346.017578125 593.5 c 4,37,38
 345.517578125 586 345.517578125 586 348.517578125 583 c 132,-1,39
 351.517578125 580 351.517578125 580 353.017578125 580.5 c 4,25,26
738.517578125 0 m 0,40,41
 715.517578125 0 715.517578125 0 699.017578125 6 c 128,-1,42
 682.517578125 12 682.517578125 12 671.017578125 23.5 c 128,-1,43
 659.517578125 35 659.517578125 35 651.517578125 51 c 0,44,45
 639.517578125 75 639.517578125 75 636.517578125 87 c 0,46,47
 635.517578125 91 635.517578125 91 634.517578125 97 c 128,-1,48
 633.517578125 103 633.517578125 103 632.017578125 109 c 128,-1,49
 630.517578125 115 630.517578125 115 629.017578125 119 c 128,-1,50
 627.517578125 123 627.517578125 123 625.517578125 123 c 256,51,52
 623.517578125 123 623.517578125 123 621.517578125 115.5 c 128,-1,53
 619.517578125 108 619.517578125 108 615.517578125 97 c 0,54,55
 605.517578125 71 605.517578125 71 596.517578125 52.5 c 128,-1,56
 587.517578125 34 587.517578125 34 576.017578125 22.5 c 128,-1,57
 564.517578125 11 564.517578125 11 550.517578125 5.5 c 128,-1,58
 536.517578125 0 536.517578125 0 516.517578125 0 c 0,59,60
 476.517578125 0 476.517578125 0 447.017578125 13.5 c 128,-1,61
 417.517578125 27 417.517578125 27 398.517578125 51.5 c 128,-1,62
 379.517578125 76 379.517578125 76 370.517578125 109.5 c 128,-1,63
 361.517578125 143 361.517578125 143 361.517578125 183 c 2,64,-1
 361.517578125 462 l 2,65,66
 361.517578125 472 361.517578125 472 364.517578125 485.5 c 128,-1,67
 367.517578125 499 367.517578125 499 374.517578125 511 c 128,-1,68
 381.517578125 523 381.517578125 523 393.017578125 531.5 c 128,-1,69
 404.517578125 540 404.517578125 540 422.517578125 540 c 0,70,71
 451.517578125 540 451.517578125 540 462.517578125 519.5 c 0,72,73
 473.400390625 499.21875 473.400390625 499.21875 473.517578125 467 c 2,74,-1
 474.517578125 193 l 2,75,76
 474.517578125 183 474.517578125 183 476.517578125 166.5 c 128,-1,77
 478.517578125 150 478.517578125 150 483.017578125 134 c 128,-1,78
 487.517578125 118 487.517578125 118 496.517578125 106.5 c 128,-1,79
 505.517578125 95 505.517578125 95 518.517578125 95 c 0,80,81
 541.517578125 95 541.517578125 95 555.017578125 129 c 128,-1,82
 568.517578125 163 568.517578125 163 575.517578125 219 c 128,-1,83
 582.517578125 275 582.517578125 275 584.017578125 308.5 c 128,-1,84
 585.517578125 342 585.517578125 342 585.517578125 418 c 0,85,86
 585.517578125 482 585.517578125 482 595.517578125 506.5 c 128,-1,87
 605.517578125 531 605.517578125 531 635.517578125 531 c 0,88,89
 649.517578125 531 649.517578125 531 658.517578125 526 c 128,-1,90
 667.517578125 521 667.517578125 521 673.517578125 505 c 128,-1,91
 679.517578125 489 679.517578125 489 682.017578125 459 c 128,-1,92
 684.517578125 429 684.517578125 429 684.517578125 379 c 0,93,94
 684.517578125 300 684.517578125 300 684.517578125 285.5 c 128,-1,95
 684.517578125 271 684.517578125 271 686.017578125 236.5 c 128,-1,96
 687.517578125 202 687.517578125 202 690.017578125 181.5 c 128,-1,97
 692.517578125 161 692.517578125 161 697.517578125 146 c 0,98,99
 706.517578125 117 706.517578125 117 716.517578125 105.5 c 128,-1,100
 726.517578125 94 726.517578125 94 739.517578125 94 c 0,101,102
 798.517578125 94 798.517578125 94 798.517578125 239 c 2,103,-1
 798.517578125 479 l 2,104,105
 798.517578125 490 798.517578125 490 800.517578125 501 c 128,-1,106
 802.517578125 512 802.517578125 512 808.017578125 520.5 c 128,-1,107
 813.517578125 529 813.517578125 529 823.517578125 534.5 c 128,-1,108
 833.517578125 540 833.517578125 540 848.517578125 540 c 0,109,110
 880.517578125 540 880.517578125 540 895.017578125 522.5 c 128,-1,111
 909.517578125 505 909.517578125 505 909.517578125 479 c 2,112,-1
 909.517578125 220 l 2,113,114
 909.517578125 178 909.517578125 178 898.017578125 138.5 c 128,-1,115
 886.517578125 99 886.517578125 99 865.017578125 68 c 128,-1,116
 843.517578125 37 843.517578125 37 811.517578125 18.5 c 128,-1,117
 779.517578125 0 779.517578125 0 738.517578125 0 c 0,40,41
386.517578125 455 m 0,118,119
 393.517578125 455 393.517578125 455 396.017578125 462 c 128,-1,120
 398.517578125 469 398.517578125 469 399.517578125 474 c 0,121,122
 401.517578125 488 401.517578125 488 410.517578125 497.5 c 0,123,124
 425.517578125 513 425.517578125 513 425.517578125 519 c 0,125,126
 425.517578125 521 425.517578125 521 423.517578125 524 c 128,-1,127
 421.517578125 527 421.517578125 527 418.517578125 527 c 0,128,129
 412.517578125 527 412.517578125 527 405.517578125 520.5 c 128,-1,130
 398.517578125 514 398.517578125 514 392.517578125 505 c 128,-1,131
 386.517578125 496 386.517578125 496 383.017578125 485.5 c 128,-1,132
 379.517578125 475 379.517578125 475 379.517578125 467 c 0,133,134
 379.517578125 463 379.517578125 463 380.517578125 459 c 128,-1,135
 381.517578125 455 381.517578125 455 386.517578125 455 c 0,118,119
831.517578125 473 m 0,136,137
 831.517578125 483 831.517578125 483 834.517578125 491 c 128,-1,138
 837.517578125 499 837.517578125 499 841.517578125 506 c 0,139,140
 846.517578125 514 846.517578125 514 845.517578125 519 c 128,-1,141
 844.517578125 524 844.517578125 524 841.517578125 524 c 0,142,143
 836.517578125 524 836.517578125 524 830.017578125 520.5 c 128,-1,144
 823.517578125 517 823.517578125 517 819.517578125 507 c 0,145,146
 814.517578125 491 814.517578125 491 816.017578125 476 c 128,-1,147
 817.517578125 461 817.517578125 461 825.517578125 461 c 0,148,149
 827.517578125 461 827.517578125 461 829.517578125 464.5 c 128,-1,150
 831.517578125 468 831.517578125 468 831.517578125 473 c 0,136,137
612.517578125 467 m 0,151,152
 612.517578125 468 612.517578125 468 614.517578125 477.5 c 128,-1,153
 616.517578125 487 616.517578125 487 619.517578125 493 c 0,154,155
 626.517578125 506 626.517578125 506 628.517578125 511 c 128,-1,156
 630.517578125 516 630.517578125 516 627.517578125 516 c 0,157,158
 625.517578125 516 625.517578125 516 620.017578125 514 c 128,-1,159
 614.517578125 512 614.517578125 512 609.517578125 505 c 0,160,161
 598.517578125 490 598.517578125 490 599.017578125 473 c 128,-1,162
 599.517578125 456 599.517578125 456 607.517578125 456 c 0,163,164
 612.517578125 456 612.517578125 456 612.517578125 467 c 0,151,152
463.517578125 37 m 0,165,166
 462.517578125 42 462.517578125 42 449.517578125 51 c 128,-1,167
 436.517578125 60 436.517578125 60 430.517578125 67 c 0,168,169
 419.517578125 78 419.517578125 78 415.017578125 89 c 128,-1,170
 410.517578125 100 410.517578125 100 405.517578125 99 c 0,171,172
 401.517578125 99 401.517578125 99 402.017578125 92 c 128,-1,173
 402.517578125 85 402.517578125 85 407.017578125 75 c 128,-1,174
 411.517578125 65 411.517578125 65 420.517578125 54 c 128,-1,175
 429.517578125 43 429.517578125 43 442.517578125 34 c 0,176,177
 451.517578125 27 451.517578125 27 458.517578125 29 c 0,178,179
 463.517578125 29 463.517578125 29 463.517578125 37 c 0,165,166
729.517578125 22 m 0,180,181
 729.517578125 26 729.517578125 26 726.017578125 27 c 128,-1,182
 722.517578125 28 722.517578125 28 719.517578125 28 c 0,183,184
 714.517578125 29 714.517578125 29 704.517578125 38 c 128,-1,185
 694.517578125 47 694.517578125 47 688.517578125 57 c 0,186,187
 678.517578125 72 678.517578125 72 670.517578125 74 c 0,188,189
 667.517578125 74 667.517578125 74 667.517578125 69 c 0,190,191
 667.517578125 67 667.517578125 67 671.017578125 59 c 128,-1,192
 674.517578125 51 674.517578125 51 681.517578125 42 c 128,-1,193
 688.517578125 33 688.517578125 33 698.017578125 25.5 c 128,-1,194
 707.517578125 18 707.517578125 18 718.517578125 17 c 0,195,196
 722.517578125 17 722.517578125 17 725.517578125 17 c 128,-1,197
 728.517578125 17 728.517578125 17 729.517578125 22 c 0,180,181
EndSplineSet
EndChar

StartChar: X
Encoding: 88 88 64
Width: 1274
Flags: W
LayerCount: 2
Fore
SplineSet
723.534179688 174.834960938 m 0,0,1
 733.138671875 166.602539062 733.138671875 166.602539062 746.790039062 152.40234375 c 128,-1,2
 760.44140625 138.202148438 760.44140625 138.202148438 773.081054688 125.494140625 c 128,-1,3
 785.720703125 112.786132812 785.720703125 112.786132812 795.975585938 104.829101562 c 128,-1,4
 806.231445312 96.87109375 806.231445312 96.87109375 809.043945312 101.124023438 c 0,5,6
 810.725585938 102.598632812 810.725585938 102.598632812 812.611328125 107.229492188 c 128,-1,7
 814.498046875 111.860351562 814.498046875 111.860351562 811 116.524414062 c 0,8,9
 808.049804688 119.885742188 808.049804688 119.885742188 798 131 c 128,-1,10
 787.950195312 142.112304688 787.950195312 142.112304688 776.047851562 153.98046875 c 128,-1,11
 764.146484375 165.84765625 764.146484375 165.84765625 752.604492188 175.94921875 c 128,-1,12
 741.061523438 186.05078125 741.061523438 186.05078125 735.505859375 188.313476562 c 0,13,14
 729.0234375 190.955078125 729.0234375 190.955078125 724.340820312 184.764648438 c 128,-1,15
 719.659179688 178.573242188 719.659179688 178.573242188 723.534179688 174.834960938 c 0,0,1
466.453125 485.340820312 m 0,16,17
 476.057617188 477.108398438 476.057617188 477.108398438 489.708984375 462.908203125 c 128,-1,18
 503.360351562 448.708007812 503.360351562 448.708007812 516 436 c 128,-1,19
 528.639648438 423.291992188 528.639648438 423.291992188 538.89453125 415.334960938 c 128,-1,20
 549.150390625 407.376953125 549.150390625 407.376953125 551.962890625 411.629882812 c 0,21,22
 553.64453125 413.104492188 553.64453125 413.104492188 555.530273438 417.735351562 c 128,-1,23
 557.416992188 422.366210938 557.416992188 422.366210938 553.918945312 427.030273438 c 0,24,25
 550.96875 430.391601562 550.96875 430.391601562 540.918945312 441.505859375 c 128,-1,26
 530.869140625 452.618164062 530.869140625 452.618164062 518.966796875 464.486328125 c 128,-1,27
 507.065429688 476.353515625 507.065429688 476.353515625 495.5234375 486.455078125 c 128,-1,28
 483.98046875 496.556640625 483.98046875 496.556640625 478.424804688 498.819335938 c 0,29,30
 471.942382812 501.4609375 471.942382812 501.4609375 467.259765625 495.270507812 c 128,-1,31
 462.578125 489.079101562 462.578125 489.079101562 466.453125 485.340820312 c 0,16,17
729.004882812 411.383789062 m 0,32,33
 737.94921875 420.328125 737.94921875 420.328125 753.154296875 432.850585938 c 128,-1,34
 768.360351562 445.372070312 768.360351562 445.372070312 782 457 c 128,-1,35
 795.639648438 468.627929688 795.639648438 468.627929688 804.360351562 478.2421875 c 128,-1,36
 813.081054688 487.857421875 813.081054688 487.857421875 809.056640625 490.98828125 c 0,37,38
 807.71484375 492.77734375 807.71484375 492.77734375 803.2421875 495.012695312 c 128,-1,39
 798.770507812 497.249023438 798.770507812 497.249023438 793.8515625 494.119140625 c 0,40,41
 790.2734375 491.435546875 790.2734375 491.435546875 778.421875 482.267578125 c 128,-1,42
 766.571289062 473.099609375 766.571289062 473.099609375 753.825195312 462.142578125 c 128,-1,43
 741.080078125 451.186523438 741.080078125 451.186523438 730.123046875 440.453125 c 128,-1,44
 719.166015625 429.719726562 719.166015625 429.719726562 716.483398438 424.353515625 c 0,45,46
 713.352539062 418.092773438 713.352539062 418.092773438 719.166015625 412.94921875 c 128,-1,47
 724.98046875 407.806640625 724.98046875 407.806640625 729.004882812 411.383789062 c 0,32,33
455.004882812 123.383789062 m 0,48,49
 463.94921875 132.328125 463.94921875 132.328125 479.154296875 144.850585938 c 128,-1,50
 494.360351562 157.372070312 494.360351562 157.372070312 508 169 c 128,-1,51
 521.639648438 180.627929688 521.639648438 180.627929688 530.360351562 190.2421875 c 128,-1,52
 539.081054688 199.857421875 539.081054688 199.857421875 535.056640625 202.98828125 c 0,53,54
 533.71484375 204.77734375 533.71484375 204.77734375 529.2421875 207.012695312 c 128,-1,55
 524.770507812 209.249023438 524.770507812 209.249023438 519.8515625 206.119140625 c 0,56,57
 516.2734375 203.435546875 516.2734375 203.435546875 504.421875 194.267578125 c 128,-1,58
 492.571289062 185.099609375 492.571289062 185.099609375 479.825195312 174.142578125 c 128,-1,59
 467.080078125 163.186523438 467.080078125 163.186523438 456.123046875 152.453125 c 128,-1,60
 445.166015625 141.719726562 445.166015625 141.719726562 442.483398438 136.353515625 c 0,61,62
 439.352539062 130.092773438 439.352539062 130.092773438 445.166015625 124.94921875 c 128,-1,63
 450.98046875 119.806640625 450.98046875 119.806640625 455.004882812 123.383789062 c 0,48,49
455.004882812 123.383789062 m 0,64,65
 463.94921875 132.328125 463.94921875 132.328125 479.154296875 144.850585938 c 128,-1,66
 494.360351562 157.372070312 494.360351562 157.372070312 508 169 c 128,-1,67
 521.639648438 180.627929688 521.639648438 180.627929688 530.360351562 190.2421875 c 128,-1,68
 539.081054688 199.857421875 539.081054688 199.857421875 535.056640625 202.98828125 c 0,69,70
 533.71484375 204.77734375 533.71484375 204.77734375 529.2421875 207.012695312 c 128,-1,71
 524.770507812 209.249023438 524.770507812 209.249023438 519.8515625 206.119140625 c 0,72,73
 516.2734375 203.435546875 516.2734375 203.435546875 504.421875 194.267578125 c 128,-1,74
 492.571289062 185.099609375 492.571289062 185.099609375 479.825195312 174.142578125 c 128,-1,75
 467.080078125 163.186523438 467.080078125 163.186523438 456.123046875 152.453125 c 128,-1,76
 445.166015625 141.719726562 445.166015625 141.719726562 442.483398438 136.353515625 c 0,77,78
 439.352539062 130.092773438 439.352539062 130.092773438 445.166015625 124.94921875 c 128,-1,79
 450.98046875 119.806640625 450.98046875 119.806640625 455.004882812 123.383789062 c 0,64,65
476 71 m 1,80,-1
 407 140 l 1,81,-1
 568 301 l 1,82,-1
 407 462 l 1,83,-1
 476 531 l 1,84,-1
 637 370 l 1,85,-1
 798 531 l 1,86,-1
 867 462 l 1,87,-1
 706 301 l 1,88,-1
 867 140 l 1,89,-1
 798 71 l 1,90,-1
 637 232 l 1,91,-1
 476 71 l 1,80,-1
EndSplineSet
EndChar

StartChar: Y
Encoding: 89 89 65
Width: 1274
Flags: W
LayerCount: 2
Fore
SplineSet
637.36328125 0 m 0,0,1
 611.36328125 0 611.36328125 0 597.86328125 16.5 c 128,-1,2
 584.36328125 33 584.36328125 33 584.36328125 52 c 2,3,-1
 584.36328125 191 l 2,4,5
 584.36328125 204 584.36328125 204 582.86328125 214.5 c 128,-1,6
 581.36328125 225 581.36328125 225 577.86328125 236 c 128,-1,7
 574.36328125 247 574.36328125 247 568.36328125 260.5 c 128,-1,8
 562.36328125 274 562.36328125 274 553.36328125 294 c 2,9,-1
 434.36328125 556 l 2,10,11
 431.36328125 563 431.36328125 563 433.86328125 573.5 c 128,-1,12
 436.36328125 584 436.36328125 584 443.86328125 593.5 c 128,-1,13
 451.36328125 603 451.36328125 603 463.36328125 609.5 c 128,-1,14
 475.36328125 616 475.36328125 616 491.36328125 616 c 0,15,16
 500.36328125 616 500.36328125 616 508.86328125 611.5 c 128,-1,17
 517.36328125 607 517.36328125 607 522.36328125 595 c 2,18,-1
 615.36328125 377 l 2,19,20
 620.36328125 366 620.36328125 366 626.86328125 354 c 128,-1,21
 633.36328125 342 633.36328125 342 639.36328125 342 c 256,22,23
 645.36328125 342 645.36328125 342 651.36328125 351.5 c 128,-1,24
 657.36328125 361 657.36328125 361 664.36328125 377 c 2,25,-1
 764.36328125 600 l 2,26,27
 769.36328125 611 769.36328125 611 779.36328125 613.5 c 128,-1,28
 789.36328125 616 789.36328125 616 796.36328125 616 c 0,29,30
 809.36328125 616 809.36328125 616 818.86328125 609 c 128,-1,31
 828.36328125 602 828.36328125 602 833.86328125 592 c 128,-1,32
 839.36328125 582 839.36328125 582 840.86328125 571 c 128,-1,33
 842.36328125 560 842.36328125 560 838.36328125 552 c 2,34,-1
 713.36328125 281 l 2,35,36
 706.36328125 266 706.36328125 266 702.36328125 255.5 c 128,-1,37
 698.36328125 245 698.36328125 245 696.86328125 234 c 128,-1,38
 695.36328125 223 695.36328125 223 694.86328125 209.5 c 128,-1,39
 694.36328125 196 694.36328125 196 694.36328125 174 c 2,40,-1
 694.36328125 52 l 2,41,42
 694.36328125 37 694.36328125 37 688.86328125 27 c 128,-1,43
 683.36328125 17 683.36328125 17 674.86328125 11 c 128,-1,44
 666.36328125 5 666.36328125 5 656.36328125 2.5 c 128,-1,45
 646.36328125 0 646.36328125 0 637.36328125 0 c 0,0,1
465.36328125 551 m 0,46,47
 463.36328125 559 463.36328125 559 463.86328125 564.5 c 128,-1,48
 464.36328125 570 464.36328125 570 463.36328125 575 c 256,49,50
 462.36328125 580 462.36328125 580 460.36328125 584 c 128,-1,51
 458.36328125 588 458.36328125 588 456.36328125 587 c 0,52,53
 445.36328125 582 445.36328125 582 446.86328125 568 c 128,-1,54
 448.36328125 554 448.36328125 554 451.36328125 546 c 0,55,56
 456.36328125 535 456.36328125 535 463.36328125 537 c 0,57,58
 467.36328125 539 467.36328125 539 467.36328125 543 c 128,-1,59
 467.36328125 547 467.36328125 547 465.36328125 551 c 0,46,47
621.36328125 33 m 0,60,61
 619.36328125 37 619.36328125 37 615.86328125 47 c 128,-1,62
 612.36328125 57 612.36328125 57 610.36328125 74 c 0,63,64
 609.36328125 97 609.36328125 97 605.36328125 97 c 0,65,66
 604.36328125 97 604.36328125 97 602.36328125 93.5 c 128,-1,67
 600.36328125 90 600.36328125 90 599.36328125 81 c 0,68,69
 597.36328125 49 597.36328125 49 604.86328125 35 c 128,-1,70
 612.36328125 21 612.36328125 21 621.36328125 21 c 0,71,72
 625.36328125 21 625.36328125 21 624.36328125 24.5 c 128,-1,73
 623.36328125 28 623.36328125 28 621.36328125 33 c 0,60,61
EndSplineSet

EndChar

StartChar: Z
Encoding: 90 90 66
Width: 1274
Flags: W
LayerCount: 2
Fore
SplineSet
536.5 0 m 2,0,1
 525.5 0 525.5 0 513 2.5 c 128,-1,2
 500.5 5 500.5 5 490.5 11.5 c 128,-1,3
 480.5 18 480.5 18 474 28.5 c 128,-1,4
 467.5 39 467.5 39 467.5 55 c 0,5,6
 467.5 65 467.5 65 469 76 c 128,-1,7
 470.5 87 470.5 87 478.5 102 c 2,8,-1
 559.5 262 l 1,9,-1
 535.5 262 l 2,10,11
 520.5 262 520.5 262 512.5 273 c 128,-1,12
 504.5 284 504.5 284 504.5 301 c 256,13,14
 504.5 318 504.5 318 511 328 c 128,-1,15
 517.5 338 517.5 338 535.5 338 c 2,16,-1
 597.5 338 l 1,17,-1
 686.5 513 l 2,18,19
 689.5 519 689.5 519 689.5 525 c 0,20,21
 688.5 531 688.5 531 678.5 531 c 2,22,-1
 500.5 533 l 2,23,24
 487.5 533 487.5 533 479 543.5 c 128,-1,25
 470.5 554 470.5 554 470.5 569 c 0,26,27
 470.5 598 470.5 598 485 608 c 128,-1,28
 499.5 618 499.5 618 518.5 618 c 2,29,-1
 764.5 616 l 2,30,31
 776.5 616 776.5 616 784.5 609.5 c 128,-1,32
 792.5 603 792.5 603 797 593.5 c 128,-1,33
 801.5 584 801.5 584 803.5 572 c 128,-1,34
 805.5 560 805.5 560 805.5 548 c 0,35,36
 805.5 518 805.5 518 790.5 488 c 2,37,-1
 711.5 338 l 1,38,-1
 741.5 338 l 2,39,40
 759.5 338 759.5 338 767 329.5 c 128,-1,41
 774.5 321 774.5 321 774.5 307 c 0,42,43
 774.5 287 774.5 287 768 274.5 c 128,-1,44
 761.5 262 761.5 262 745.5 262 c 2,45,-1
 671.5 262 l 1,46,-1
 616.5 158 l 2,47,48
 604.5 135 604.5 135 598 121.5 c 128,-1,49
 591.5 108 591.5 108 591.5 100 c 0,50,51
 591.5 87 591.5 87 619.5 87 c 2,52,-1
 767.5 86 l 2,53,54
 787.5 86 787.5 86 797 72 c 128,-1,55
 806.5 58 806.5 58 806.5 35 c 0,56,57
 806.5 21 806.5 21 797 10.5 c 128,-1,58
 787.5 0 787.5 0 779.5 0 c 2,59,-1
 536.5 0 l 2,0,1
500.5 574 m 0,60,61
 502.5 578 502.5 578 506.5 585 c 128,-1,62
 510.5 592 510.5 592 509.5 595 c 0,63,64
 509.5 597 509.5 597 506 599.5 c 128,-1,65
 502.5 602 502.5 602 500.5 602 c 0,66,67
 489.5 600 489.5 600 486.5 586 c 128,-1,68
 483.5 572 483.5 572 485.5 560 c 0,69,70
 485.5 558 485.5 558 487.5 555 c 128,-1,71
 489.5 552 489.5 552 491.5 552 c 0,72,73
 495.5 553 495.5 553 497.5 562.5 c 128,-1,74
 499.5 572 499.5 572 500.5 574 c 0,60,61
527.5 306 m 0,75,76
 527.5 311 527.5 311 530.5 318.5 c 128,-1,77
 533.5 326 533.5 326 528.5 326 c 256,78,79
 523.5 326 523.5 326 518.5 318.5 c 128,-1,80
 513.5 311 513.5 311 513.5 300 c 0,81,82
 513.5 293 513.5 293 516 285.5 c 128,-1,83
 518.5 278 518.5 278 523.5 278 c 256,84,85
 528.5 278 528.5 278 528 287.5 c 128,-1,86
 527.5 297 527.5 297 527.5 306 c 0,75,76
493.5 49 m 0,87,88
 497.5 49 497.5 49 501.5 57.5 c 128,-1,89
 505.5 66 505.5 66 509.5 77.5 c 128,-1,90
 513.5 89 513.5 89 516 100.5 c 128,-1,91
 518.5 112 518.5 112 518.5 117 c 0,92,93
 518.5 121 518.5 121 514.5 121 c 0,94,95
 509.5 121 509.5 121 504.5 114 c 128,-1,96
 499.5 107 499.5 107 495 99 c 128,-1,97
 490.5 91 490.5 91 487.5 82.5 c 128,-1,98
 484.5 74 484.5 74 484.5 71 c 0,99,100
 483.5 63 483.5 63 486 56 c 128,-1,101
 488.5 49 488.5 49 493.5 49 c 0,87,88
508.5 27 m 0,102,103
 508.5 34 508.5 34 503.5 34 c 0,104,105
 494.5 34 494.5 34 494.5 25 c 0,106,107
 494.5 19 494.5 19 499.5 19 c 0,108,109
 502.5 19 502.5 19 505.5 21.5 c 128,-1,110
 508.5 24 508.5 24 508.5 27 c 0,102,103
EndSplineSet
EndChar

StartChar: a
Encoding: 97 97 67
Width: 1274
Flags: W
LayerCount: 2
Fore
SplineSet
643 621 m 0,0,1
 675 621 675 621 696 611 c 128,-1,2
 717 601 717 601 725 587 c 0,3,4
 731 575 731 575 742.5 534 c 128,-1,5
 754 493 754 493 767.5 437 c 128,-1,6
 781 381 781 381 795.5 318 c 128,-1,7
 810 255 810 255 822 199 c 128,-1,8
 834 143 834 143 841.5 101.5 c 128,-1,9
 849 60 849 60 849 48 c 0,10,11
 849 28 849 28 828 12.5 c 128,-1,12
 807 -3 807 -3 783 -3 c 256,13,14
 759 -3 759 -3 750 11 c 0,15,16
 746 17 746 17 740 32 c 128,-1,17
 734 47 734 47 728 67 c 128,-1,18
 722 87 722 87 716.5 109 c 128,-1,19
 711 131 711 131 707 152 c 0,20,21
 703 172 703 172 695.5 176.5 c 128,-1,22
 688 181 688 181 678 181 c 0,23,24
 649 181 649 181 627 181.5 c 128,-1,25
 605 182 605 182 594 182 c 0,26,27
 574 182 574 182 564.5 177.5 c 128,-1,28
 555 173 555 173 552 162 c 2,29,-1
 526 62 l 2,30,31
 518 33 518 33 500.5 15.5 c 128,-1,32
 483 -2 483 -2 461 -2 c 0,33,34
 425 -2 425 -2 425 48 c 0,35,36
 425 65 425 65 429 95.5 c 128,-1,37
 433 126 433 126 439.5 164.5 c 128,-1,38
 446 203 446 203 455.5 246.5 c 128,-1,39
 465 290 465 290 475.5 334.5 c 128,-1,40
 486 379 486 379 497 421 c 128,-1,41
 508 463 508 463 519 497 c 0,42,43
 531 535 531 535 543.5 559 c 128,-1,44
 556 583 556 583 570 597 c 128,-1,45
 584 611 584 611 601.5 616 c 128,-1,46
 619 621 619 621 643 621 c 0,0,1
582 561 m 0,47,48
 593 574 593 574 602 585.5 c 128,-1,49
 611 597 611 597 604 598 c 0,50,51
 588 601 588 601 572 579 c 0,52,53
 561 562 561 562 556 543 c 128,-1,54
 551 524 551 524 559 522 c 0,55,56
 561 522 561 522 563 525.5 c 128,-1,57
 565 529 565 529 567 535 c 128,-1,58
 569 541 569 541 572.5 548 c 128,-1,59
 576 555 576 555 582 561 c 0,47,48
598 377 m 0,60,61
 587 320 587 320 583.5 298.5 c 128,-1,62
 580 277 580 277 589 277 c 2,63,-1
 677 277 l 2,64,65
 685 277 685 277 681 296.5 c 128,-1,66
 677 316 677 316 669 357 c 0,67,68
 667 368 667 368 664 393.5 c 128,-1,69
 661 419 661 419 656.5 445 c 128,-1,70
 652 471 652 471 647 491.5 c 128,-1,71
 642 512 642 512 636 512 c 0,72,73
 631 512 631 512 625 494 c 128,-1,74
 619 476 619 476 613.5 452.5 c 128,-1,75
 608 429 608 429 604 407 c 128,-1,76
 600 385 600 385 598 377 c 0,60,61
457 63 m 0,77,78
 459 75 459 75 457 82 c 128,-1,79
 455 89 455 89 451 90 c 0,80,81
 449 90 449 90 446.5 87.5 c 128,-1,82
 444 85 444 85 442 77 c 0,83,84
 438 57 438 57 441 38.5 c 128,-1,85
 444 20 444 20 452 18 c 0,86,87
 462 16 462 16 456 33 c 0,88,89
 454 39 454 39 454.5 46.5 c 128,-1,90
 455 54 455 54 457 63 c 0,77,78
762 64 m 0,91,92
 755 78 755 78 753 83 c 128,-1,93
 751 88 751 88 749 88 c 0,94,95
 746 88 746 88 744 78 c 0,96,97
 744 74 744 74 746.5 63.5 c 128,-1,98
 749 53 749 53 753 42.5 c 128,-1,99
 757 32 757 32 762.5 24 c 128,-1,100
 768 16 768 16 773 16 c 0,101,102
 776 16 776 16 776 21 c 128,-1,103
 776 26 776 26 773.5 34 c 128,-1,104
 771 42 771 42 768 50 c 128,-1,105
 765 58 765 58 762 64 c 0,91,92
EndSplineSet
EndChar

StartChar: b
Encoding: 98 98 68
Width: 1274
Flags: W
LayerCount: 2
Fore
SplineSet
794.5 -12 m 0,0,1
 757.5 -12 757.5 -12 727.5 -2.5 c 128,-1,2
 697.5 7 697.5 7 673 29 c 128,-1,3
 648.5 51 648.5 51 626.5 90 c 1,4,-1
 647.5 90 l 1,5,6
 621.5 49 621.5 49 594.5 27 c 128,-1,7
 567.5 5 567.5 5 536.5 -3.5 c 128,-1,8
 505.5 -12 505.5 -12 466.5 -12 c 0,9,10
 411.5 -12 411.5 -12 375 7.5 c 128,-1,11
 338.5 27 338.5 27 320.5 59.5 c 128,-1,12
 302.5 92 302.5 92 302.5 130 c 0,13,14
 302.5 171 302.5 171 319 200 c 128,-1,15
 335.5 229 335.5 229 368.5 250.5 c 128,-1,16
 401.5 272 401.5 272 450.5 289 c 0,17,18
 491.5 304 491.5 304 515.5 321 c 128,-1,19
 539.5 338 539.5 338 539.5 371 c 0,20,21
 539.5 387 539.5 387 532.5 399.5 c 128,-1,22
 525.5 412 525.5 412 509 419.5 c 128,-1,23
 492.5 427 492.5 427 464.5 427 c 0,24,25
 421.5 427 421.5 427 400.5 410.5 c 128,-1,26
 379.5 394 379.5 394 379.5 365 c 0,27,28
 379.5 352 379.5 352 383 341 c 128,-1,29
 386.5 330 386.5 330 389.5 323 c 1,30,-1
 314.5 302 l 1,31,32
 306.5 317 306.5 317 302 335.5 c 128,-1,33
 297.5 354 297.5 354 297.5 375 c 0,34,35
 297.5 407 297.5 407 314.5 435.5 c 128,-1,36
 331.5 464 331.5 464 368.5 482 c 128,-1,37
 405.5 500 405.5 500 464.5 500 c 0,38,39
 524.5 500 524.5 500 558.5 480 c 128,-1,40
 592.5 460 592.5 460 607 430 c 128,-1,41
 621.5 400 621.5 400 621.5 370 c 0,42,43
 621.5 332 621.5 332 606.5 305.5 c 128,-1,44
 591.5 279 591.5 279 562 260 c 128,-1,45
 532.5 241 532.5 241 488.5 225 c 0,46,47
 435.5 205 435.5 205 410 184.5 c 128,-1,48
 384.5 164 384.5 164 384.5 131 c 0,49,50
 384.5 102 384.5 102 405 84.5 c 128,-1,51
 425.5 67 425.5 67 468.5 67 c 0,52,53
 510.5 67 510.5 67 538 81.5 c 128,-1,54
 565.5 96 565.5 96 580 123 c 128,-1,55
 594.5 150 594.5 150 597.5 185 c 1,56,-1
 675.5 185 l 1,57,58
 678.5 144 678.5 144 694.5 118 c 128,-1,59
 710.5 92 710.5 92 734.5 79.5 c 128,-1,60
 758.5 67 758.5 67 786.5 67 c 0,61,62
 841.5 67 841.5 67 867.5 99.5 c 128,-1,63
 893.5 132 893.5 132 893.5 193 c 0,64,65
 893.5 251 893.5 251 870 294.5 c 128,-1,66
 846.5 338 846.5 338 807 369.5 c 128,-1,67
 767.5 401 767.5 401 717.5 423 c 1,68,-1
 754.5 500 l 1,69,70
 816.5 474 816.5 474 866.5 430 c 128,-1,71
 916.5 386 916.5 386 946.5 328 c 128,-1,72
 976.5 270 976.5 270 976.5 199 c 0,73,74
 976.5 132 976.5 132 954 84.5 c 128,-1,75
 931.5 37 931.5 37 891 12.5 c 128,-1,76
 850.5 -12 850.5 -12 794.5 -12 c 0,0,1
EndSplineSet
EndChar

StartChar: c
Encoding: 99 99 69
Width: 1274
Flags: W
LayerCount: 2
Fore
SplineSet
706 -10 m 4,0,1
 588 -10 588 -10 523 57 c 132,-1,2
 458 124 458 124 458 245 c 4,3,4
 458 325 458 325 487 380.5 c 132,-1,5
 516 436 516 436 570 465 c 5,6,-1
 411 465 l 5,7,-1
 411 537 l 5,8,-1
 863 537 l 5,9,-1
 863 465 l 5,10,-1
 750 465 l 6,11,12
 656 465 656 465 602.5 411.5 c 132,-1,13
 549 358 549 358 549 252 c 4,14,15
 549 165 549 165 592 114.5 c 132,-1,16
 635 64 635 64 715 64 c 4,17,18
 752 64 752 64 786 73.5 c 132,-1,19
 820 83 820 83 852 99 c 5,20,-1
 852 21 l 5,21,22
 823 5 823 5 788 -2.5 c 132,-1,23
 753 -10 753 -10 706 -10 c 4,0,1
EndSplineSet
EndChar

StartChar: d
Encoding: 100 100 70
Width: 1274
Flags: W
LayerCount: 2
Fore
SplineSet
608 425 m 4,0,1
 579 425 579 425 552.5 436 c 132,-1,2
 526 447 526 447 504 477.5 c 132,-1,3
 482 508 482 508 466 564 c 5,4,-1
 549 591 l 5,5,6
 564 536 564 536 578 518 c 132,-1,7
 592 500 592 500 614 500 c 4,8,9
 634 500 634 500 651.5 512.5 c 132,-1,10
 669 525 669 525 701 565 c 6,11,-1
 732 605 l 6,12,13
 766 649 766 649 794.5 675 c 132,-1,14
 823 701 823 701 855 713 c 132,-1,15
 887 725 887 725 931 725 c 5,16,-1
 937 648 l 5,17,18
 902 646 902 646 878.5 637 c 132,-1,19
 855 628 855 628 835.5 608.5 c 132,-1,20
 816 589 816 589 790 556 c 6,21,-1
 767 526 l 6,22,23
 739 490 739 490 714 468 c 132,-1,24
 689 446 689 446 663.5 435.5 c 132,-1,25
 638 425 638 425 608 425 c 4,0,1
810 -12 m 4,26,27
 755 -12 755 -12 716 -0.5 c 132,-1,28
 677 11 677 11 652 32.5 c 132,-1,29
 627 54 627 54 610 84 c 5,30,-1
 626 91 l 5,31,32
 605 48 605 48 579 25.5 c 132,-1,33
 553 3 553 3 524 -4.5 c 132,-1,34
 495 -12 495 -12 462 -12 c 4,35,36
 389 -12 389 -12 344 43 c 132,-1,37
 299 98 299 98 299 194 c 4,38,39
 299 291 299 291 341.5 359 c 132,-1,40
 384 427 384 427 462.5 463.5 c 132,-1,41
 541 500 541 500 647 500 c 4,42,43
 700 500 700 500 745 490.5 c 132,-1,44
 790 481 790 481 829.5 464 c 132,-1,45
 869 447 869 447 906 424 c 5,46,-1
 857 358 l 5,47,48
 823 380 823 380 790 395 c 132,-1,49
 757 410 757 410 721 417.5 c 132,-1,50
 685 425 685 425 641 425 c 4,51,52
 559 425 559 425 501 398.5 c 132,-1,53
 443 372 443 372 412.5 321 c 132,-1,54
 382 270 382 270 382 197 c 4,55,56
 382 127 382 127 406.5 97 c 132,-1,57
 431 67 431 67 474 67 c 4,58,59
 521 67 521 67 547.5 99.5 c 132,-1,60
 574 132 574 132 578 185 c 5,61,-1
 656 185 l 5,62,63
 658 146 658 146 674.5 116 c 132,-1,64
 691 86 691 86 727 76 c 4,65,66
 744 69 744 69 765.5 66 c 132,-1,67
 787 63 787 63 814 63 c 4,68,69
 855 63 855 63 875 80.5 c 132,-1,70
 895 98 895 98 895 129 c 260,71,72
 895 160 895 160 876.5 174 c 132,-1,73
 858 188 858 188 829 188 c 4,74,75
 802 188 802 188 782.5 173.5 c 132,-1,76
 763 159 763 159 763 124 c 4,77,78
 763 99 763 99 773 79 c 132,-1,79
 783 59 783 59 797 46 c 5,80,-1
 731 35 l 5,81,82
 717 57 717 57 705 83 c 132,-1,83
 693 109 693 109 693 141 c 4,84,85
 693 197 693 197 731.5 231 c 132,-1,86
 770 265 770 265 833 265 c 4,87,88
 875 265 875 265 907 248 c 132,-1,89
 939 231 939 231 957 201.5 c 132,-1,90
 975 172 975 172 975 135 c 4,91,92
 975 97 975 97 962.5 69.5 c 132,-1,93
 950 42 950 42 927.5 24 c 132,-1,94
 905 6 905 6 875 -3 c 132,-1,95
 845 -12 845 -12 810 -12 c 4,26,27
EndSplineSet
EndChar

StartChar: e
Encoding: 101 101 71
Width: 1274
Flags: W
LayerCount: 2
Fore
SplineSet
653.83984375 -10 m 0,0,1
 608.83984375 -10 608.83984375 -10 572.33984375 11.5 c 128,-1,2
 535.83984375 33 535.83984375 33 509.83984375 73 c 128,-1,3
 483.83984375 113 483.83984375 113 469.33984375 168.5 c 128,-1,4
 454.83984375 224 454.83984375 224 454.83984375 292 c 0,5,6
 454.83984375 364 454.83984375 364 470.83984375 424.5 c 128,-1,7
 486.83984375 485 486.83984375 485 515.33984375 529.5 c 128,-1,8
 543.83984375 574 543.83984375 574 583.33984375 598.5 c 128,-1,9
 622.83984375 623 622.83984375 623 668.83984375 623 c 0,10,11
 702.83984375 623 702.83984375 623 731.33984375 610 c 128,-1,12
 759.83984375 597 759.83984375 597 779.83984375 573.5 c 128,-1,13
 799.83984375 550 799.83984375 550 810.33984375 518.5 c 128,-1,14
 820.83984375 487 820.83984375 487 818.83984375 450 c 0,15,16
 816.83984375 407 816.83984375 407 798.83984375 366.5 c 128,-1,17
 780.83984375 326 780.83984375 326 750.83984375 295 c 128,-1,18
 720.83984375 264 720.83984375 264 681.33984375 245.5 c 128,-1,19
 641.83984375 227 641.83984375 227 596.83984375 227 c 0,20,21
 579.83984375 227 579.83984375 227 579.83984375 213 c 0,22,23
 579.83984375 149 579.83984375 149 602.33984375 118.5 c 128,-1,24
 624.83984375 88 624.83984375 88 659.83984375 88 c 0,25,26
 685.83984375 88 685.83984375 88 703.33984375 107 c 128,-1,27
 720.83984375 126 720.83984375 126 720.83984375 155 c 0,28,29
 720.83984375 179 720.83984375 179 733.83984375 193.5 c 128,-1,30
 746.83984375 208 746.83984375 208 766.83984375 208 c 0,31,32
 789.83984375 208 789.83984375 208 803.33984375 189.5 c 128,-1,33
 816.83984375 171 816.83984375 171 816.83984375 139 c 0,34,35
 816.83984375 109 816.83984375 109 803.83984375 81.5 c 128,-1,36
 790.83984375 54 790.83984375 54 768.83984375 34 c 128,-1,37
 746.83984375 14 746.83984375 14 716.83984375 2 c 128,-1,38
 686.83984375 -10 686.83984375 -10 653.83984375 -10 c 0,0,1
523.83984375 477 m 0,39,40
 526.83984375 477 526.83984375 477 536.33984375 491.5 c 128,-1,41
 545.83984375 506 545.83984375 506 558.83984375 523.5 c 128,-1,42
 571.83984375 541 571.83984375 541 586.83984375 556.5 c 128,-1,43
 601.83984375 572 601.83984375 572 616.83984375 573 c 0,44,45
 621.83984375 574 621.83984375 574 626.33984375 576.5 c 128,-1,46
 630.83984375 579 630.83984375 579 629.83984375 582 c 0,47,48
 629.83984375 592 629.83984375 592 616.83984375 590 c 0,49,50
 599.83984375 589 599.83984375 589 582.33984375 576 c 128,-1,51
 564.83984375 563 564.83984375 563 550.33984375 545.5 c 128,-1,52
 535.83984375 528 535.83984375 528 526.83984375 510 c 128,-1,53
 517.83984375 492 517.83984375 492 518.83984375 481 c 0,54,55
 520.83984375 474 520.83984375 474 523.83984375 477 c 0,39,40
576.83984375 315 m 0,56,57
 579.83984375 311 579.83984375 311 590.83984375 311 c 0,58,59
 616.83984375 311 616.83984375 311 640.83984375 324 c 128,-1,60
 664.83984375 337 664.83984375 337 682.83984375 357 c 128,-1,61
 700.83984375 377 700.83984375 377 711.83984375 403 c 128,-1,62
 722.83984375 429 722.83984375 429 722.83984375 454 c 0,63,64
 722.83984375 486 722.83984375 486 707.33984375 507 c 128,-1,65
 691.83984375 528 691.83984375 528 668.83984375 528 c 0,66,67
 651.83984375 528 651.83984375 528 637.33984375 513.5 c 128,-1,68
 622.83984375 499 622.83984375 499 611.33984375 477.5 c 128,-1,69
 599.83984375 456 599.83984375 456 591.83984375 429.5 c 128,-1,70
 583.83984375 403 583.83984375 403 579.33984375 379.5 c 128,-1,71
 574.83984375 356 574.83984375 356 573.83984375 338 c 128,-1,72
 572.83984375 320 572.83984375 320 576.83984375 315 c 0,56,57
510.83984375 467 m 0,73,74
 505.83984375 466 505.83984375 466 502.83984375 459.5 c 128,-1,75
 499.83984375 453 499.83984375 453 500.83984375 445 c 0,76,77
 502.83984375 436 502.83984375 436 504.83984375 437 c 0,78,79
 509.83984375 437 509.83984375 437 513.83984375 446 c 128,-1,80
 517.83984375 455 517.83984375 455 515.83984375 462 c 0,81,82
 513.83984375 468 513.83984375 468 510.83984375 467 c 0,73,74
EndSplineSet
EndChar

StartChar: f
Encoding: 102 102 72
Width: 1274
Flags: W
LayerCount: 2
Fore
SplineSet
481.5 425 m 4,0,1
 452.5 425 452.5 425 426 436 c 132,-1,2
 399.5 447 399.5 447 377.5 477.5 c 132,-1,3
 355.5 508 355.5 508 339.5 564 c 5,4,-1
 422.5 591 l 5,5,6
 437.5 536 437.5 536 451.5 518 c 132,-1,7
 465.5 500 465.5 500 487.5 500 c 4,8,9
 507.5 500 507.5 500 525 512.5 c 132,-1,10
 542.5 525 542.5 525 574.5 565 c 6,11,-1
 605.5 605 l 6,12,13
 639.5 649 639.5 649 668 675 c 132,-1,14
 696.5 701 696.5 701 728.5 713 c 132,-1,15
 760.5 725 760.5 725 804.5 725 c 5,16,-1
 810.5 648 l 5,17,18
 775.5 646 775.5 646 752 637 c 132,-1,19
 728.5 628 728.5 628 709 608.5 c 132,-1,20
 689.5 589 689.5 589 663.5 556 c 6,21,-1
 640.5 526 l 6,22,23
 612.5 490 612.5 490 587.5 468 c 132,-1,24
 562.5 446 562.5 446 537 435.5 c 132,-1,25
 511.5 425 511.5 425 481.5 425 c 4,0,1
769.5 -12 m 4,26,27
 721.5 -12 721.5 -12 686 6 c 132,-1,28
 650.5 24 650.5 24 620.5 56 c 132,-1,29
 590.5 88 590.5 88 557.5 131 c 4,30,31
 528.5 171 528.5 171 507.5 189 c 132,-1,32
 486.5 207 486.5 207 456.5 207 c 4,33,34
 428.5 207 428.5 207 410 189 c 132,-1,35
 391.5 171 391.5 171 391.5 136 c 4,36,37
 391.5 105 391.5 105 411 84 c 132,-1,38
 430.5 63 430.5 63 464.5 63 c 260,39,40
 498.5 63 498.5 63 521 83 c 132,-1,41
 543.5 103 543.5 103 559.5 141 c 5,42,-1
 612.5 81 l 5,43,44
 593.5 54 593.5 54 572.5 33 c 132,-1,45
 551.5 12 551.5 12 525 0 c 132,-1,46
 498.5 -12 498.5 -12 459.5 -12 c 4,47,48
 406.5 -12 406.5 -12 374.5 10 c 132,-1,49
 342.5 32 342.5 32 328 66.5 c 132,-1,50
 313.5 101 313.5 101 313.5 138 c 4,51,52
 313.5 182 313.5 182 332.5 214 c 132,-1,53
 351.5 246 351.5 246 383.5 264 c 132,-1,54
 415.5 282 415.5 282 454.5 282 c 4,55,56
 490.5 282 490.5 282 518.5 269.5 c 132,-1,57
 546.5 257 546.5 257 573.5 230.5 c 132,-1,58
 600.5 204 600.5 204 632.5 161 c 4,59,60
 659.5 126 659.5 126 680.5 105 c 132,-1,61
 701.5 84 701.5 84 723.5 75.5 c 132,-1,62
 745.5 67 745.5 67 774.5 67 c 4,63,64
 824.5 67 824.5 67 851 99.5 c 132,-1,65
 877.5 132 877.5 132 877.5 193 c 4,66,67
 877.5 251 877.5 251 854.5 294.5 c 132,-1,68
 831.5 338 831.5 338 791.5 369.5 c 132,-1,69
 751.5 401 751.5 401 701.5 423 c 5,70,-1
 739.5 500 l 5,71,72
 801.5 474 801.5 474 851.5 430 c 132,-1,73
 901.5 386 901.5 386 931 327.5 c 132,-1,74
 960.5 269 960.5 269 960.5 198 c 4,75,76
 960.5 132 960.5 132 938 85 c 132,-1,77
 915.5 38 915.5 38 873 13 c 132,-1,78
 830.5 -12 830.5 -12 769.5 -12 c 4,26,27
564.5 -125 m 5,79,-1
 571.5 16 l 5,80,-1
 646.5 16 l 5,81,-1
 654.5 -125 l 5,82,-1
 564.5 -125 l 5,79,-1
EndSplineSet
EndChar

StartChar: g
Encoding: 103 103 73
Width: 1274
Flags: W
LayerCount: 2
Fore
SplineSet
656.5 -5 m 0,0,1
 589.5 -5 589.5 -5 545.5 28 c 128,-1,2
 501.5 61 501.5 61 475.5 111 c 128,-1,3
 449.5 161 449.5 161 439.5 219 c 128,-1,4
 429.5 277 429.5 277 429.5 328 c 0,5,6
 429.5 384 429.5 384 441 437.5 c 128,-1,7
 452.5 491 452.5 491 479.5 532.5 c 128,-1,8
 506.5 574 506.5 574 550 599.5 c 128,-1,9
 593.5 625 593.5 625 657.5 625 c 0,10,11
 688.5 625 688.5 625 717 616.5 c 128,-1,12
 745.5 608 745.5 608 767.5 589.5 c 128,-1,13
 789.5 571 789.5 571 802.5 540.5 c 128,-1,14
 815.5 510 815.5 510 815.5 466 c 0,15,16
 815.5 450 815.5 450 809 440.5 c 128,-1,17
 802.5 431 802.5 431 793 425.5 c 128,-1,18
 783.5 420 783.5 420 773.5 418.5 c 128,-1,19
 763.5 417 763.5 417 757.5 417 c 0,20,21
 743.5 417 743.5 417 731 427 c 128,-1,22
 718.5 437 718.5 437 718.5 466 c 0,23,24
 718.5 511 718.5 511 698 529 c 128,-1,25
 677.5 547 677.5 547 648.5 547 c 0,26,27
 628.5 547 628.5 547 610 530.5 c 128,-1,28
 591.5 514 591.5 514 577.5 483.5 c 128,-1,29
 563.5 453 563.5 453 555.5 410 c 128,-1,30
 547.5 367 547.5 367 547.5 314 c 0,31,32
 547.5 285 547.5 285 551 245 c 128,-1,33
 554.5 205 554.5 205 566.5 169 c 128,-1,34
 578.5 133 578.5 133 600.5 107.5 c 128,-1,35
 622.5 82 622.5 82 658.5 82 c 0,36,37
 687.5 82 687.5 82 704 96.5 c 128,-1,38
 720.5 111 720.5 111 728 132 c 128,-1,39
 735.5 153 735.5 153 737 175.5 c 128,-1,40
 738.5 198 738.5 198 737.5 214 c 256,41,42
 736.5 230 736.5 230 724 231.5 c 128,-1,43
 711.5 233 711.5 233 688.5 233 c 2,44,-1
 637.5 233 l 2,45,46
 631.5 233 631.5 233 626.5 239 c 128,-1,47
 621.5 245 621.5 245 618.5 253.5 c 128,-1,48
 615.5 262 615.5 262 613.5 271 c 128,-1,49
 611.5 280 611.5 280 611.5 286 c 0,50,51
 611.5 302 611.5 302 622 314.5 c 128,-1,52
 632.5 327 632.5 327 655.5 327 c 2,53,-1
 763.5 326 l 2,54,55
 794.5 326 794.5 326 819.5 306 c 128,-1,56
 844.5 286 844.5 286 844.5 249 c 0,57,58
 844.5 206 844.5 206 835 161 c 128,-1,59
 825.5 116 825.5 116 803.5 79 c 128,-1,60
 781.5 42 781.5 42 745.5 18.5 c 128,-1,61
 709.5 -5 709.5 -5 656.5 -5 c 0,0,1
561.5 58 m 0,62,63
 561.5 62 561.5 62 541.5 84 c 0,64,65
 532.5 93 532.5 93 523.5 106.5 c 128,-1,66
 514.5 120 514.5 120 507 133 c 128,-1,67
 499.5 146 499.5 146 495 157.5 c 128,-1,68
 490.5 169 490.5 169 490.5 173 c 0,69,70
 490.5 178 490.5 178 487.5 179.5 c 128,-1,71
 484.5 181 484.5 181 483.5 181 c 0,72,73
 475.5 181 475.5 181 475.5 170 c 256,74,75
 475.5 159 475.5 159 484.5 139 c 128,-1,76
 493.5 119 493.5 119 506 99.5 c 128,-1,77
 518.5 80 518.5 80 532 66 c 128,-1,78
 545.5 52 545.5 52 555.5 52 c 0,79,80
 561.5 52 561.5 52 561.5 58 c 0,62,63
584.5 45 m 0,81,82
 584.5 52 584.5 52 577.5 52 c 0,83,84
 573.5 52 573.5 52 572 49 c 128,-1,85
 570.5 46 570.5 46 570.5 44 c 0,86,87
 570.5 39 570.5 39 573 38 c 128,-1,88
 575.5 37 575.5 37 577.5 37 c 0,89,90
 584.5 37 584.5 37 584.5 45 c 0,81,82
EndSplineSet
EndChar

StartChar: h
Encoding: 104 104 74
Width: 1274
Flags: W
LayerCount: 2
Fore
SplineSet
509.509765625 0 m 0,0,1
 484.509765625 0 484.509765625 0 474.509765625 14.5 c 128,-1,2
 464.509765625 29 464.509765625 29 464.509765625 65 c 2,3,-1
 464.509765625 343 l 2,4,5
 464.509765625 434 464.509765625 434 462.509765625 518 c 0,6,7
 461.509765625 616 461.509765625 616 512.509765625 616 c 0,8,9
 531.509765625 616 531.509765625 616 549.509765625 606.5 c 128,-1,10
 567.509765625 597 567.509765625 597 567.509765625 571 c 2,11,-1
 567.509765625 358 l 2,12,13
 567.509765625 318 567.509765625 318 571.509765625 318 c 256,14,15
 575.509765625 318 575.509765625 318 580.509765625 334 c 128,-1,16
 585.509765625 350 585.509765625 350 597.509765625 369.5 c 128,-1,17
 609.509765625 389 609.509765625 389 631.509765625 405 c 128,-1,18
 653.509765625 421 653.509765625 421 689.509765625 421 c 0,19,20
 753.509765625 421 753.509765625 421 782.509765625 358 c 128,-1,21
 811.509765625 295 811.509765625 295 811.509765625 157 c 2,22,-1
 811.509765625 31 l 2,23,24
 811.509765625 0 811.509765625 0 755.509765625 0 c 0,25,26
 728.509765625 0 728.509765625 0 716.509765625 11.5 c 128,-1,27
 704.509765625 23 704.509765625 23 704.509765625 34 c 2,28,-1
 704.509765625 148 l 2,29,30
 704.509765625 200 704.509765625 200 701.509765625 232 c 128,-1,31
 698.509765625 264 698.509765625 264 692.509765625 282 c 128,-1,32
 686.509765625 300 686.509765625 300 677.009765625 306.5 c 128,-1,33
 667.509765625 313 667.509765625 313 653.509765625 313 c 0,34,35
 632.509765625 313 632.509765625 313 617.009765625 293.5 c 128,-1,36
 601.509765625 274 601.509765625 274 591.509765625 241 c 128,-1,37
 581.509765625 208 581.509765625 208 577.009765625 163.5 c 0,38,39
 572.509765625 123 572.509765625 123 572.509765625 121 c 2,40,-1
 572.509765625 45 l 2,41,42
 572.509765625 30 572.509765625 30 565.009765625 21 c 128,-1,43
 557.509765625 12 557.509765625 12 547.509765625 7.5 c 128,-1,44
 537.509765625 3 537.509765625 3 527.009765625 1.5 c 128,-1,45
 516.509765625 0 516.509765625 0 509.509765625 0 c 0,0,1
484.509765625 316 m 0,46,47
 487.509765625 316 487.509765625 316 489.509765625 328 c 128,-1,48
 491.509765625 340 491.509765625 340 493.509765625 355 c 128,-1,49
 495.509765625 370 495.509765625 370 496.509765625 482 c 128,-1,50
 497.509765625 594 497.509765625 594 497.509765625 595 c 0,51,52
 497.509765625 597 497.509765625 597 497.009765625 600 c 128,-1,53
 496.509765625 603 496.509765625 603 494.509765625 603 c 0,54,55
 489.509765625 603 489.509765625 603 486.009765625 595.5 c 128,-1,56
 482.509765625 588 482.509765625 588 480.509765625 479 c 128,-1,57
 478.509765625 370 478.509765625 370 477.509765625 360.5 c 128,-1,58
 476.509765625 351 476.509765625 351 476.509765625 348 c 0,59,60
 476.509765625 340 476.509765625 340 478.509765625 328 c 128,-1,61
 480.509765625 316 480.509765625 316 484.509765625 316 c 0,46,47
741.509765625 29 m 0,62,63
 741.509765625 35 741.509765625 35 739.509765625 38 c 128,-1,64
 737.509765625 41 737.509765625 41 735.009765625 43 c 128,-1,65
 732.509765625 45 732.509765625 45 730.509765625 49 c 128,-1,66
 728.509765625 53 728.509765625 53 728.509765625 60 c 0,67,68
 728.509765625 76 728.509765625 76 727.009765625 80 c 128,-1,69
 725.509765625 84 725.509765625 84 720.509765625 84 c 256,70,71
 715.509765625 84 715.509765625 84 714.009765625 76.5 c 128,-1,72
 712.509765625 69 712.509765625 69 712.509765625 59 c 0,73,74
 712.509765625 39 712.509765625 39 718.509765625 27 c 128,-1,75
 724.509765625 15 724.509765625 15 732.509765625 15 c 0,76,77
 735.509765625 15 735.509765625 15 738.509765625 18.5 c 128,-1,78
 741.509765625 22 741.509765625 22 741.509765625 29 c 0,62,63
508.509765625 26 m 0,79,80
 508.509765625 31 508.509765625 31 506.009765625 33.5 c 128,-1,81
 503.509765625 36 503.509765625 36 500.509765625 38.5 c 128,-1,82
 497.509765625 41 497.509765625 41 495.009765625 45 c 128,-1,83
 492.509765625 49 492.509765625 49 492.509765625 56 c 0,84,85
 492.509765625 77 492.509765625 77 485.509765625 77 c 0,86,87
 483.509765625 77 483.509765625 77 481.509765625 69.5 c 128,-1,88
 479.509765625 62 479.509765625 62 479.509765625 51 c 0,89,90
 479.509765625 36 479.509765625 36 486.009765625 24 c 128,-1,91
 492.509765625 12 492.509765625 12 500.509765625 12 c 0,92,93
 502.509765625 12 502.509765625 12 505.509765625 16 c 128,-1,94
 508.509765625 20 508.509765625 20 508.509765625 26 c 0,79,80
EndSplineSet
EndChar

StartChar: i
Encoding: 105 105 75
Width: 1274
Flags: W
LayerCount: 2
Fore
SplineSet
628.674804688 -4 m 256,0,1
 604.674804688 -4 604.674804688 -4 591.674804688 6.5 c 128,-1,2
 578.674804688 17 578.674804688 17 578.674804688 32 c 2,3,-1
 578.674804688 387 l 2,4,5
 578.674804688 396 578.674804688 396 581.174804688 408 c 128,-1,6
 583.674804688 420 583.674804688 420 589.174804688 430 c 128,-1,7
 594.674804688 440 594.674804688 440 604.174804688 447 c 128,-1,8
 613.674804688 454 613.674804688 454 628.674804688 454 c 256,9,10
 643.674804688 454 643.674804688 454 654.174804688 448 c 128,-1,11
 664.674804688 442 664.674804688 442 671.174804688 433 c 128,-1,12
 677.674804688 424 677.674804688 424 681.174804688 413 c 128,-1,13
 684.674804688 402 684.674804688 402 684.674804688 392 c 2,14,-1
 684.674804688 32 l 2,15,16
 684.674804688 16 684.674804688 16 668.674804688 6 c 128,-1,17
 652.674804688 -4 652.674804688 -4 628.674804688 -4 c 256,0,1
596.674804688 357 m 0,18,19
 599.674804688 357 599.674804688 357 600.674804688 363 c 128,-1,20
 601.674804688 369 601.674804688 369 601.674804688 377.5 c 128,-1,21
 601.674804688 386 601.674804688 386 602.174804688 395.5 c 128,-1,22
 602.674804688 405 602.674804688 405 604.674804688 411 c 0,23,24
 605.674804688 415 605.674804688 415 607.674804688 422 c 128,-1,25
 609.674804688 429 609.674804688 429 606.674804688 429 c 0,26,27
 601.674804688 429 601.674804688 429 598.174804688 423.5 c 128,-1,28
 594.674804688 418 594.674804688 418 592.174804688 410.5 c 128,-1,29
 589.674804688 403 589.674804688 403 588.674804688 395.5 c 128,-1,30
 587.674804688 388 587.674804688 388 587.674804688 383 c 0,31,32
 587.674804688 374 587.674804688 374 589.674804688 365.5 c 128,-1,33
 591.674804688 357 591.674804688 357 596.674804688 357 c 0,18,19
632.141601562 523.2265625 m 4,34,35
 596.674804688 523 596.674804688 523 571.676757812 552.055664062 c 132,-1,36
 546.674804688 581 546.674804688 581 546.51953125 626.186523438 c 4,37,38
 546.674804688 651 546.674804688 651 554.022460938 673.033203125 c 4,39,40
 561.674804688 695 561.674804688 695 574.765625 711.12890625 c 4,41,42
 587.674804688 727 587.674804688 727 606.54296875 736.868164062 c 4,43,44
 624.674804688 747 624.674804688 747 647.147460938 746.649414062 c 4,45,46
 664.674804688 747 664.674804688 747 679.806640625 737.8984375 c 4,47,48
 694.674804688 729 694.674804688 729 705.40625 713.702148438 c 4,49,50
 715.674804688 698 715.674804688 698 721.735351562 678.696289062 c 4,51,52
 727.674804688 659 727.674804688 659 727.473632812 637.51171875 c 4,53,54
 727.674804688 610 727.674804688 610 719.969726562 588.606445312 c 4,55,56
 712.674804688 567 712.674804688 567 699.2265625 553.083984375 c 132,-1,57
 685.674804688 539 685.674804688 539 668.7734375 530.948242188 c 4,58,59
 650.674804688 523 650.674804688 523 632.141601562 523.2265625 c 4,34,35
599.481445312 701.34765625 m 4,60,61
 605.674804688 709 605.674804688 709 606.984375 713.702148438 c 4,62,63
 608.674804688 719 608.674804688 719 606.54296875 718.850585938 c 4,64,65
 599.674804688 719 599.674804688 719 591.537109375 711.12890625 c 4,66,67
 583.674804688 703 583.674804688 703 576.97265625 692.595703125 c 4,68,69
 570.674804688 682 570.674804688 682 565.939453125 669.4296875 c 4,70,71
 560.674804688 654 560.674804688 654 561.525390625 646.778320312 c 4,72,73
 561.674804688 645 561.674804688 645 562.848632812 638.541015625 c 4,74,75
 563.674804688 632 563.674804688 632 566.822265625 632.36328125 c 4,76,77
 570.674804688 633 570.674804688 633 575.6484375 655.015625 c 4,78,79
 578.674804688 669 578.674804688 669 585.358398438 681.26953125 c 4,80,81
 591.674804688 693 591.674804688 693 599.481445312 701.34765625 c 4,60,61
635.671875 581.913085938 m 4,82,83
 646.674804688 582 646.674804688 582 660.829101562 596.328125 c 4,84,85
 675.674804688 611 675.674804688 611 675.393554688 637.51171875 c 4,86,87
 675.674804688 658 675.674804688 658 666.125976562 672.002929688 c 132,-1,88
 656.674804688 686 656.674804688 686 641.850585938 685.903320312 c 260,89,90
 626.674804688 686 626.674804688 686 614.487304688 672.002929688 c 4,91,92
 601.674804688 657 601.674804688 657 602.12890625 633.393554688 c 260,93,94
 602.674804688 609 602.674804688 609 611.838867188 595.298828125 c 4,95,96
 621.674804688 582 621.674804688 582 635.671875 581.913085938 c 4,82,83
EndSplineSet


EndChar

StartChar: j
Encoding: 106 106 76
Width: 1274
Flags: W
LayerCount: 2
Fore
SplineSet
673 559 m 256,0,1
 647 559 647 559 631 574.5 c 128,-1,2
 615 590 615 590 615 616 c 0,3,4
 615 643 615 643 631.5 660 c 128,-1,5
 648 677 648 677 675 677 c 256,6,7
 702 677 702 677 719 661.5 c 128,-1,8
 736 646 736 646 736 621 c 0,9,10
 736 595 736 595 717.5 577 c 128,-1,11
 699 559 699 559 673 559 c 256,0,1
641 618 m 0,12,13
 643 627 643 627 646.5 631.5 c 128,-1,14
 650 636 650 636 654 638.5 c 128,-1,15
 658 641 658 641 661 643.5 c 128,-1,16
 664 646 664 646 664 650 c 0,17,18
 664 660 664 660 654 660 c 0,19,20
 642 660 642 660 634 646.5 c 128,-1,21
 626 633 626 633 626 618 c 0,22,23
 626 611 626 611 627.5 601.5 c 128,-1,24
 629 592 629 592 635 592 c 0,25,26
 640 592 640 592 640 603.5 c 128,-1,27
 640 615 640 615 641 618 c 0,12,13
728 82 m 2,28,29
 728 35 728 35 721.5 -3.5 c 128,-1,30
 715 -42 715 -42 700 -69.5 c 128,-1,31
 685 -97 685 -97 659.5 -112 c 128,-1,32
 634 -127 634 -127 595 -127 c 0,33,34
 564 -127 564 -127 551 -113.5 c 128,-1,35
 538 -100 538 -100 538 -72 c 0,36,37
 538 -56 538 -56 543 -38.5 c 128,-1,38
 548 -21 548 -21 562 -21 c 0,39,40
 569 -21 569 -21 575.5 -23.5 c 128,-1,41
 582 -26 582 -26 590 -26 c 0,42,43
 606 -26 606 -26 614 -3 c 128,-1,44
 622 20 622 20 622 82 c 2,45,-1
 622 439 l 2,46,47
 622 448 622 448 624.5 460 c 128,-1,48
 627 472 627 472 632.5 482 c 128,-1,49
 638 492 638 492 647.5 499 c 128,-1,50
 657 506 657 506 672 506 c 256,51,52
 687 506 687 506 697.5 500 c 128,-1,53
 708 494 708 494 714.5 485 c 128,-1,54
 721 476 721 476 724.5 465 c 128,-1,55
 728 454 728 454 728 444 c 2,56,-1
 728 82 l 2,28,29
640 409 m 0,57,58
 643 409 643 409 644 415 c 128,-1,59
 645 421 645 421 645 429.5 c 128,-1,60
 645 438 645 438 645.5 447.5 c 128,-1,61
 646 457 646 457 648 463 c 0,62,63
 649 467 649 467 651 474 c 128,-1,64
 653 481 653 481 650 481 c 0,65,66
 645 481 645 481 641.5 475.5 c 128,-1,67
 638 470 638 470 635.5 462.5 c 128,-1,68
 633 455 633 455 632 447.5 c 128,-1,69
 631 440 631 440 631 435 c 0,70,71
 631 426 631 426 633 417.5 c 128,-1,72
 635 409 635 409 640 409 c 0,57,58
582 -103 m 0,73,74
 582 -91 582 -91 573.5 -83 c 128,-1,75
 565 -75 565 -75 565 -66 c 0,76,77
 565 -52 565 -52 562.5 -47.5 c 128,-1,78
 560 -43 560 -43 556 -43 c 0,79,80
 553 -43 553 -43 551.5 -49.5 c 128,-1,81
 550 -56 550 -56 550 -64 c 0,82,83
 550 -83 550 -83 557 -97 c 128,-1,84
 564 -111 564 -111 572 -111 c 0,85,86
 575 -111 575 -111 578.5 -109.5 c 128,-1,87
 582 -108 582 -108 582 -103 c 0,73,74
EndSplineSet


EndChar

StartChar: k
Encoding: 107 107 77
Width: 1274
Flags: W
LayerCount: 2
Fore
SplineSet
580.5 425 m 4,0,1
 551.5 425 551.5 425 525 436 c 132,-1,2
 498.5 447 498.5 447 476.5 477.5 c 132,-1,3
 454.5 508 454.5 508 438.5 564 c 5,4,-1
 521.5 591 l 5,5,6
 536.5 536 536.5 536 550.5 518 c 132,-1,7
 564.5 500 564.5 500 586.5 500 c 4,8,9
 606.5 500 606.5 500 624 512.5 c 132,-1,10
 641.5 525 641.5 525 673.5 565 c 6,11,-1
 704.5 605 l 6,12,13
 738.5 649 738.5 649 767 675 c 132,-1,14
 795.5 701 795.5 701 827.5 713 c 132,-1,15
 859.5 725 859.5 725 903.5 725 c 5,16,-1
 909.5 648 l 5,17,18
 874.5 646 874.5 646 851 637 c 132,-1,19
 827.5 628 827.5 628 808 608.5 c 132,-1,20
 788.5 589 788.5 589 762.5 556 c 6,21,-1
 739.5 526 l 6,22,23
 711.5 490 711.5 490 686.5 468 c 132,-1,24
 661.5 446 661.5 446 636 435.5 c 132,-1,25
 610.5 425 610.5 425 580.5 425 c 4,0,1
610.5 -12 m 4,26,27
 546.5 -12 546.5 -12 495 6 c 132,-1,28
 443.5 24 443.5 24 410 59 c 132,-1,29
 376.5 94 376.5 94 364.5 146 c 5,30,-1
 450.5 169 l 5,31,32
 459.5 138 459.5 138 478 115 c 132,-1,33
 496.5 92 496.5 92 529 79.5 c 132,-1,34
 561.5 67 561.5 67 613.5 67 c 4,35,36
 666.5 67 666.5 67 697 76.5 c 132,-1,37
 727.5 86 727.5 86 741 102.5 c 132,-1,38
 754.5 119 754.5 119 754.5 141 c 4,39,40
 754.5 161 754.5 161 744.5 176 c 132,-1,41
 734.5 191 734.5 191 710.5 200.5 c 132,-1,42
 686.5 210 686.5 210 643.5 213 c 6,43,-1
 578.5 218 l 6,44,45
 526.5 222 526.5 222 489 230.5 c 132,-1,46
 451.5 239 451.5 239 427.5 258 c 4,47,48
 406.5 274 406.5 274 395 298.5 c 132,-1,49
 383.5 323 383.5 323 383.5 357 c 4,50,51
 383.5 398 383.5 398 407.5 430.5 c 132,-1,52
 431.5 463 431.5 463 479 481.5 c 132,-1,53
 526.5 500 526.5 500 598.5 500 c 4,54,55
 664.5 500 664.5 500 709 487.5 c 132,-1,56
 753.5 475 753.5 475 783 444.5 c 132,-1,57
 812.5 414 812.5 414 830.5 360 c 5,58,-1
 744.5 338 l 5,59,60
 735.5 367 735.5 367 719 386.5 c 132,-1,61
 702.5 406 702.5 406 673.5 415.5 c 132,-1,62
 644.5 425 644.5 425 598.5 425 c 4,63,64
 548.5 425 548.5 425 519.5 416 c 132,-1,65
 490.5 407 490.5 407 478.5 392 c 132,-1,66
 466.5 377 466.5 377 466.5 358 c 4,67,68
 466.5 331 466.5 331 489 315.5 c 132,-1,69
 511.5 300 511.5 300 577.5 295 c 6,70,-1
 654.5 290 l 6,71,72
 706.5 286 706.5 286 739 275 c 132,-1,73
 771.5 264 771.5 264 792.5 247 c 4,74,75
 815.5 228 815.5 228 826.5 201 c 132,-1,76
 837.5 174 837.5 174 837.5 142 c 4,77,78
 837.5 92 837.5 92 812 57.5 c 132,-1,79
 786.5 23 786.5 23 736 5.5 c 132,-1,80
 685.5 -12 685.5 -12 610.5 -12 c 4,26,27
EndSplineSet
EndChar

StartChar: l
Encoding: 108 108 78
Width: 1274
Flags: W
LayerCount: 2
Fore
SplineSet
638.5 -12 m 0,0,1
 533.5 -12 533.5 -12 462 24 c 128,-1,2
 390.5 60 390.5 60 354 123.5 c 128,-1,3
 317.5 187 317.5 187 317.5 269 c 0,4,5
 317.5 343 317.5 343 343 394.5 c 128,-1,6
 368.5 446 368.5 446 411.5 473 c 128,-1,7
 454.5 500 454.5 500 507.5 500 c 0,8,9
 547.5 500 547.5 500 577 484.5 c 128,-1,10
 606.5 469 606.5 469 623 440.5 c 128,-1,11
 639.5 412 639.5 412 639.5 373 c 0,12,13
 639.5 333 639.5 333 622.5 301.5 c 128,-1,14
 605.5 270 605.5 270 571 252.5 c 128,-1,15
 536.5 235 536.5 235 483.5 235 c 0,16,17
 450.5 235 450.5 235 422.5 246 c 128,-1,18
 394.5 257 394.5 257 374 273 c 128,-1,19
 353.5 289 353.5 289 340.5 304 c 1,20,-1
 363.5 366 l 1,21,22
 371.5 355 371.5 355 386 340.5 c 128,-1,23
 400.5 326 400.5 326 423.5 315.5 c 128,-1,24
 446.5 305 446.5 305 478.5 305 c 0,25,26
 519.5 305 519.5 305 540 322 c 128,-1,27
 560.5 339 560.5 339 560.5 369 c 0,28,29
 560.5 398 560.5 398 544.5 413.5 c 128,-1,30
 528.5 429 528.5 429 502.5 429 c 0,31,32
 454.5 429 454.5 429 425.5 390 c 128,-1,33
 396.5 351 396.5 351 396.5 284 c 2,34,-1
 396.5 266 l 2,35,36
 396.5 226 396.5 226 411 190.5 c 128,-1,37
 425.5 155 425.5 155 454.5 127 c 128,-1,38
 483.5 99 483.5 99 529 83 c 128,-1,39
 574.5 67 574.5 67 635.5 67 c 0,40,41
 745.5 67 745.5 67 809.5 113 c 128,-1,42
 873.5 159 873.5 159 873.5 245 c 0,43,44
 873.5 303 873.5 303 841 349 c 128,-1,45
 808.5 395 808.5 395 739.5 423 c 1,46,-1
 779.5 500 l 1,47,48
 862.5 464 862.5 464 909.5 400 c 128,-1,49
 956.5 336 956.5 336 956.5 250 c 0,50,51
 956.5 176 956.5 176 923.5 116.5 c 128,-1,52
 890.5 57 890.5 57 820 22.5 c 128,-1,53
 749.5 -12 749.5 -12 638.5 -12 c 0,0,1
EndSplineSet
EndChar

StartChar: m
Encoding: 109 109 79
Width: 1274
Flags: W
LayerCount: 2
Fore
SplineSet
939 -12 m 4,0,1
 872 -12 872 -12 821.5 22 c 132,-1,2
 771 56 771 56 732 111 c 5,3,-1
 772 176 l 5,4,5
 800 139 800 139 827.5 115 c 132,-1,6
 855 91 855 91 884.5 79 c 132,-1,7
 914 67 914 67 946 67 c 4,8,9
 997 67 997 67 1024 99.5 c 132,-1,10
 1051 132 1051 132 1051 193 c 4,11,12
 1051 251 1051 251 1027.5 294.5 c 132,-1,13
 1004 338 1004 338 964.5 369.5 c 132,-1,14
 925 401 925 401 875 423 c 5,15,-1
 912 500 l 5,16,17
 974 474 974 474 1024 430 c 132,-1,18
 1074 386 1074 386 1104 328 c 132,-1,19
 1134 270 1134 270 1134 199 c 4,20,21
 1134 100 1134 100 1084 44 c 132,-1,22
 1034 -12 1034 -12 939 -12 c 4,0,1
592 -12 m 4,23,24
 546 -12 546 -12 511 6 c 132,-1,25
 476 24 476 24 446.5 56 c 132,-1,26
 417 88 417 88 384 131 c 4,27,28
 355 171 355 171 334 189 c 132,-1,29
 313 207 313 207 283 207 c 4,30,31
 255 207 255 207 236.5 189 c 132,-1,32
 218 171 218 171 218 136 c 4,33,34
 218 105 218 105 237.5 84 c 132,-1,35
 257 63 257 63 291 63 c 260,36,37
 325 63 325 63 347.5 83 c 132,-1,38
 370 103 370 103 386 141 c 5,39,-1
 439 81 l 5,40,41
 420 54 420 54 399 33 c 132,-1,42
 378 12 378 12 351.5 0 c 132,-1,43
 325 -12 325 -12 286 -12 c 4,44,45
 233 -12 233 -12 201 10 c 132,-1,46
 169 32 169 32 154.5 66.5 c 132,-1,47
 140 101 140 101 140 138 c 4,48,49
 140 182 140 182 159 214 c 132,-1,50
 178 246 178 246 210 264 c 132,-1,51
 242 282 242 282 281 282 c 4,52,53
 317 282 317 282 345 269.5 c 132,-1,54
 373 257 373 257 400 230.5 c 132,-1,55
 427 204 427 204 459 161 c 4,56,57
 486 126 486 126 507 105 c 132,-1,58
 528 84 528 84 549 75.5 c 132,-1,59
 570 67 570 67 597 67 c 4,60,61
 650 67 650 67 677 99 c 132,-1,62
 704 131 704 131 704 192 c 4,63,64
 704 249 704 249 681 292.5 c 132,-1,65
 658 336 658 336 617 365.5 c 132,-1,66
 576 395 576 395 521 410 c 132,-1,67
 466 425 466 425 403 425 c 6,68,-1
 354 425 l 5,69,-1
 437 500 l 5,70,71
 548 493 548 493 626.5 452.5 c 132,-1,72
 705 412 705 412 746 345.5 c 132,-1,73
 787 279 787 279 787 194 c 4,74,75
 787 135 787 135 766 88 c 132,-1,76
 745 41 745 41 701.5 14.5 c 132,-1,77
 658 -12 658 -12 592 -12 c 4,23,24
350 425 m 4,78,79
 321 425 321 425 294.5 436 c 132,-1,80
 268 447 268 447 246 477.5 c 132,-1,81
 224 508 224 508 208 564 c 5,82,-1
 291 591 l 5,83,84
 306 536 306 536 320 518 c 132,-1,85
 334 500 334 500 356 500 c 4,86,87
 376 500 376 500 393.5 512.5 c 132,-1,88
 411 525 411 525 443 565 c 6,89,-1
 474 605 l 6,90,91
 508 649 508 649 536.5 675 c 132,-1,92
 565 701 565 701 597 713 c 132,-1,93
 629 725 629 725 673 725 c 5,94,-1
 679 648 l 5,95,96
 644 646 644 646 620.5 637 c 132,-1,97
 597 628 597 628 577.5 608.5 c 132,-1,98
 558 589 558 589 532 556 c 6,99,-1
 509 526 l 6,100,101
 481 490 481 490 456 468 c 132,-1,102
 431 446 431 446 405.5 435.5 c 132,-1,103
 380 425 380 425 350 425 c 4,78,79
EndSplineSet
EndChar

StartChar: n
Encoding: 110 110 80
Width: 1274
Flags: W
LayerCount: 2
Fore
SplineSet
761 -12 m 0,0,1
 714 -12 714 -12 679 3.5 c 128,-1,2
 644 19 644 19 613 51.5 c 128,-1,3
 582 84 582 84 545 133 c 0,4,5
 524 162 524 162 509.5 178.5 c 128,-1,6
 495 195 495 195 482.5 202 c 128,-1,7
 470 209 470 209 453 209 c 0,8,9
 430 209 430 209 415 190.5 c 128,-1,10
 400 172 400 172 400 143 c 0,11,12
 400 108 400 108 412 77 c 128,-1,13
 424 46 424 46 448 14 c 1,14,-1
 367 -13 l 1,15,16
 345 22 345 22 331.5 59.5 c 128,-1,17
 318 97 318 97 318 143 c 0,18,19
 318 184 318 184 335.5 216 c 128,-1,20
 353 248 353 248 383.5 267 c 128,-1,21
 414 286 414 286 454 286 c 0,22,23
 493 286 493 286 519.5 272.5 c 128,-1,24
 546 259 546 259 568.5 234.5 c 128,-1,25
 591 210 591 210 617 175 c 0,26,27
 647 136 647 136 669.5 112 c 128,-1,28
 692 88 692 88 714.5 77.5 c 128,-1,29
 737 67 737 67 767 67 c 0,30,31
 819 67 819 67 846 100 c 128,-1,32
 873 133 873 133 873 194 c 0,33,34
 873 250 873 250 850 293 c 128,-1,35
 827 336 827 336 786 365.5 c 128,-1,36
 745 395 745 395 690 410 c 128,-1,37
 635 425 635 425 571 425 c 2,38,-1
 527 425 l 1,39,-1
 605 500 l 1,40,41
 717 493 717 493 795 452.5 c 128,-1,42
 873 412 873 412 914.5 345.5 c 128,-1,43
 956 279 956 279 956 194 c 0,44,45
 956 132 956 132 934 85.5 c 128,-1,46
 912 39 912 39 869 13.5 c 128,-1,47
 826 -12 826 -12 761 -12 c 0,0,1
525 425 m 0,48,49
 496 425 496 425 469.5 436 c 128,-1,50
 443 447 443 447 421 477.5 c 128,-1,51
 399 508 399 508 383 564 c 1,52,-1
 466 591 l 1,53,54
 481 536 481 536 495 518 c 128,-1,55
 509 500 509 500 531 500 c 0,56,57
 551 500 551 500 568.5 512.5 c 128,-1,58
 586 525 586 525 618 565 c 2,59,-1
 649 605 l 2,60,61
 683 649 683 649 711.5 675 c 128,-1,62
 740 701 740 701 772 713 c 128,-1,63
 804 725 804 725 848 725 c 1,64,-1
 854 648 l 1,65,66
 819 646 819 646 795.5 637 c 128,-1,67
 772 628 772 628 752.5 608.5 c 128,-1,68
 733 589 733 589 707 556 c 2,69,-1
 684 526 l 2,70,71
 656 490 656 490 631 468 c 128,-1,72
 606 446 606 446 580.5 435.5 c 128,-1,73
 555 425 555 425 525 425 c 0,48,49
EndSplineSet
EndChar

StartChar: o
Encoding: 111 111 81
Width: 1274
Flags: W
LayerCount: 2
Fore
SplineSet
647 247.5 m 4,0,1
 622 247.5 622 247.5 604.5 263 c 132,-1,2
 587 278.5 587 278.5 587 305.5 c 4,3,4
 587 331.5 587 331.5 604.5 353 c 132,-1,5
 622 374.5 622 374.5 650 374.5 c 4,6,7
 709 374.5 709 374.5 709 314.5 c 4,8,9
 709 290.5 709 290.5 691.5 269 c 132,-1,10
 674 247.5 674 247.5 647 247.5 c 4,0,1
613 294.5 m 260,11,12
 618 294.5 618 294.5 618.5 301.5 c 132,-1,13
 619 308.5 619 308.5 621 312.5 c 4,14,15
 625 323.5 625 323.5 632 331.5 c 132,-1,16
 639 339.5 639 339.5 645 350.5 c 4,17,18
 646 352.5 646 352.5 644.5 355.5 c 132,-1,19
 643 358.5 643 358.5 641 358.5 c 4,20,21
 635 358.5 635 358.5 629 352.5 c 132,-1,22
 623 346.5 623 346.5 618 338 c 132,-1,23
 613 329.5 613 329.5 610 320.5 c 132,-1,24
 607 311.5 607 311.5 607 306.5 c 4,25,26
 607 304.5 607 304.5 607.5 299.5 c 132,-1,27
 608 294.5 608 294.5 613 294.5 c 260,11,12
634.5 -10 m 0,28,29
 562.5 -10 562.5 -10 509 17.5 c 128,-1,30
 455.5 45 455.5 45 420.5 88.5 c 128,-1,31
 385.5 132 385.5 132 368 186 c 128,-1,32
 350.5 240 350.5 240 350.5 294 c 0,33,34
 350.5 360 350.5 360 370.5 416 c 128,-1,35
 390.5 472 390.5 472 428 512.5 c 128,-1,36
 465.5 553 465.5 553 519.5 576 c 128,-1,37
 573.5 599 573.5 599 640.5 599 c 0,38,39
 702.5 599 702.5 599 754.5 576.5 c 128,-1,40
 806.5 554 806.5 554 844 514.5 c 128,-1,41
 881.5 475 881.5 475 902.5 420.5 c 128,-1,42
 923.5 366 923.5 366 923.5 303 c 0,43,44
 923.5 239 923.5 239 902 182 c 128,-1,45
 880.5 125 880.5 125 842 82.5 c 128,-1,46
 803.5 40 803.5 40 750.5 15 c 128,-1,47
 697.5 -10 697.5 -10 634.5 -10 c 0,28,29
636.5 67 m 0,48,49
 737.5 67 737.5 67 789 130.5 c 128,-1,50
 840.5 194 840.5 194 840.5 303 c 0,51,52
 840.5 347 840.5 347 827 387.5 c 128,-1,53
 813.5 428 813.5 428 787.5 459 c 128,-1,54
 761.5 490 761.5 490 724.5 508.5 c 128,-1,55
 687.5 527 687.5 527 640.5 527 c 0,56,57
 595.5 527 595.5 527 558 509 c 128,-1,58
 520.5 491 520.5 491 493.5 461 c 128,-1,59
 466.5 431 466.5 431 451.5 391 c 128,-1,60
 436.5 351 436.5 351 436.5 306 c 256,61,62
 436.5 261 436.5 261 450 218 c 128,-1,63
 463.5 175 463.5 175 489 141.5 c 128,-1,64
 514.5 108 514.5 108 551.5 87.5 c 128,-1,65
 588.5 67 588.5 67 636.5 67 c 0,48,49
EndSplineSet
EndChar

